<?xml version="1.0" encoding="utf-8"?>
<!-- Generator: Adobe Illustrator 19.1.0, SVG Export Plug-In . SVG Version: 6.00 Build 0)  -->
<svg version="1.1" id="Слой_1" xmlns="http://www.w3.org/2000/svg" xmlns:xlink="http://www.w3.org/1999/xlink" x="0px" y="0px"
	 viewBox="0 0 130.5 130.537" style="enable-background:new 0 0 130.5 130.537;" xml:space="preserve">
<style type="text/css">
	.st0{fill:#1E1E1C;}
	.st1{fill:#1D1D1B;}
	.st2{fill:none;stroke:#1D1D1B;stroke-width:4;stroke-miterlimit:10;}
	.st3{fill:none;}
</style>
<g>
	<path d="M105.876,69.19v-4.813h-2.467v-2.375h-4.813v3.785l-5.106,5.106c-2.015-1.242-4.378-1.971-6.914-1.971
		c-2.403,0-4.651,0.654-6.596,1.777C75.399,63.616,67.446,58.908,58.4,58.908c-13.359,0-24.366,10.247-25.584,23.293h-6.362v4.813
		h6.541c1.088,4.529,5.162,7.908,10.019,7.908h46.301c4.858,0,8.931-3.379,10.019-7.908h6.541v-4.813h-6.091
		c-0.133-2.863-1.124-6.004-2.717-8.079l4.931-4.931H105.876z M58.4,63.721c7.583,0,14.224,4.069,17.883,10.132
		c-1.714,2.12-2.78,5.369-2.918,8.348H37.657C38.854,71.814,47.698,63.721,58.4,63.721z M89.315,90.109H43.015
		c-2.169,0-4.044-1.266-4.939-3.094h56.179C93.36,88.843,91.485,90.109,89.315,90.109z M83.984,82.201
		c-0.001-0.014-0.002-0.028-0.003-0.041h-4.842c0.002,0.014,0.002,0.028,0.004,0.041h-0.959c0.329-4.404,3.962-8.465,8.391-8.465
		c4.429,0,8.062,4.061,8.391,8.465H83.984z"/>
	<path d="M89.784,45.004c0-5.178-4.212-9.39-9.39-9.39v4.813c2.524,0,4.576,2.053,4.576,4.576c0,2.523-2.053,4.576-4.576,4.576
		v4.813C85.572,54.394,89.784,50.181,89.784,45.004z"/>
	<path d="M71.338,45.004c0-5.178-4.212-9.39-9.39-9.39v4.813c2.524,0,4.576,2.053,4.576,4.576c0,2.523-2.053,4.576-4.576,4.576
		v4.813C67.125,54.394,71.338,50.181,71.338,45.004z"/>
	<path d="M52.891,45.004c0-5.178-4.212-9.39-9.39-9.39v4.813c2.523,0,4.576,2.053,4.576,4.576c0,2.523-2.053,4.576-4.576,4.576
		v4.813C48.679,54.394,52.891,50.181,52.891,45.004z"/>
</g>
</svg>
