<?xml version="1.0" encoding="utf-8"?>
<!-- Generator: Adobe Illustrator 19.1.0, SVG Export Plug-In . SVG Version: 6.00 Build 0)  -->
<svg version="1.1" id="Слой_1" xmlns="http://www.w3.org/2000/svg" xmlns:xlink="http://www.w3.org/1999/xlink" x="0px" y="0px"
	 viewBox="0 0 129.464 129.5" style="enable-background:new 0 0 129.464 129.5;" xml:space="preserve">
<style type="text/css">
	.st0{fill:#1E1E1C;}
	.st1{fill:#1D1D1B;}
	.st2{fill:none;stroke:#1D1D1B;stroke-width:4;stroke-miterlimit:10;}
	.st3{fill:none;}
</style>
<path d="M112.725,84.516l-13.198-1.918l-3.624-7.344V54.279L61.414,27.538L26.926,54.279v41.7h56.78l-1.885,10.99l11.804-6.206
	l11.805,6.206l-2.255-13.145L112.725,84.516z M31.739,56.638l29.675-23.009L91.09,56.638v19.139l-3.366,6.821l-13.198,1.918
	l6.823,6.65H31.739V56.638z M99.037,98.169l-5.412-2.845l-5.411,2.845l1.033-6.026l-4.378-4.267l6.05-0.879l2.706-5.482l2.706,5.482
	l6.05,0.879l-4.378,4.267L99.037,98.169z"/>
</svg>
