<?xml version="1.0" encoding="utf-8"?>
<!-- Generator: Adobe Illustrator 19.1.0, SVG Export Plug-In . SVG Version: 6.00 Build 0)  -->
<svg version="1.1" id="Слой_1" xmlns="http://www.w3.org/2000/svg" xmlns:xlink="http://www.w3.org/1999/xlink" x="0px" y="0px"
	 viewBox="0 0 132.463 132.5" style="enable-background:new 0 0 132.463 132.5;" xml:space="preserve">
<style type="text/css">
	.st0{fill:#1E1E1C;}
	.st1{fill:#1D1D1B;}
	.st2{fill:none;stroke:#1D1D1B;stroke-width:4;stroke-miterlimit:10;}
	.st3{fill:none;}
</style>
<path class="st0" d="M102.481,63.299v7.327H54.118v-7.175H34.406v-9.971h-4.813v9.971v7.175v16.495v0.168v6.991h4.813v-6.991h68.075
	v6.991h4.813v-6.991V70.626v-7.327H102.481z M34.406,68.265h14.899v2.361H34.406V68.265z M34.406,82.308v-6.868h14.899v6.868H34.406
	z M54.118,82.476v-7.036h48.363v7.036H54.118z"/>
<polygon class="st1" points="54.118,44.729 42.058,44.729 42.058,49.095 47.241,49.095 42.058,59.075 54.118,59.075 54.118,54.708 
	49.33,54.708 "/>
<polygon class="st1" points="68.444,36.145 56.384,36.145 56.384,40.512 61.566,40.512 56.384,50.491 68.444,50.491 68.444,46.125 
	63.655,46.125 "/>
</svg>
