<?xml version="1.0" encoding="utf-8"?>
<!-- Generator: Adobe Illustrator 19.1.0, SVG Export Plug-In . SVG Version: 6.00 Build 0)  -->
<svg version="1.1" id="Слой_1" xmlns="http://www.w3.org/2000/svg" xmlns:xlink="http://www.w3.org/1999/xlink" x="0px" y="0px"
	 viewBox="0 0 131.5 132.457" style="enable-background:new 0 0 131.5 132.457;" xml:space="preserve">
<style type="text/css">
	.st0{fill:#1E1E1C;}
	.st1{fill:#1D1D1B;}
	.st2{fill:none;stroke:#1D1D1B;stroke-width:4;stroke-miterlimit:10;}
	.st3{fill:none;}
</style>
<g>
	<path d="M36.811,116.76h58.62l-29.31-75.034L36.811,116.76z M88.384,111.947h-5.269l3.789-3.789L88.384,111.947z M84.991,103.262
		l-8.685,8.685H64.63l17.081-17.081L84.991,103.262z M79.799,89.97l-21.977,21.977H46.146l30.373-30.373L79.799,89.97z
		 M74.607,76.678l-27.85,27.85l7.375-18.881l17.242-17.242L74.607,76.678z M58.496,74.475l7.625-19.519l3.341,8.553L58.496,74.475z"
		/>
	<path d="M60.311,36.131l-3.2,3.2c0.43,0.689,0.927,1.332,1.499,1.904l0.001,0.001c0.572,0.572,1.215,1.069,1.904,1.499l5.607-5.527
		l5.607,5.527c0.689-0.43,1.332-0.927,1.904-1.499l0.001-0.001c0.572-0.572,1.069-1.215,1.499-1.904l-3.2-3.2h4.528
		c0.18-0.774,0.284-1.576,0.284-2.404v-0.005c0-0.828-0.105-1.631-0.284-2.404h-4.528l3.2-3.2c-0.43-0.689-0.927-1.332-1.498-1.904
		l-0.002-0.002c-0.571-0.571-1.214-1.068-1.903-1.498l-3.2,3.2v-4.528c-0.775-0.18-1.578-0.284-2.407-0.284
		c-0.829,0-1.632,0.104-2.407,0.284v4.528l-3.2-3.2c-0.689,0.43-1.332,0.927-1.904,1.498l-0.002,0.002
		c-0.571,0.572-1.068,1.214-1.498,1.904l3.2,3.2h-4.528c-0.18,0.774-0.284,1.576-0.284,2.404v0.005c0,0.828,0.105,1.631,0.284,2.404
		H60.311z"/>
	<circle cx="103.764" cy="93.354" r="2.407"/>
	<circle cx="90.79" cy="65.894" r="2.407"/>
	<circle cx="117.838" cy="65.894" r="2.407"/>
	<circle cx="103.764" cy="38.435" r="2.407"/>
	<circle cx="27.394" cy="93.354" r="2.407"/>
	<circle cx="14.42" cy="65.894" r="2.407"/>
	<circle cx="41.468" cy="65.894" r="2.407"/>
	<circle cx="27.394" cy="38.435" r="2.407"/>
</g>
</svg>
