<?xml version="1.0" encoding="utf-8"?>
<!-- Generator: Adobe Illustrator 19.1.0, SVG Export Plug-In . SVG Version: 6.00 Build 0)  -->
<svg version="1.1" id="Слой_1" xmlns="http://www.w3.org/2000/svg" xmlns:xlink="http://www.w3.org/1999/xlink" x="0px" y="0px"
	 viewBox="0 0 134.5 131.689" style="enable-background:new 0 0 134.5 131.689;" xml:space="preserve">
<style type="text/css">
	.st0{fill:#1E1E1C;}
	.st1{fill:#1D1D1B;}
	.st2{fill:none;stroke:#1D1D1B;stroke-width:4;stroke-miterlimit:10;}
	.st3{fill:none;}
</style>
<g>
	<path class="st0" d="M80.894,21.6H55.106c-6.571,0-11.918,5.346-11.918,11.918v56.011c0,5.418,3.637,9.994,8.595,11.437v4.021
		h4.813v-3.54h21.317v3.999h4.813v-4.154c5.703-0.886,10.085-5.815,10.085-11.762V33.518C92.812,26.946,87.466,21.6,80.894,21.6z
		 M55.106,26.414h25.788c3.918,0,7.105,3.187,7.105,7.105v17.043H48.001V33.518C48.001,29.601,51.189,26.414,55.106,26.414z
		 M80.894,96.634H55.106c-3.917,0-7.104-3.187-7.104-7.105V55.374h39.997v34.155C87.998,93.447,84.812,96.634,80.894,96.634z"/>
	<rect x="51.783" y="60.589" class="st0" width="4.813" height="12.81"/>
	<rect x="51.783" y="36.1" class="st0" width="4.813" height="6.405"/>
</g>
</svg>
