<?xml version="1.0" encoding="utf-8"?>
<!-- Generator: Adobe Illustrator 19.1.0, SVG Export Plug-In . SVG Version: 6.00 Build 0)  -->
<svg version="1.1" id="Слой_1" xmlns="http://www.w3.org/2000/svg" xmlns:xlink="http://www.w3.org/1999/xlink" x="0px" y="0px"
	 viewBox="0 0 132 132.961" style="enable-background:new 0 0 132 132.961;" xml:space="preserve">
<style type="text/css">
	.st0{fill:#1E1E1C;}
	.st1{fill:#1D1D1B;}
	.st2{fill:none;stroke:#1D1D1B;stroke-width:4;stroke-miterlimit:10;}
	.st3{fill:none;}
</style>
<g>
	<path class="st1" d="M103.162,53.744l-0.197,0.011c-2.581-0.014-4.674-2.042-4.772-4.629l-0.087-2.317H36.027v2.407
		c0,0.052,0.001,0.104,0.005,0.156c-0.03,2.608-2.146,4.725-4.754,4.755h-2.466v29.578l2.379,0.028
		c2.603,0.03,4.725,2.156,4.755,4.751l-0.005,2.563H98.27l0.046-2.359c0.051-2.582,2.178-4.686,4.752-4.715l2.585,0.064V53.656
		L103.162,53.744z M100.84,79.437c-3.365,0.833-6.064,3.46-6.991,6.797H40.477c-0.842-3.382-3.489-6.078-6.852-6.985V58.637
		c3.411-0.881,6.095-3.589,6.941-7.014h53.185c0.96,3.357,3.677,5.933,7.09,6.706V79.437z"/>
	<path class="st1" d="M84.04,54.374H50.425c-4.572,0-8.291,3.72-8.291,8.291v12.528c0,4.572,3.719,8.291,8.291,8.291H84.04
		c4.572,0,8.291-3.719,8.291-8.291V62.665C92.331,58.093,88.612,54.374,84.04,54.374z M87.518,75.193
		c0,1.917-1.56,3.477-3.477,3.477H50.425c-1.918,0-3.478-1.56-3.478-3.477V62.665c0-1.918,1.56-3.478,3.478-3.478H84.04
		c1.917,0,3.477,1.56,3.477,3.478V75.193z"/>
	<rect x="64.732" y="12.024" class="st1" width="5" height="13"/>
	<rect x="64.732" y="110.946" class="st1" width="5" height="13"/>
	
		<rect x="29.647" y="28.928" transform="matrix(0.7071 0.7071 -0.7071 0.7071 32.8105 -16.355)" class="st1" width="13" height="4.999"/>
	
		<rect x="91.817" y="102.099" transform="matrix(-0.7071 -0.7071 0.7071 -0.7071 93.876 248.082)" class="st1" width="13" height="4.999"/>
	
		<rect x="33.648" y="98.099" transform="matrix(-0.7071 -0.7071 0.7071 -0.7071 -12.2547 204.1212)" class="st1" width="4.999" height="13"/>
	
		<rect x="95.818" y="24.928" transform="matrix(0.7071 0.7071 -0.7071 0.7071 51.0196 -60.3158)" class="st1" width="4.999" height="13"/>
</g>
</svg>
