<?xml version="1.0" encoding="utf-8"?>
<!-- Generator: Adobe Illustrator 19.1.0, SVG Export Plug-In . SVG Version: 6.00 Build 0)  -->
<svg version="1.1" id="Слой_1" xmlns="http://www.w3.org/2000/svg" xmlns:xlink="http://www.w3.org/1999/xlink" x="0px" y="0px"
	 viewBox="0 0 130.463 130.5" style="enable-background:new 0 0 130.463 130.5;" xml:space="preserve">
<style type="text/css">
	.st0{fill:#1E1E1C;}
	.st1{fill:#1D1D1B;}
	.st2{fill:none;stroke:#1D1D1B;stroke-width:4;stroke-miterlimit:10;}
	.st3{fill:none;}
</style>
<path d="M28.169,77.672c0-0.533,0.469-1.031,0.916-1.55c-0.008,0.143-0.022,0.285-0.022,0.43c0,4.103,3.338,7.441,7.441,7.441
	s7.441-3.338,7.441-7.441c0-0.145-0.014-0.287-0.022-0.43c0.406,0.472,0.708,0.903,0.682,1.97v2.573H88.43
	c1.057,2.824,3.775,4.844,6.963,4.844c4.103,0,7.441-3.338,7.441-7.441c0-0.297-0.022-0.589-0.056-0.877
	c0.316,0.441,0.711,0.895,0.711,1.34l0,0v2.134h10.924v-4.268h-1.994l0.808-5.882c0.602-0.295,1.133-0.649,1.582-1.082
	c1.17-1.128,1.739-2.632,1.739-4.6c0-3.672-3.299-6.659-7.354-6.659h-24.8l-6.206-9.236l-0.634-1.077H45.532l0,0l-5.767,8.435
	H20.932c-3.671,0-6.658,2.987-6.658,6.658c0,3.03,5.84,12.62,9.028,15.497c0.608,0.548,1.303,0.725,1.965,0.725
	c0.819,0,1.772-0.26,2.718-0.527C28.09,78.618,28.093,77.693,28.169,77.672 M61.822,73.32h10.522v3.076H61.822V73.32z
	 M57.554,76.396h-8.826c-0.245-1.117-0.791-2.155-1.587-3.076h10.412V76.396z M61.822,69.052v-5.316c0-0.442-0.046-0.873-0.12-1.294
	h10.643v6.611H61.822z M59.307,58.174c-1.024-0.908-2.298-1.536-3.706-1.77l-2.817-0.109l0,0v-4.167h19.56v6.046H59.307z
	 M76.612,54.246l2.639,3.927h-2.639V54.246z M47.409,52.128h1.107v4.167H44.8L47.409,52.128z M25.166,74.248
	c-2.859-3.29-6.47-9.92-6.624-11.294c0-1.318,1.072-2.39,2.39-2.39h33.449c1.749,0,3.173,1.424,3.173,3.173v5.316H36.503v0.058
	c-0.533,0-1.053,0.059-1.555,0.166C30.511,69.644,26.87,71.561,25.166,74.248z M36.503,79.724c-1.749,0-3.173-1.424-3.173-3.173
	c0-1.466,1.004-2.69,2.357-3.053c0.268-0.015,0.539-0.024,0.816-0.024c0.276,0,0.548,0.009,0.816,0.024
	c1.353,0.363,2.357,1.588,2.357,3.053C39.676,78.3,38.252,79.724,36.503,79.724z M95.394,81.24c-1.749,0-3.172-1.424-3.172-3.173
	c0-1.749,1.423-3.173,3.172-3.173c1.749,0,3.173,1.424,3.173,3.173C98.566,79.817,97.143,81.24,95.394,81.24z M108.11,76.396h-0.962
	c-1.346-3.708-6.125-6.381-11.992-6.381c-5.867,0-10.646,2.674-11.992,6.381h-6.552V73.32h4.725v-4.268h-4.725v-6.611h32.58
	c1.672,0,3.086,1.095,3.086,2.391c0,0.978-0.219,1.321-0.432,1.527c-0.313,0.302-1.411,0.995-4.831,0.865l-0.157,4.265
	c0.337,0.012,0.663,0.018,0.981,0.018c0.328,0,0.638-0.012,0.946-0.025L108.11,76.396z"/>
</svg>
