<?xml version="1.0" encoding="utf-8"?>
<!-- Generator: Adobe Illustrator 19.1.0, SVG Export Plug-In . SVG Version: 6.00 Build 0)  -->
<svg version="1.1" id="Слой_1" xmlns="http://www.w3.org/2000/svg" xmlns:xlink="http://www.w3.org/1999/xlink" x="0px" y="0px"
	 viewBox="0 0 131.918 131.955" style="enable-background:new 0 0 131.918 131.955;" xml:space="preserve">
<style type="text/css">
	.st0{fill:#1E1E1C;}
	.st1{fill:#1D1D1B;}
	.st2{fill:none;stroke:#1D1D1B;stroke-width:4;stroke-miterlimit:10;}
	.st3{fill:none;}
</style>
<g>
	<path d="M65.071,54.911c0-3.638-1.922-6.82-4.799-8.609v13.996c0,1.711-0.816,3.225-2.07,4.206
		c-0.276,0.216-0.566,0.414-0.881,0.574v-0.319V45.064c-0.768-0.186-1.567-0.296-2.393-0.296c-0.836,0-1.644,0.112-2.421,0.303
		v19.679v0.327c-0.325-0.164-0.623-0.37-0.906-0.594c-1.24-0.981-2.046-2.486-2.046-4.186V46.319
		c-2.862,1.793-4.77,4.966-4.77,8.592c0,0.11,0.01,0.217,0.013,0.327l-0.056,0.105v4.955c0,4.778,3.316,8.786,7.765,9.871v4.756
		c-1.992,0.916-3.381,2.925-3.381,5.257v23.322c0,3.192,2.596,5.788,5.787,5.788c3.192,0,5.788-2.596,5.788-5.788V80.182
		c0-2.332-1.389-4.341-3.38-5.257v-4.756c4.448-1.085,7.764-5.093,7.764-9.871C65.085,60.298,65.071,51.273,65.071,54.911z
		 M55.888,103.503c0,0.529-0.446,0.974-0.974,0.974c-0.528,0-0.974-0.446-0.974-0.974V80.182c0-0.528,0.446-0.974,0.974-0.974
		c0.528,0,0.974,0.446,0.974,0.974V103.503z"/>
	<path d="M79.339,45.272c-0.644-0.24-1.33-0.354-2.017-0.376l-3.928-0.128v30.156c-1.992,0.916-3.381,2.925-3.381,5.257v23.322
		c0,3.192,2.596,5.788,5.788,5.788s5.788-2.596,5.788-5.788V80.182c0-2.332-1.389-4.342-3.382-5.257v-1.777l7.765-0.014V54.796
		C85.972,50.433,83.207,46.712,79.339,45.272z M76.776,103.503c0,0.529-0.446,0.974-0.974,0.974s-0.974-0.446-0.974-0.974V80.182
		c0-0.528,0.446-0.974,0.974-0.974s0.974,0.446,0.974,0.974V103.503z M81.159,68.348h-2.951V50.016
		c1.748,0.883,2.951,2.692,2.951,4.78V68.348z"/>
	<rect x="62.951" y="24.697" width="4.813" height="11.804"/>
	<rect x="96.187" y="59.782" width="11.804" height="4.813"/>
	<rect x="22.897" y="59.782" width="11.804" height="4.813"/>
	<rect x="91.093" y="34.906" transform="matrix(0.707 0.7072 -0.7072 0.707 56.2506 -54.1653)" width="4.813" height="11.804"/>
	<rect x="31.314" y="38.402" transform="matrix(-0.7071 -0.7071 0.7071 -0.7071 34.6758 95.9799)" width="11.804" height="4.813"/>
	<rect x="87.597" y="83.906" transform="matrix(-0.7071 -0.7071 0.7071 -0.7071 98.5818 213.4592)" width="11.804" height="4.813"/>
	<rect x="34.81" y="80.411" transform="matrix(-0.7071 -0.7071 0.7071 -0.7071 2.4993 173.6608)" width="4.813" height="11.804"/>
</g>
</svg>
