<?xml version="1.0" encoding="utf-8"?>
<!-- Generator: Adobe Illustrator 19.1.0, SVG Export Plug-In . SVG Version: 6.00 Build 0)  -->
<svg version="1.1" id="Слой_1" xmlns="http://www.w3.org/2000/svg" xmlns:xlink="http://www.w3.org/1999/xlink" x="0px" y="0px"
	 viewBox="0 0 130 130.946" style="enable-background:new 0 0 130 130.946;" xml:space="preserve">
<style type="text/css">
	.st0{fill:#1E1E1C;}
	.st1{fill:#1D1D1B;}
	.st2{fill:none;stroke:#1D1D1B;stroke-width:4;stroke-miterlimit:10;}
	.st3{fill:none;}
</style>
<path class="st3" d="M77.894,46.361c-1.442,0.392-2.785,1.143-3.913,2.224c-1.775,1.7-2.775,3.957-2.816,6.354v0
	c-0.04,2.392,0.882,4.679,2.6,6.44c1.718,1.762,3.982,2.743,6.376,2.762c0.023,0,0.047,0,0.071,0c2.348,0,4.588-0.945,6.316-2.667
	c0.915-0.912,1.608-1.97,2.066-3.112C83.042,56.827,78.797,52.147,77.894,46.361z"/>
<path class="st3" d="M25.358,94.424h21.739v-4.236L35.924,79.015C26.674,81.9,24.844,84.563,25.358,94.424z"/>
<path class="st3" d="M63.273,79.011L52.097,90.188v4.236H73.87C74.382,84.562,72.548,81.903,63.273,79.011z"/>
<path class="st3" d="M40.565,54.904c-0.05,2.393,0.864,4.683,2.574,6.451c1.711,1.769,3.972,2.759,6.366,2.788
	c0.036,0,0.071,0,0.106,0c2.336,0,4.566-0.935,6.291-2.64c1.761-1.74,2.73-4.017,2.729-6.411c0-1.444-0.374-2.829-1.02-4.064h-16.05
	C40.943,52.223,40.593,53.538,40.565,54.904z"/>
<path class="st3" d="M41.53,77.551l8.067,8.067l8.07-8.07C52.267,76.461,46.935,76.463,41.53,77.551z"/>
<path class="st3" d="M83.024,46.52c0.798,3.095,3.06,5.604,6.005,6.736C88.347,50.155,85.998,47.552,83.024,46.52z"/>
<path class="st3" d="M102.204,83.465c-5.193-4.018-11.327-6.084-19.02-6.359c3.415,4.991,3.38,10.858,3.35,16.18
	c-0.002,0.412-0.005,0.83-0.005,1.249h18.072l0.004-2.167C104.577,87.466,104.887,85.54,102.204,83.465z"/>
<g>
	<path d="M62.507,73.759c-8.674-2.481-17.111-2.482-25.795-0.001c-13.972,3.99-17.114,8.553-16.01,23.253l0.167,2.226h57.49
		l0.167-2.227C79.629,82.32,76.484,77.757,62.507,73.759z M47.097,94.424H25.358c-0.514-9.861,1.316-12.524,10.566-15.408
		l11.172,11.172V94.424z M41.53,77.551c5.405-1.088,10.736-1.089,16.137-0.004l-8.07,8.07L41.53,77.551z M73.87,94.424H52.097
		v-4.236l11.177-11.177C72.548,81.903,74.382,84.562,73.87,94.424z"/>
	<path d="M105.149,79.658c-1.182-0.915-2.407-1.732-3.67-2.473V61.027c0-10.907-8.873-19.78-19.78-19.78v0.074
		c-0.373-0.041-0.749-0.077-1.13-0.087c-1.318-0.034-2.615,0.128-3.865,0.46c0.202-0.974,0.309-1.981,0.309-3.014h-5
		c0,4.901-3.603,8.965-8.297,9.712V30.626l-13.983,6.429L35.75,30.626v17.704c-4.533-0.879-7.971-4.863-7.971-9.649h-5
		c0,7.549,5.669,13.786,12.971,14.712v0.133h0.094c-0.048,0.422-0.083,0.846-0.092,1.275c-0.078,3.686,1.317,7.201,3.926,9.899
		c2.61,2.698,6.079,4.209,9.768,4.254c0.055,0.001,0.11,0.001,0.166,0.001c3.61,0,7.039-1.427,9.673-4.03
		c2.683-2.651,4.16-6.145,4.159-9.836c0-0.529-0.041-1.048-0.101-1.563h0.373v-0.109c0.973-0.1,1.925-0.271,2.832-0.552
		c-0.107,0.655-0.184,1.317-0.195,1.991c-0.063,3.686,1.345,7.196,3.966,9.883c2.621,2.688,6.095,4.185,9.783,4.215
		c0.037,0,0.074,0,0.111,0c3.63,0,7.076-1.443,9.713-4.071c2.673-2.663,4.136-6.161,4.12-9.85c-0.004-0.836-0.094-1.653-0.244-2.451
		c1.679,2.396,2.678,5.301,2.678,8.444v13.754c-5.451-2.078-11.678-2.851-19.022-2.395l-6.561,0.407l5.273,3.926
		c5.623,4.186,5.59,9.911,5.551,16.539c-0.007,1.224,0.079,6.091,0.079,6.091l27.531-0.166l0.078-6.519
		C109.536,88.248,109.978,83.393,105.149,79.658z M55.902,61.503c-1.725,1.705-3.955,2.64-6.291,2.64c-0.035,0-0.071,0-0.106,0
		c-2.394-0.029-4.655-1.019-6.366-2.788c-1.71-1.768-2.624-4.059-2.574-6.451c0.01-0.467,0.07-0.924,0.153-1.376h17.75
		c0.097,0.512,0.163,1.032,0.163,1.564C58.632,57.486,57.663,59.763,55.902,61.503z M58.716,48.527H40.75V38.428l8.983,4.13
		l8.983-4.13V48.527z M86.528,61.475c-1.728,1.722-3.969,2.667-6.316,2.667c-0.024,0-0.048,0-0.071,0
		c-2.394-0.019-4.658-1-6.376-2.762c-1.718-1.761-2.64-4.048-2.6-6.44v0c0.041-2.398,1.041-4.655,2.816-6.354
		c1.129-1.081,2.471-1.832,3.913-2.224c0.904,5.785,5.148,10.466,10.701,12.002C88.136,59.505,87.443,60.564,86.528,61.475z
		 M83.024,46.52c2.974,1.032,5.323,3.635,6.005,6.736C86.084,52.124,83.823,49.615,83.024,46.52z M104.601,94.536H86.528
		c0.001-0.419,0.003-0.837,0.005-1.249c0.031-5.322,0.066-11.19-3.35-16.18c7.693,0.275,13.826,2.341,19.02,6.359
		c2.683,2.075,2.373,4.001,2.401,8.904L104.601,94.536z"/>
</g>
</svg>
