<?xml version="1.0" encoding="utf-8"?>
<!-- Generator: Adobe Illustrator 19.1.0, SVG Export Plug-In . SVG Version: 6.00 Build 0)  -->
<svg version="1.1" id="Слой_1" xmlns="http://www.w3.org/2000/svg" xmlns:xlink="http://www.w3.org/1999/xlink" x="0px" y="0px"
	 viewBox="0 0 131.418 131.455" style="enable-background:new 0 0 131.418 131.455;" xml:space="preserve">
<style type="text/css">
	.st0{fill:#1E1E1C;}
	.st1{fill:#1D1D1B;}
	.st2{fill:none;stroke:#1D1D1B;stroke-width:4;stroke-miterlimit:10;}
	.st3{fill:none;}
</style>
<path d="M70.85,84.651V57.603l9.397,4.94l-2.254-13.144l9.55-9.309l-13.198-1.918l-5.902-11.959l-5.903,11.959l-13.197,1.918
	l9.55,9.309l-2.254,13.145l9.398-4.941v27.048c-8.755,1.18-15.529,8.696-15.529,17.769v2.407h35.871v-2.407
	C86.379,93.347,79.605,85.831,70.85,84.651z M59.688,43.452l6.05-0.879l2.706-5.483l2.706,5.483l6.05,0.879l-4.378,4.267
	l1.033,6.026L68.444,50.9l-5.412,2.845l1.033-6.026L59.688,43.452z M55.542,100.014c1.134-6.09,6.487-10.715,12.901-10.715
	c6.414,0,11.768,4.625,12.901,10.715H55.542z"/>
</svg>
