<?xml version="1.0" encoding="utf-8"?>
<!-- Generator: Adobe Illustrator 19.1.0, SVG Export Plug-In . SVG Version: 6.00 Build 0)  -->
<svg version="1.1" id="Слой_1" xmlns="http://www.w3.org/2000/svg" xmlns:xlink="http://www.w3.org/1999/xlink" x="0px" y="0px"
	 viewBox="0 0 131.918 131.955" style="enable-background:new 0 0 131.918 131.955;" xml:space="preserve">
<style type="text/css">
	.st0{fill:#1E1E1C;}
	.st1{fill:#1D1D1B;}
	.st2{fill:none;stroke:#1D1D1B;stroke-width:4;stroke-miterlimit:10;}
	.st3{fill:none;}
</style>
<g>
	<path d="M95.144,79.441V50.866c0-9.89-8.046-17.935-17.935-17.935c-4.331,0-8.481,1.57-11.719,4.365
		c-3.126-2.649-7.166-4.251-11.575-4.251c-9.89,0-17.936,8.046-17.936,17.936h4.813c0-7.236,5.887-13.122,13.123-13.122
		c3.192,0,6.119,1.148,8.396,3.049c0.729,0.647,1.976,1.549,3.221,3.991c0.957,1.82,1.505,3.887,1.505,6.082v28.46H33.429v4.813
		h72.029v-4.813H95.144z M71.85,53.273h18.48v10.83H71.85V53.273z M90.099,48.46H71.67c-0.393-2.782-1.425-5.36-2.945-7.581
		c2.357-2.001,5.352-3.134,8.483-3.134C83.621,37.744,88.965,42.371,90.099,48.46z M71.85,68.917h18.48v10.525H71.85V68.917z"/>
	<rect x="38.386" y="88.457" width="62.116" height="4.813"/>
</g>
</svg>
