<?xml version="1.0" encoding="utf-8"?>
<!-- Generator: Adobe Illustrator 19.1.0, SVG Export Plug-In . SVG Version: 6.00 Build 0)  -->
<svg version="1.1" id="Слой_1" xmlns="http://www.w3.org/2000/svg" xmlns:xlink="http://www.w3.org/1999/xlink" x="0px" y="0px"
	 viewBox="0 0 130 130.946" style="enable-background:new 0 0 130 130.946;" xml:space="preserve">
<style type="text/css">
	.st0{fill:#1E1E1C;}
	.st1{fill:#1D1D1B;}
	.st2{fill:none;stroke:#1D1D1B;stroke-width:4;stroke-miterlimit:10;}
	.st3{fill:none;}
</style>
<g>
	<path class="st1" d="M81.238,38.284v8.61l-17.075-8.61l-41.096,20.63h7.908v11.559l-2.771,1.391l-0.685,0.344l-4.452,2.235h7.908
		v26.245H17.582v4.813h93.174v-4.813H97.363V74.442h7.712l-4.432-2.235l-0.682-0.344l-2.598-1.31v-11.64h7.712l-18.889-9.525h0.052
		V42.07h0.007c5.195,0,9.421-4.227,9.421-9.421c0-3.057-1.501-5.902-3.936-7.653c2.435-1.751,3.936-4.597,3.936-7.653v-1H91.71v1
		c0,3.014-2.452,5.466-5.466,5.466h-1v4.374h1c3.014,0,5.466,2.452,5.466,5.467c0,3.014-2.452,5.466-5.466,5.466 M53.167,100.687
		H35.788V89.776h17.379V100.687z M43.024,84.232v-3.429h3.209v3.429H43.024z M53.167,84.962h-2.12v-8.973H38.211v8.973h-2.423
		v-10.52h17.379V84.962z M43.384,69.629l20.773-10.428l20.681,10.428H43.384z M69.842,100.687H57.98v-3.381h11.862V100.687z
		 M69.842,92.493H57.98v-18.05h11.862V92.493z M92.55,100.687H74.655V89.971H92.55V100.687z M82.133,84.637v-3.429h3.209v3.429
		H82.133z M92.55,85.158h-2.394v-8.763H77.32v8.763h-2.665V74.442H92.55V85.158z M92.55,68.127L64.163,53.813L35.788,68.056V57.913
		l28.369-14.241L92.55,57.989V68.127z"/>
	<path class="st1" d="M86.245,34.937h1l0-3.955h-1c-3.014,0-5.466-2.452-5.466-5.466c0-3.015,2.452-5.467,5.466-5.467h1
		l-0.001-3.955h-1c-5.195,0-9.421,4.227-9.421,9.422C76.823,30.711,81.05,34.937,86.245,34.937z"/>
</g>
</svg>
