<?xml version="1.0" encoding="utf-8"?>
<!-- Generator: Adobe Illustrator 19.1.0, SVG Export Plug-In . SVG Version: 6.00 Build 0)  -->
<svg version="1.1" id="Слой_1" xmlns="http://www.w3.org/2000/svg" xmlns:xlink="http://www.w3.org/1999/xlink" x="0px" y="0px"
	 viewBox="0 0 130 130.037" style="enable-background:new 0 0 130 130.037;" xml:space="preserve">
<style type="text/css">
	.st0{fill:#1E1E1C;}
	.st1{fill:#1D1D1B;}
	.st2{fill:none;stroke:#1D1D1B;stroke-width:4;stroke-miterlimit:10;}
	.st3{fill:none;}
</style>
<g>
	<rect x="49.669" y="69.394" class="st1" width="3.97" height="8.168"/>
	<path class="st1" d="M72.562,65.43c-5.595,0-10.148,4.552-10.148,10.148c0,5.595,4.552,10.148,10.148,10.148
		c5.595,0,10.147-4.552,10.147-10.148C82.709,69.982,78.157,65.43,72.562,65.43z M72.562,81.755c-3.406,0-6.178-2.771-6.178-6.177
		c0-3.406,2.771-6.177,6.178-6.177c3.406,0,6.177,2.771,6.177,6.177C78.739,78.984,75.968,81.755,72.562,81.755z"/>
	<path class="st1" d="M100.905,51.088c0-2.567-2.088-4.656-4.656-4.656h-4.467v-2.949h-5.199v2.949h-7.099l-2.057-5.105h-9.731
		l-2.057,5.105H55.105v-2.949h-7.657v2.949h-2.552v-2.949h-4.349v2.949H36.08c-2.567,0-4.655,2.088-4.655,4.656v6.717v29.171V87.7
		c0,2.567,2.088,4.655,4.655,4.655h60.17c2.567,0,4.656-2.088,4.656-4.655V51.088z M70.377,45.297h4.37l2.52,6.254h-9.411
		L70.377,45.297z M80.624,55.521l0.54,0.242l0.23,2.041H63.73l0.239-2.118l0.404-0.165H80.624z M35.395,51.088
		c0-0.378,0.307-0.685,0.685-0.685h27.959l-0.466,1.157l-3.286,1.345l-0.552,4.901H35.395V51.088z M35.395,61.775h23.892
		l-0.506,4.488c-1.803,2.66-2.858,5.866-2.858,9.314c0,2.669,0.635,5.19,1.756,7.428H35.395V61.775z M36.08,88.385
		c-0.378,0-0.685-0.307-0.685-0.685v-0.725h25.062c0.47,0.499,0.968,0.972,1.497,1.41H36.08z M72.562,88.246
		c-6.985,0-12.668-5.683-12.668-12.668c0-6.985,5.683-12.668,12.668-12.668c6.985,0,12.668,5.683,12.668,12.668
		C85.23,82.563,79.547,88.246,72.562,88.246z M96.935,87.7c0,0.378-0.307,0.685-0.685,0.685H83.17
		c0.528-0.438,1.026-0.911,1.497-1.41h12.269V87.7z M96.935,83.005h-9.491c1.121-2.238,1.756-4.759,1.756-7.428
		c0-3.449-1.055-6.656-2.859-9.315l-0.505-4.487h11.099V83.005z M96.935,57.804H85.389l-0.534-4.739l-3.29-1.472l-0.48-1.191H96.25
		c0.378,0,0.685,0.307,0.685,0.685V57.804z"/>
	<rect x="6.047" y="65.918" class="st1" width="10.316" height="3.968"/>
	<rect x="114.969" y="65.918" class="st1" width="10.316" height="3.968"/>
	
		<rect x="24.029" y="96.547" transform="matrix(-0.7071 -0.7071 0.7071 -0.7071 -27.5091 192.015)" class="st1" width="3.967" height="10.316"/>
	
		<rect x="103.381" y="28.941" transform="matrix(-0.7071 -0.7071 0.7071 -0.7071 155.7565 132.7149)" class="st1" width="3.967" height="10.316"/>
	
		<rect x="100.206" y="99.721" transform="matrix(-0.7071 -0.7071 0.7071 -0.7071 107.9521 248.1249)" class="st1" width="10.316" height="3.967"/>
	
		<rect x="20.855" y="32.116" transform="matrix(-0.7071 -0.7071 0.7071 -0.7071 20.2953 76.605)" class="st1" width="10.316" height="3.967"/>
</g>
</svg>
