<?xml version="1.0" encoding="utf-8"?>
<!-- Generator: Adobe Illustrator 19.1.0, SVG Export Plug-In . SVG Version: 6.00 Build 0)  -->
<svg version="1.1" id="Слой_1" xmlns="http://www.w3.org/2000/svg" xmlns:xlink="http://www.w3.org/1999/xlink" x="0px" y="0px"
	 viewBox="0 0 129.007 129.946" style="enable-background:new 0 0 129.007 129.946;" xml:space="preserve">
<style type="text/css">
	.st0{fill:#1E1E1C;}
	.st1{fill:#1D1D1B;}
	.st2{fill:none;stroke:#1D1D1B;stroke-width:4;stroke-miterlimit:10;}
	.st3{fill:none;}
</style>
<g>
	<path d="M44.709,75.848c4.263,0,8.034-2.109,10.352-5.33h0.001c2.318,3.221,6.09,5.33,10.352,5.33s8.034-2.109,10.352-5.33h0.001
		c2.318,3.221,6.09,5.33,10.352,5.33c7.035,0,12.759-5.724,12.759-12.759l0,0h-4.813l0,0c0,4.381-3.565,7.946-7.946,7.946
		c-4.382,0-8.067-3.564-8.067-7.946l0,0l-0.035-0.769l0,0l12.868-11.856c0,0,0-0.001,0-0.001l-17.6-2.558l0,0l-7.871-15.948
		c0,0-0.001,0-0.001,0l-7.871,15.948l0,0l-17.6,2.558c0,0,0,0,0,0.001l12.734,11.725c0,0,0,0,0,0l0,0
		c-0.156,0.899-0.384,3.972-1.544,5.564c-1.447,1.986-3.784,3.283-6.424,3.283c-4.381,0-7.946-3.564-7.946-7.946l0,0H31.95l0,0
		C31.95,70.125,37.674,75.848,44.709,75.848z M57.851,59.823l-7.565-5.999c0,0,0-0.001,0-0.001l10.453-1.519c0,0,0,0,0,0
		l4.675-9.472c0,0,0.001,0,0.001,0l4.675,9.472c0,0,0,0,0,0l10.453,1.519c0,0,0,0,0,0l-7.43,5.868l0,1.376l0.105,1.612
		c0.118,2.585-0.932,5.145-2.985,6.72c-1.336,1.025-3.006,1.635-4.818,1.635c-4.382,0-7.946-3.564-7.946-7.946"/>
	<path d="M86.12,89.516c-4.382,0-7.946-3.564-7.946-7.946h-4.813c0,4.382-3.564,7.946-7.946,7.946s-7.946-3.564-7.946-7.946h-4.813
		c0,4.382-3.564,7.946-7.946,7.946s-7.946-3.564-7.946-7.946H31.95c0,7.035,5.724,12.759,12.759,12.759
		c4.263,0,8.034-2.109,10.353-5.33c2.318,3.221,6.09,5.33,10.353,5.33s8.034-2.109,10.353-5.33c2.318,3.221,6.09,5.33,10.353,5.33
		c7.035,0,12.759-5.724,12.759-12.759h-4.813C94.066,85.952,90.502,89.516,86.12,89.516z"/>
</g>
</svg>
