<?xml version="1.0" encoding="utf-8"?>
<!-- Generator: Adobe Illustrator 19.1.0, SVG Export Plug-In . SVG Version: 6.00 Build 0)  -->
<svg version="1.1" id="Слой_1" xmlns="http://www.w3.org/2000/svg" xmlns:xlink="http://www.w3.org/1999/xlink" x="0px" y="0px"
	 viewBox="0 0 130.5 131.45" style="enable-background:new 0 0 130.5 131.45;" xml:space="preserve">
<style type="text/css">
	.st0{fill:#1E1E1C;}
	.st1{fill:#1D1D1B;}
	.st2{fill:none;stroke:#1D1D1B;stroke-width:4;stroke-miterlimit:10;}
	.st3{fill:none;}
</style>
<path class="st1" d="M66.79,30.172l-1.801-2.033l-1.801,2.033c-2.442,2.756-23.856,27.308-23.856,40.676
	c0,13.336,10.228,24.323,23.25,25.541v13.597h4.813V96.389c13.023-1.218,23.25-12.205,23.25-25.541
	C90.646,57.481,69.232,32.928,66.79,30.172z M62.582,91.549c-10.523-1.216-18.685-10.741-18.431-21.641l18.431,18.461V91.549z
	 M62.582,81.487L45.494,64.535c0.841-2.203,2.029-4.559,3.431-7.027l13.658,13.481V81.487z M62.582,64.182L51.488,53.278
	c1.43-2.242,2.968-4.494,4.522-6.65l6.573,6.349V64.182z M62.582,46.706l-3.675-3.675c1.275-1.674,2.519-3.249,3.675-4.676V46.706z
	 M67.396,38.354c1.086,1.339,2.25,3.117,3.444,4.677l-3.444,3.597V38.354z M67.396,52.977l6.349-6.349
	c1.56,2.155,3.109,4.4,4.554,6.65L67.396,64.182V52.977z M67.396,70.988l13.481-13.481c1.404,2.447,2.604,4.829,3.472,7.027
	L67.396,81.487V70.988z M67.396,91.549v-3.255l18.386-18.386c0.03,0.322,0.051,0.638,0.051,0.941
	C85.833,81.528,77.759,90.352,67.396,91.549z"/>
<rect x="14.5" y="67.408" class="st1" width="13" height="5"/>
<rect x="102.422" y="67.408" class="st1" width="13" height="5"/>
<rect x="31.404" y="94.493" transform="matrix(-0.7071 -0.7071 0.7071 -0.7071 -13.5351 196.3788)" class="st1" width="4.999" height="13"/>
<rect x="93.574" y="32.323" transform="matrix(0.7071 0.7071 -0.7071 0.7071 55.5913 -56.5638)" class="st1" width="4.999" height="13"/>
<rect x="89.574" y="98.493" transform="matrix(-0.7071 -0.7071 0.7071 -0.7071 92.5964 240.3399)" class="st1" width="13" height="4.999"/>
<rect x="27.404" y="36.323" transform="matrix(0.7071 0.7071 -0.7071 0.7071 37.382 -12.6027)" class="st1" width="13" height="4.999"/>
</svg>
