<?xml version="1.0" encoding="utf-8"?>
<!-- Generator: Adobe Illustrator 19.1.0, SVG Export Plug-In . SVG Version: 6.00 Build 0)  -->
<svg version="1.1" id="Слой_1" xmlns="http://www.w3.org/2000/svg" xmlns:xlink="http://www.w3.org/1999/xlink" x="0px" y="0px"
	 viewBox="0 0 132.5 131.689" style="enable-background:new 0 0 132.5 131.689;" xml:space="preserve">
<style type="text/css">
	.st0{fill:#1E1E1C;}
	.st1{fill:#1D1D1B;}
	.st2{fill:none;stroke:#1D1D1B;stroke-width:4;stroke-miterlimit:10;}
	.st3{fill:none;}
</style>
<g>
	<path class="st0" d="M85.168,39.307H72.087l6.853-6.853l-3.602-3.602l-8.105,8.105l-8.105-8.105l-3.602,3.602l6.853,6.853H31.304
		v53.811h6.876v11.743h4.813V93.118h42.175h6.303v11.743h4.813V93.118h6.876V39.307H85.168z M80.355,88.304H36.117V44.12h31.075
		l0.041,0.041l0.041-0.041h13.082V88.304z M98.348,88.304H85.168V44.12h13.179V88.304z"/>
	<path class="st0" d="M92.309,54.735c2.295,0,4.161-1.867,4.161-4.162c0-2.295-1.867-4.161-4.161-4.161
		c-2.295,0-4.162,1.867-4.162,4.161C88.148,52.869,90.015,54.735,92.309,54.735z M92.309,49.922c0.359,0,0.652,0.292,0.652,0.652
		c0,0.36-0.292,0.652-0.652,0.652c-0.36,0-0.652-0.292-0.652-0.652C91.657,50.214,91.95,49.922,92.309,49.922z"/>
</g>
</svg>
