<?xml version="1.0" encoding="utf-8"?>
<!-- Generator: Adobe Illustrator 19.1.0, SVG Export Plug-In . SVG Version: 6.00 Build 0)  -->
<svg version="1.1" id="Слой_1" xmlns="http://www.w3.org/2000/svg" xmlns:xlink="http://www.w3.org/1999/xlink" x="0px" y="0px"
	 viewBox="0 0 131.418 131.455" style="enable-background:new 0 0 131.418 131.455;" xml:space="preserve">
<style type="text/css">
	.st0{fill:#1E1E1C;}
	.st1{fill:#1D1D1B;}
	.st2{fill:none;stroke:#1D1D1B;stroke-width:4;stroke-miterlimit:10;}
	.st3{fill:none;}
</style>
<polygon points="65.211,106.986 65.23,106.986 65.211,106.736 "/>
<path class="st1" d="M102.468,90.659V79.943h8.652V60.457L51.067,40.876V59.6H39.95v-3.839h-4.813V59.6h-8.252v31.058H14.852v4.813
	h12.034h2.407h55.239h2.407h28.651v-4.813H102.468z M55.881,47.508l50.426,16.442v11.179H86.938H55.881V59.6V47.508z M50.884,90.659
	h-3.06V64.414h3.06V90.659z M55.697,79.943h3.059v10.716h-3.059V79.943z M63.57,79.943h3.06v10.716h-3.06V79.943z M71.444,79.943
	h3.06v10.716h-3.06V79.943z M43.01,64.414v26.245h-3.06V64.414H43.01z M31.699,64.414h3.438v26.245h-3.438V64.414z M82.125,90.659
	h-2.808V79.943h2.808V90.659z M86.938,79.943h10.716v10.716H86.938V79.943z"/>
<circle class="st2" cx="100.084" cy="41.873" r="3.805"/>
</svg>
