<svg xmlns="http://www.w3.org/2000/svg" xmlns:xlink="http://www.w3.org/1999/xlink" preserveAspectRatio="xMidYMid" width="16" height="16" viewBox="0 0 16 16">
  <defs>
    <style>
      .cls-1 {
        fill: #13387d;
        fill-rule: evenodd;
      }
    </style>
  </defs>
  <path d="M10.301,8.255 C10.155,8.109 10.155,7.890 10.301,7.744 L15.781,2.264 C15.927,2.118 16.000,1.899 16.000,1.753 C16.000,1.607 15.927,1.388 15.781,1.242 L14.758,0.219 C14.612,0.073 14.393,-0.000 14.246,-0.000 C14.027,-0.000 13.881,0.073 13.735,0.219 L8.256,5.698 C8.109,5.844 7.890,5.844 7.744,5.698 L2.265,0.219 C2.119,0.073 1.899,-0.000 1.753,-0.000 C1.607,-0.000 1.388,0.073 1.242,0.219 L0.219,1.242 C0.073,1.388 -0.000,1.607 -0.000,1.753 C-0.000,1.899 0.073,2.118 0.219,2.264 L5.698,7.744 C5.845,7.890 5.845,8.109 5.698,8.255 L0.219,13.735 C0.073,13.881 -0.000,14.100 -0.000,14.246 C-0.000,14.392 0.073,14.612 0.219,14.757 L1.242,15.780 C1.388,15.926 1.607,16.000 1.753,16.000 C1.899,16.000 2.119,15.926 2.265,15.780 L7.744,10.301 C7.890,10.155 8.109,10.155 8.256,10.301 L13.735,15.780 C13.881,15.926 14.100,16.000 14.246,16.000 C14.393,16.000 14.612,15.926 14.758,15.780 L15.781,14.757 C15.927,14.612 16.000,14.392 16.000,14.246 C16.000,14.100 15.927,13.881 15.781,13.735 L10.301,8.255 Z" class="cls-1"/>
</svg>
