<?xml version="1.0" standalone="no"?>
<!DOCTYPE svg PUBLIC "-//W3C//DTD SVG 1.1//EN" "http://www.w3.org/Graphics/SVG/1.1/DTD/svg11.dtd" >
<svg xmlns="http://www.w3.org/2000/svg">
<metadata></metadata>
<defs>
<font id="qanelasregular" horiz-adv-x="1085" >
<font-face units-per-em="2048" ascent="1638" descent="-410" />
<missing-glyph horiz-adv-x="512" />
<glyph horiz-adv-x="0" />
<glyph horiz-adv-x="682" />
<glyph unicode=" "  horiz-adv-x="512" />
<glyph unicode="&#x09;" horiz-adv-x="512" />
<glyph unicode="&#xa0;" horiz-adv-x="512" />
<glyph unicode="!" horiz-adv-x="471" d="M143 0v184h185v-184h-185zM154 1024v410h163v-410l-30 -635h-103z" />
<glyph unicode="&#x22;" horiz-adv-x="634" d="M102 1434h144l-21 -410h-102zM389 1434h143l-20 -410h-102z" />
<glyph unicode="#" horiz-adv-x="1226" d="M61 471l21 123h246l41 246h-248l20 123h248l62 368h131l-62 -368h271l61 368h131l-61 -368h243l-20 -123h-244l-41 -246h246l-21 -123h-245l-62 -369h-131l62 369h-271l-61 -369h-131l61 369h-246zM459 594h270l41 246h-270z" />
<glyph unicode="$" horiz-adv-x="1126" d="M82 416h143q0 -124 75 -200t202 -95v557q-69 27 -116.5 49t-103.5 59t-89.5 77.5t-56.5 100t-23 130.5q0 79 32 145.5t86.5 111t124 71.5t146.5 34v182h123v-184q108 -14 194.5 -63.5t140.5 -138.5t54 -203h-144q0 110 -67.5 179t-177.5 85v-539q53 -21 88.5 -36 t83.5 -39t79.5 -46.5t66 -55t55 -67.5t33.5 -80.5t13 -97.5q0 -162 -121 -263t-298 -112v-182h-123v185q-185 23 -302.5 137.5t-117.5 298.5zM256 1094q0 -95 64.5 -158t181.5 -113v494q-108 -13 -177 -70t-69 -153zM625 117q122 9 199 71t77 164q0 51 -21 94t-61 76.5 t-86 59t-108 49.5v-514z" />
<glyph unicode="%" horiz-adv-x="1533" d="M123 1151q0 129 89.5 218t223.5 89t224 -89t90 -218t-89 -218t-225 -89q-134 0 -223.5 89t-89.5 218zM184 0l1006 1434h160l-1008 -1434h-158zM254 1151q0 -78 51 -131t131 -53t131 53t51 131t-51 131t-131 53t-131 -53t-51 -131zM784 283q0 129 90 218t224 89t223.5 -89 t89.5 -218t-89.5 -218.5t-223.5 -89.5t-224 89.5t-90 218.5zM915 283q0 -78 51.5 -131.5t131.5 -53.5t131 53.5t51 131.5t-51 131t-131 53t-131.5 -53t-51.5 -131z" />
<glyph unicode="&#x26;" horiz-adv-x="1339" d="M102 395q0 120 60.5 220.5t171.5 170.5q-56 62 -84.5 128.5t-28.5 154.5q0 118 60 208t155.5 135.5t208.5 45.5q84 0 161 -26.5t139 -75.5t99 -129t37 -178h-143q0 132 -84 201t-209 69q-122 0 -201 -67t-79 -183q0 -67 34.5 -126.5t98.5 -123.5l497 -508q78 135 78 353 h144q0 -282 -121 -457l202 -207h-194l-103 104q-152 -129 -411 -129q-213 0 -350.5 115.5t-137.5 304.5zM246 395q0 -126 95.5 -203t248.5 -77q195 0 311 90l-471 479q-184 -103 -184 -289z" />
<glyph unicode="'" horiz-adv-x="348" d="M102 1434h144l-21 -410h-102z" />
<glyph unicode="(" horiz-adv-x="544" d="M123 717q0 469 225 921h135q-225 -452 -225 -921q0 -470 225 -922h-135q-225 452 -225 922z" />
<glyph unicode=")" horiz-adv-x="544" d="M61 -205q226 454 226 922q0 467 -226 921h136q225 -452 225 -921q0 -470 -225 -922h-136z" />
<glyph unicode="*" horiz-adv-x="802" d="M123 1135v114l186 -6l-106 154l104 61l94 -166l95 166l104 -61l-106 -154l186 6v-114l-186 6l106 -154l-104 -61l-95 166l-94 -166l-104 61l106 154z" />
<glyph unicode="+" horiz-adv-x="1105" d="M123 651v131h364v365h131v-365h365v-131h-365v-364h-131v364h-364z" />
<glyph unicode="," horiz-adv-x="471" d="M143 0v184h185v-184q0 -114 -47 -183.5t-138 -82.5v82q45 16 69 54t24 130h-93z" />
<glyph unicode="-" horiz-adv-x="1064" d="M164 567v131h737v-131h-737z" />
<glyph unicode="." horiz-adv-x="471" d="M143 0v184h185v-184h-185z" />
<glyph unicode="/" d="M82 -205l819 1843h103l-820 -1843h-102z" />
<glyph unicode="0" horiz-adv-x="1290" d="M102 717q0 222 62 388t185.5 259.5t295.5 93.5t295.5 -93.5t185.5 -259.5t62 -388t-62 -388.5t-185.5 -260t-295.5 -93.5t-295.5 93.5t-185.5 260t-62 388.5zM246 717q0 -287 105 -444.5t294 -157.5t294 157.5t105 444.5t-105 444.5t-294 157.5t-294 -157.5t-105 -444.5z " />
<glyph unicode="1" horiz-adv-x="696" d="M31 1083v158l358 193h143v-1434h-143v1276z" />
<glyph unicode="2" horiz-adv-x="1075" d="M82 0v129l516 520q105 105 163 196t58 183q0 138 -85 214.5t-204 76.5q-63 0 -117 -17t-96.5 -50.5t-67 -91t-24.5 -132.5h-143q0 106 37.5 190t101 135.5t142.5 78t167 26.5q81 0 157.5 -28.5t138.5 -80.5t99.5 -135.5t37.5 -185.5q0 -125 -70 -239.5t-197 -241.5 l-409 -408h706v-139h-911z" />
<glyph unicode="3" d="M41 416h143q0 -143 96 -222t242 -79t242 79t96 222t-96 222t-242 79v2l-2 -2h-100v94l356 487h-674v136h840v-136l-334 -460q82 -11 152.5 -43t125.5 -83.5t86.5 -127.5t31.5 -168q0 -104 -39.5 -189t-107 -139t-154 -83.5t-181.5 -29.5t-181.5 29.5t-153.5 83.5 t-106.5 139t-39.5 189z" />
<glyph unicode="4" horiz-adv-x="1167" d="M51 287v135l533 1012h157l-532 -1012h600v438h143v-438h185v-135h-185v-287h-143v287h-758z" />
<glyph unicode="5" horiz-adv-x="1126" d="M82 416h143q0 -143 96 -222t242 -79t242 79t96 222t-96 222t-242 79h-409l51 717h788v-136h-657l-31 -442h258q96 0 182 -29t153 -83.5t106.5 -139t39.5 -188.5t-39.5 -189t-106.5 -139t-153.5 -83.5t-181.5 -29.5t-181.5 29.5t-153.5 83.5t-106.5 139t-39.5 189z" />
<glyph unicode="6" d="M61 449q0 160 89 286l468 699h162l-352 -525q60 13 115 13q210 0 345.5 -131.5t135.5 -341.5t-135.5 -342t-345.5 -132t-346 132t-136 342zM205 449q0 -151 93 -242.5t245 -91.5t245 91.5t93 242.5t-93 242t-245 91t-245 -91t-93 -242z" />
<glyph unicode="7" horiz-adv-x="1003" d="M41 1298v136h881v-136l-541 -1298h-150l541 1298h-731z" />
<glyph unicode="8" horiz-adv-x="1122" d="M82 389q0 117 64 208t173 142q-87 49 -138.5 132.5t-51.5 189.5q0 98 37 176t99.5 125t138 71.5t157.5 24.5t157.5 -24.5t138 -71.5t99.5 -125t37 -176q0 -106 -51.5 -189.5t-138.5 -132.5q109 -51 173 -142t64 -208q0 -98 -38 -178t-104 -131t-152.5 -78t-184.5 -27 t-184.5 27t-152.5 78t-104 131t-38 178zM225 389q0 -134 92 -204t244 -70t244 70t92 204t-92 204.5t-244 70.5t-244 -70.5t-92 -204.5zM272 1061q0 -123 85 -190.5t204 -67.5t204 67.5t85 190.5q0 130 -83.5 194t-205.5 64t-205.5 -64t-83.5 -194z" />
<glyph unicode="9" d="M61 985q0 209 135.5 341t346.5 132q210 0 345.5 -131.5t135.5 -341.5q0 -162 -88 -287l-469 -698h-162l352 524q-55 -12 -114 -12q-211 0 -346.5 132t-135.5 341zM205 985q0 -151 93 -242.5t245 -91.5t245 91.5t93 242.5t-93 242.5t-245 91.5t-245 -91.5t-93 -242.5z" />
<glyph unicode=":" horiz-adv-x="471" d="M143 0v184h185v-184h-185zM143 840v184h185v-184h-185z" />
<glyph unicode=";" horiz-adv-x="471" d="M143 0v184h185v-184q0 -114 -47 -183.5t-138 -82.5v82q45 16 69 54t24 130h-93zM143 840v184h185v-184h-185z" />
<glyph unicode="&#x3c;" horiz-adv-x="1064" d="M123 645v143l819 359v-152l-666 -278l666 -279v-151z" />
<glyph unicode="=" horiz-adv-x="1105" d="M123 446v132h860v-132h-860zM123 856v131h860v-131h-860z" />
<glyph unicode="&#x3e;" horiz-adv-x="1064" d="M123 287v151l665 279l-665 278v152l819 -359v-143z" />
<glyph unicode="?" horiz-adv-x="1095" d="M82 1049q0 99 37.5 178t102 129t146.5 76t173 26q115 0 211 -41t158.5 -129t62.5 -209q0 -64 -21.5 -121.5t-56.5 -102t-77 -86.5l-83.5 -83.5t-76.5 -84t-56.5 -97.5t-21.5 -115h-144q0 73 21.5 137t56.5 111t76.5 90t83.5 82.5t77 79t56.5 88t21.5 102.5 q0 119 -81 179.5t-207 60.5q-139 0 -227.5 -68.5t-88.5 -201.5h-143zM416 0v184h184v-184h-184z" />
<glyph unicode="@" horiz-adv-x="1626" d="M82 512q0 203 96.5 372.5t268 269t380.5 99.5q133 0 249.5 -40t201 -109t145.5 -158.5t91 -190t30 -202.5q0 -112 -26 -199t-69.5 -136.5t-94 -74t-105.5 -24.5q-86 0 -147 43.5t-82 132.5q-87 -111 -227 -111q-142 0 -237 94.5t-95 233.5t95 233.5t237 94.5 q131 0 217 -99v84h127v-442q0 -197 133 -197q91 0 152 89.5t61 277.5q0 180 -86.5 328t-237 231.5t-332.5 83.5q-139 0 -265 -52t-218 -142t-146.5 -218t-54.5 -272q0 -195 93.5 -351.5t258.5 -244.5t369 -88q209 0 357 59v-61q-151 -55 -357 -55q-221 0 -399.5 95 t-280.5 264.5t-102 381.5zM588 512q0 -91 62 -148t151 -57q87 0 148 57t61 148t-61 148t-148 57q-89 0 -151 -57t-62 -148z" />
<glyph unicode="A" horiz-adv-x="1290" d="M20 0l551 1434h148l551 -1434h-152l-133 352h-680l-133 -352h-152zM356 487h578l-289 768z" />
<glyph unicode="B" horiz-adv-x="1402" d="M164 0v1434h143h428q165 0 268 -101.5t103 -249.5q0 -95 -49 -176q125 -54 199.5 -171.5t74.5 -264.5q0 -128 -58 -236t-162.5 -171.5t-231.5 -63.5h-695h-20zM307 135h551q147 0 238.5 97t91.5 239q0 143 -90.5 239.5t-237.5 96.5h-553v-672zM307 942h574h30 q52 58 52 141q0 93 -61.5 154t-166.5 61h-428v-356z" />
<glyph unicode="C" horiz-adv-x="1566" d="M82 717q0 152 56 288.5t154.5 236t239 158t302.5 58.5q235 0 420.5 -132.5t250.5 -342.5h-155q-57 150 -198.5 243t-317.5 93q-177 0 -317 -81t-216 -218t-76 -303t76 -303t216 -218t317 -81q176 0 317.5 93t198.5 243h155q-65 -210 -250.5 -343t-420.5 -133 q-162 0 -303 58.5t-239 158.5t-154 236.5t-56 288.5z" />
<glyph unicode="D" horiz-adv-x="1515" d="M164 0v1434h143h451q145 0 271.5 -56.5t215 -153.5t139 -228.5t50.5 -278.5t-50.5 -278.5t-139 -228.5t-215 -153.5t-271.5 -56.5h-533h-61zM307 135h451q156 0 279.5 78.5t190 211t66.5 292.5t-66.5 292.5t-190 210.5t-279.5 78h-451v-1163z" />
<glyph unicode="E" horiz-adv-x="1064" d="M164 0v1434h143h666v-136h-666v-507h615v-136h-615v-520h676v-135h-758h-61z" />
<glyph unicode="F" horiz-adv-x="1013" d="M164 0v1434h143h666v-136h-666v-569h635v-135h-635v-594h-143z" />
<glyph unicode="G" horiz-adv-x="1628" d="M82 717q0 152 56 288.5t153 236t235.5 158t296.5 58.5q235 0 421 -132.5t251 -342.5h-156q-57 150 -198.5 243t-317.5 93q-129 0 -241.5 -47.5t-190 -128.5t-122 -191.5t-44.5 -234.5t44.5 -234.5t122 -191.5t190 -128.5t241.5 -47.5q145 0 263.5 49t192 150t73.5 239v35 h-492v135h635v-135v-588h-143v221q-80 -122 -221 -184t-308 -62q-158 0 -296.5 58.5t-235.5 158.5t-153 236.5t-56 288.5z" />
<glyph unicode="H" horiz-adv-x="1290" d="M164 0v1434h143v-629h676v629h143v-1434h-143v670h-676v-670h-143z" />
<glyph unicode="I" horiz-adv-x="471" d="M164 0v1434h143v-1434h-143z" />
<glyph unicode="J" d="M41 406v20h143v-20q0 -75 24.5 -132.5t67.5 -91t97.5 -50.5t118.5 -17q87 0 154 28.5t110 96t43 166.5v1028h143v-1028q0 -106 -37.5 -190.5t-101 -135.5t-143 -78t-168.5 -27q-70 0 -135.5 16.5t-123 51t-100 84.5t-67.5 122t-25 157z" />
<glyph unicode="K" horiz-adv-x="1187" d="M164 0v1434h143v-656l651 656h189l-688 -697l708 -737h-188l-672 694v-694h-143z" />
<glyph unicode="L" horiz-adv-x="1003" d="M164 0v1434h143v-1299h656v-135h-799z" />
<glyph unicode="M" horiz-adv-x="1638" d="M164 0v1434h143h37l475 -1024l475 1024h181v-1434h-144v1192l-440 -944h-143l-441 944v-1192h-143z" />
<glyph unicode="N" horiz-adv-x="1290" d="M164 0v1434h123l696 -1147v1147h143v-1434h-122l-697 1147v-1147h-143z" />
<glyph unicode="O" horiz-adv-x="1646" d="M82 717q0 151 57.5 288t156 236.5t236 158t291.5 58.5t292 -58.5t236.5 -158t156 -236.5t57.5 -288q0 -202 -97.5 -372.5t-268.5 -270t-376 -99.5q-154 0 -291.5 58.5t-236 158t-156 237t-57.5 288.5zM225 717q0 -165 78 -303t215.5 -218.5t304.5 -80.5t304.5 80.5 t215.5 218.5t78 303t-78 303t-215.5 218.5t-304.5 80.5t-304.5 -80.5t-215.5 -218.5t-78 -303z" />
<glyph unicode="P" horiz-adv-x="1187" d="M164 0v1434h143h369q178 0 304 -126t126 -304q0 -177 -126 -304t-304 -127h-369v-573h-143zM307 709h369q118 0 202.5 86.5t84.5 208.5q0 123 -84 208.5t-203 85.5h-369v-589z" />
<glyph unicode="Q" horiz-adv-x="1656" d="M82 717q0 151 58.5 288.5t157.5 236.5t236.5 157.5t288.5 58.5q202 0 372.5 -99t270 -269.5t99.5 -372.5q0 -149 -56.5 -283.5t-156.5 -236.5l190 -217l-102 -82l-189 213q-196 -136 -428 -136q-202 0 -372.5 99.5t-269.5 270t-99 372.5zM225 717q0 -164 79.5 -302.5 t217.5 -219t301 -80.5q188 0 336 102l-205 232l103 81l200 -227q78 81 121 187.5t43 226.5q0 164 -79.5 302.5t-217.5 219t-301 80.5t-301 -80.5t-217.5 -219t-79.5 -302.5z" />
<glyph unicode="R" horiz-adv-x="1290" d="M164 0v1434h143h369q178 0 304 -126t126 -304q0 -147 -88.5 -262t-226.5 -152l520 -590h-181l-503 573h-320v-573h-143zM307 709h369q118 0 202.5 86.5t84.5 208.5q0 123 -84 208.5t-203 85.5h-369v-589z" />
<glyph unicode="S" horiz-adv-x="1126" d="M82 416h143q0 -144 99.5 -222.5t259.5 -78.5q136 0 226.5 67t90.5 180q0 45 -18 84t-45 66t-72.5 53.5t-85.5 44t-100 39.5q-169 64 -221 90q-161 81 -210 202q-26 63 -26 142q0 115 62 202t159 130t211 43q122 0 222.5 -46.5t163.5 -141t63 -221.5h-144q0 128 -85 199 t-220 71q-124 0 -206.5 -63t-82.5 -173q0 -48 17.5 -87.5t42.5 -66.5t71.5 -54t84 -43.5t100.5 -40.5q174 -68 235 -99q167 -89 210 -219q17 -51 17 -111q0 -116 -65 -205.5t-169 -135.5t-226 -46q-138 0 -250.5 50t-182 152t-69.5 239z" />
<glyph unicode="T" horiz-adv-x="1024" d="M41 1298v136h543h399v-136h-399v-1298h-144v1298h-399z" />
<glyph unicode="U" horiz-adv-x="1269" d="M143 426v1008h144v-1008q0 -151 94 -231t254 -80t254 80t94 231v1008h143v-1008q0 -142 -66.5 -246t-176.5 -154.5t-248 -50.5t-248 50.5t-177 154.5t-67 246z" />
<glyph unicode="V" horiz-adv-x="1245" d="M20 1434h152l451 -1256l450 1256h152l-529 -1434h-147z" />
<glyph unicode="W" horiz-adv-x="1761" d="M20 1434h140l401 -1289l250 801l-152 488h140l401 -1289l402 1289h139l-447 -1434h-188l-225 725l-226 -725h-188z" />
<glyph unicode="X" horiz-adv-x="1167" d="M41 0l465 741l-434 693h157l355 -566l354 566h158l-432 -693l462 -741h-157l-385 614l-385 -614h-158z" />
<glyph unicode="Y" horiz-adv-x="1177" d="M20 1434h162l408 -625l405 625h162l-498 -766v-668h-143v672z" />
<glyph unicode="Z" horiz-adv-x="1064" d="M82 0v135l741 1163h-721v136h881v-136l-741 -1163h762v-135h-922z" />
<glyph unicode="[" horiz-adv-x="532" d="M123 -205v1843h135h274v-131h-274v-1581h274v-131h-389h-20z" />
<glyph unicode="\" d="M82 1638h102l820 -1843h-103z" />
<glyph unicode="]" horiz-adv-x="532" d="M0 -74h274v1581h-274v131h410v-1843h-136h-274v131z" />
<glyph unicode="^" horiz-adv-x="1024" d="M82 819l360 615h140l360 -615h-158l-272 465l-272 -465h-158z" />
<glyph unicode="_" horiz-adv-x="1064" d="M82 -158h901v-131h-901v131z" />
<glyph unicode="`" horiz-adv-x="409" d="M41 1434l197 -267h131l-164 267h-164z" />
<glyph unicode="a" horiz-adv-x="1019" d="M82 305q0 80 30.5 144.5t82.5 104t117 60.5t137 21q100 0 182.5 -34t134.5 -99v164q0 129 -72.5 190.5t-181.5 61.5q-106 0 -180 -55t-74 -156h-135q0 149 109 245.5t280 96.5q174 0 281.5 -103.5t107.5 -279.5v-666h-135v115q-100 -140 -317 -140q-72 0 -137 21 t-117 60.5t-82.5 104t-30.5 144.5zM217 305q0 -92 66.5 -147.5t197.5 -55.5q123 0 204 57.5t81 145.5q0 92 -80 147.5t-205 55.5q-131 0 -197.5 -55.5t-66.5 -147.5z" />
<glyph unicode="b" horiz-adv-x="1302" d="M143 0v1434h136v-611q66 106 173 166t240 60q143 0 264.5 -70.5t193 -194.5t71.5 -272t-71.5 -272t-193 -194.5t-264.5 -70.5q-133 0 -240 60t-173 166v-201h-136zM279 512q0 -171 116.5 -288.5t286.5 -117.5t286.5 117.5t116.5 288.5t-116.5 288.5t-286.5 117.5 t-286.5 -117.5t-116.5 -288.5z" />
<glyph unicode="c" horiz-adv-x="1173" d="M82 512q0 112 41 211.5t112 171t171.5 113t214.5 41.5q176 0 311.5 -98t179.5 -255h-143q-40 100 -134.5 161t-213.5 61q-170 0 -287 -118t-117 -288t117 -288t287 -118q120 0 214.5 61.5t133.5 160.5h143q-43 -157 -178.5 -255t-312.5 -98q-114 0 -214.5 41.5 t-171.5 113t-112 171t-41 211.5z" />
<glyph unicode="d" horiz-adv-x="1302" d="M82 512q0 149 71.5 272.5t192.5 194t264 70.5q133 0 240.5 -60.5t173.5 -165.5v611h135v-1434h-135v201q-66 -105 -173.5 -165.5t-240.5 -60.5q-143 0 -264 70.5t-192.5 194t-71.5 272.5zM217 512q0 -170 117 -288t287 -118t286.5 117.5t116.5 288.5t-116.5 288.5 t-286.5 117.5t-287 -118t-117 -288z" />
<glyph unicode="e" horiz-adv-x="1165" d="M82 512q0 150 64 272t184.5 193.5t275.5 71.5q151 0 266.5 -77.5t173.5 -199t58 -264.5q0 -24 -4 -64h-135h-744q20 -156 125.5 -247t261.5 -91q110 0 192.5 49t117.5 126h149q-44 -136 -169 -221t-292 -85q-233 0 -378.5 151.5t-145.5 385.5zM221 575h744 q-18 162 -119.5 252.5t-239.5 90.5q-159 0 -262.5 -95t-122.5 -248z" />
<glyph unicode="f" horiz-adv-x="645" d="M41 893v131h174v41q0 201 112 305q98 90 267 90q25 0 51 -2v-131q-24 2 -46 2q-116 0 -177 -53q-72 -64 -72 -211v-41h295v-131h-295v-893h-135v893h-174z" />
<glyph unicode="g" horiz-adv-x="1302" d="M82 512q0 149 71.5 272.5t192.5 194t264 70.5q133 0 240.5 -60.5t173.5 -165.5v201h135v-983q0 -113 -41.5 -204.5t-113 -150t-163.5 -89.5t-196 -31q-124 0 -236.5 49.5t-182.5 139t-70 194.5h135q0 -41 24.5 -84.5t68 -81t112.5 -62t149 -24.5q183 0 281 92t98 252v160 q-66 -105 -173.5 -165.5t-240.5 -60.5q-143 0 -264 70.5t-192.5 194t-71.5 272.5zM217 512q0 -170 117 -288t287 -118t286.5 117.5t116.5 288.5t-116.5 288.5t-286.5 117.5t-287 -118t-117 -288z" />
<glyph unicode="h" horiz-adv-x="1060" d="M143 0v1434h136v-545q106 160 315 160q147 0 247.5 -103.5t100.5 -275.5v-670h-135v670q0 118 -66 183t-172 65q-55 0 -104.5 -18t-92 -56t-68 -106.5t-25.5 -159.5v-578h-136z" />
<glyph unicode="i" horiz-adv-x="421" d="M143 0v1024h136v-1024h-136zM143 1229v205h136v-205h-136z" />
<glyph unicode="j" horiz-adv-x="471" d="M-41 -303q23 -2 43 -2q89 0 134 41q57 52 57 182v1106h135v-1106q0 -184 -96 -276q-82 -78 -225 -78q-23 0 -48 2v131zM193 1229v205h135v-205h-135z" />
<glyph unicode="k" horiz-adv-x="1011" d="M143 0v1434h136v-865l491 455h180l-532 -492l553 -532h-180l-512 494v-494h-136z" />
<glyph unicode="l" horiz-adv-x="421" d="M143 0v1475h136v-1475h-136z" />
<glyph unicode="m" horiz-adv-x="1572" d="M143 0v1024h136v-119q99 144 274 144q87 0 160.5 -44.5t113.5 -127.5q101 172 303 172q137 0 230.5 -95t93.5 -264v-690h-135v690q0 115 -57 171.5t-146 56.5q-42 0 -82.5 -15t-80 -47t-63.5 -93.5t-24 -144.5v-618h-135v690q0 115 -57 171.5t-146 56.5q-42 0 -82.5 -15 t-79.5 -47t-63 -93.5t-24 -144.5v-618h-136z" />
<glyph unicode="n" horiz-adv-x="1060" d="M143 0v1024h136v-135q106 160 315 160q147 0 247.5 -103.5t100.5 -275.5v-670h-135v670q0 118 -66 183t-172 65q-55 0 -104.5 -18t-92 -56t-68 -106.5t-25.5 -159.5v-578h-136z" />
<glyph unicode="o" horiz-adv-x="1241" d="M82 512q0 149 72 272.5t195.5 194t271.5 70.5q225 0 381.5 -155.5t156.5 -381.5t-156.5 -381.5t-381.5 -155.5q-148 0 -271.5 70.5t-195.5 194t-72 272.5zM217 512q0 -170 117 -288t287 -118t286.5 117.5t116.5 288.5t-116.5 288.5t-286.5 117.5t-287 -118t-117 -288z " />
<glyph unicode="p" horiz-adv-x="1302" d="M143 -410v1434h136v-201q66 106 173 166t240 60q143 0 264.5 -70.5t193 -194.5t71.5 -272t-71.5 -272t-193 -194.5t-264.5 -70.5q-133 0 -240 60t-173 166v-611h-136zM279 512q0 -171 116.5 -288.5t286.5 -117.5t286.5 117.5t116.5 288.5t-116.5 288.5t-286.5 117.5 t-286.5 -117.5t-116.5 -288.5z" />
<glyph unicode="q" horiz-adv-x="1302" d="M82 512q0 149 71.5 272.5t192.5 194t264 70.5q133 0 240.5 -60.5t173.5 -165.5v201h135v-1434h-135v611q-66 -105 -173.5 -165.5t-240.5 -60.5q-143 0 -264 70.5t-192.5 194t-71.5 272.5zM217 512q0 -170 117 -288t287 -118t286.5 117.5t116.5 288.5t-116.5 288.5 t-286.5 117.5t-287 -118t-117 -288z" />
<glyph unicode="r" horiz-adv-x="643" d="M143 0v1024h136v-156q105 172 323 172v-131q-65 0 -120.5 -18t-102 -56t-73.5 -106t-27 -160v-569h-136z" />
<glyph unicode="s" horiz-adv-x="942" d="M92 297h135q0 -100 68.5 -145.5t175.5 -45.5q105 0 174.5 40.5t69.5 121.5q0 52 -33 88t-86.5 56t-117.5 36t-128 37.5t-117.5 51.5t-86.5 85.5t-33 133.5q0 126 101.5 209.5t256.5 83.5q157 0 257.5 -88t100.5 -234h-135q0 99 -65 145t-158 46q-91 0 -157 -41t-66 -121 q0 -52 33 -88t86.5 -56t117.5 -36t128 -37.5t117.5 -51.5t86.5 -85.5t33 -133.5q0 -127 -105 -210t-274 -83q-171 0 -275 87.5t-104 234.5z" />
<glyph unicode="t" horiz-adv-x="645" d="M41 893v131h215v328h135v-328h213v-131h-213v-893h-135v893h-215z" />
<glyph unicode="u" horiz-adv-x="1060" d="M119 354v670h135v-670q0 -118 66 -183t172 -65q55 0 104.5 18t92 56t68 106.5t25.5 159.5v578h136v-1024h-136v135q-106 -160 -315 -160q-147 0 -247.5 103.5t-100.5 275.5z" />
<glyph unicode="v" horiz-adv-x="962" d="M20 1024h144l317 -877l318 877h143l-379 -1024h-135h-29z" />
<glyph unicode="w" horiz-adv-x="1392" d="M20 1024h144l289 -868l180 520l-121 348h143l287 -864l287 864h143l-356 -1024h-127h-21l-170 489l-174 -489h-127h-20z" />
<glyph unicode="x" horiz-adv-x="927" d="M41 0l346 532l-319 492h147l246 -379l246 379h147l-319 -492l346 -532h-148l-272 420l-273 -420h-147z" />
<glyph unicode="y" horiz-adv-x="962" d="M20 1024h144l340 -827l295 827h143l-510 -1434h-143l147 418z" />
<glyph unicode="z" horiz-adv-x="921" d="M82 0v90l569 803h-549v131h738v-90l-570 -803h590v-131h-778z" />
<glyph unicode="{" horiz-adv-x="724" d="M102 653v131q57 0 92 7t65 27.5t43 61t13 105.5v342q0 182 94.5 264.5t274.5 67.5v-131q-124 13 -178.5 -30t-54.5 -171v-342q0 -117 -40 -179.5t-120 -86.5q80 -24 120 -86.5t40 -179.5v-342q0 -128 54.5 -171t178.5 -30v-131q-180 -15 -274.5 67.5t-94.5 264.5v342 q0 65 -13 105.5t-43 61t-65 27t-92 6.5z" />
<glyph unicode="|" horiz-adv-x="462" d="M164 -410v1885h135v-1885h-135z" />
<glyph unicode="}" horiz-adv-x="724" d="M41 -90q124 -13 178.5 30t54.5 171v342q0 117 40 179.5t120 86.5q-80 24 -120 86.5t-40 179.5v342q0 128 -54.5 171t-178.5 30v131q180 15 274.5 -67.5t94.5 -264.5v-342q0 -65 13 -105.5t43 -61t65 -27.5t92 -7v-131q-57 0 -92 -6.5t-65 -27t-43 -61t-13 -105.5v-342 q0 -182 -94.5 -264.5t-274.5 -67.5v131z" />
<glyph unicode="~" horiz-adv-x="1216" d="M123 643q26 84 72 137.5t110.5 74t150 1t183.5 -81.5q78 -48 135 -65t95 -3t62 48.5t40 93.5l123 -57q-26 -84 -71.5 -137.5t-109 -75t-149 -1.5t-186.5 82q-101 63 -169 71t-104.5 -28.5t-58.5 -115.5z" />
<glyph unicode="&#xa2;" horiz-adv-x="1173" d="M82 717q0 150 70 272.5t193.5 193t275.5 70.5q55 0 96 -8l61 189h103l-70 -213q111 -42 190 -125t111 -195h-143q-26 66 -78 116.5t-121 76.5l-248 -770q50 -13 99 -13q120 0 214.5 61t133.5 160h143q-43 -157 -178.5 -254.5t-312.5 -97.5q-63 0 -140 17l-63 -197h-103 l74 229q-141 62 -224 193t-83 295zM217 717q0 -117 58 -213t155 -148l246 762q-36 4 -55 4q-170 0 -287 -117.5t-117 -287.5z" />
<glyph unicode="&#xa3;" horiz-adv-x="1198" d="M82 0v139h192v432h-151v127h151v330q0 106 36 190t96.5 135.5t134 78t153.5 26.5q60 0 119 -16t113.5 -51t96 -84.5t66.5 -121.5t25 -157v-45h-143v45q0 74 -24.5 132t-65 91.5t-88.5 50.5t-99 17q-116 0 -196 -73t-80 -218v-330h473v-127h-473v-432h749v-139h-1085z" />
<glyph unicode="&#xa5;" horiz-adv-x="1177" d="M20 1434h162l408 -625l405 625h162l-469 -723h342v-119h-371v-123h371v-119h-371v-350h-143v350h-366v119h366v123h-366v119h339z" />
<glyph unicode="&#xa8;" horiz-adv-x="655" d="M41 1188v164h164v-164h-164zM451 1188v164h163v-164h-163z" />
<glyph unicode="&#xa9;" horiz-adv-x="1646" d="M82 717q0 151 58.5 288.5t157.5 236.5t236.5 157.5t288.5 58.5q202 0 372.5 -99t270 -269.5t99.5 -372.5t-99.5 -372.5t-270 -270t-372.5 -99.5t-372.5 99.5t-269.5 270t-99 372.5zM143 717q0 -140 54 -266.5t145 -218t217 -145.5t264 -54t264 54t217 145.5t145 218 t54 266.5t-54 266.5t-145 218t-217 145.5t-264 54t-264 -54t-217 -145.5t-145 -218t-54 -266.5zM432 717q0 165 115 279t282 114q139 0 244 -81.5t131 -209.5h-139q-19 79 -86.5 121.5t-149.5 42.5q-118 0 -191 -79t-73 -187t73 -187t191 -79q83 0 150 42t86 121h139 q-26 -128 -131 -209t-244 -81q-167 0 -282 114t-115 279z" />
<glyph unicode="&#xab;" horiz-adv-x="1007" d="M143 633l226 368h168l-226 -368l226 -369h-168zM471 633l225 368h168l-225 -368l225 -369h-168z" />
<glyph unicode="&#xad;" horiz-adv-x="1064" d="M164 567v131h737v-131h-737z" />
<glyph unicode="&#xae;" horiz-adv-x="1646" d="M82 717q0 151 58.5 288.5t157.5 236.5t236.5 157.5t288.5 58.5q202 0 372.5 -99t270 -269.5t99.5 -372.5t-99.5 -372.5t-270 -270t-372.5 -99.5t-372.5 99.5t-269.5 270t-99 372.5zM143 717q0 -140 54 -266.5t145 -218t217 -145.5t264 -54t264 54t217 145.5t145 218 t54 266.5t-54 266.5t-145 218t-217 145.5t-264 54t-264 -54t-217 -145.5t-145 -218t-54 -266.5zM598 338v758h127h106q136 0 211.5 -71t75.5 -173q0 -168 -147 -221l229 -293h-145l-215 270h-9h-106v-270h-127zM725 731h115q72 0 111.5 33t39.5 88q0 56 -39.5 88.5 t-111.5 32.5h-115v-242z" />
<glyph unicode="&#xb4;" horiz-adv-x="409" d="M41 1167h131l197 267h-164z" />
<glyph unicode="&#xb8;" horiz-adv-x="501" d="M41 -332q147 -12 224 8.5t77 65.5q0 78 -190 84v174h118v-92q88 -15 139.5 -59t51.5 -107q0 -208 -420 -184v110z" />
<glyph unicode="&#xbb;" horiz-adv-x="1007" d="M143 264l226 369l-226 368h168l226 -368l-226 -369h-168zM471 264l225 369l-225 368h168l225 -368l-225 -369h-168z" />
<glyph unicode="&#x2c6;" horiz-adv-x="675" d="M41 1167l217 267h152h8l217 -267h-154l-143 179l-143 -179h-154z" />
<glyph unicode="&#x2da;" horiz-adv-x="516" d="M41 1331q0 89 60.5 147t156.5 58q97 0 157 -58t60 -147t-60 -147t-157 -58q-96 0 -156.5 58t-60.5 147zM154 1331q0 -44 27.5 -72t76.5 -28q51 0 79 28t28 72t-28 72.5t-79 28.5q-49 0 -76.5 -28.5t-27.5 -72.5z" />
<glyph unicode="&#x2dc;" horiz-adv-x="655" d="M41 1188q0 73 16.5 125t44.5 77.5t65 31t78.5 -9t84.5 -46.5q38 -29 60 -43t45 -22t34.5 1.5t19 36t7.5 74.5h118q0 -121 -42.5 -180.5t-107 -55.5t-136.5 58q-38 28 -60 42.5t-45.5 22.5t-35.5 -1.5t-19.5 -36t-7.5 -74.5h-119z" />
<glyph unicode="&#x401;" horiz-adv-x="1064" d="M164 0v1434h143h666v-136h-666v-507h615v-136h-615v-520h676v-135h-758h-61zM283 1597v164h163v-164h-163zM692 1597v164h164v-164h-164z" />
<glyph unicode="&#x402;" horiz-adv-x="1347" d="M41 1298v136h522h461v-136h-461v-401q146 70 285 70q172 0 279.5 -100t107.5 -289v-242q0 -184 -96 -275.5t-273 -76.5v131q119 -12 172.5 39t53.5 182v242q0 132 -64.5 195t-177.5 63q-133 0 -287 -68v-768h-143v1298h-379z" />
<glyph unicode="&#x403;" horiz-adv-x="1003" d="M164 0v1434h799v-136h-656v-1298h-143zM463 1575l164 266h164l-197 -266h-131z" />
<glyph unicode="&#x404;" horiz-adv-x="1546" d="M82 717q0 153 53 289t146 235.5t228.5 158t293.5 58.5q254 0 435 -130.5t247 -344.5h-156q-59 154 -195.5 245t-330.5 91q-240 0 -396.5 -151.5t-177.5 -383.5h785v-135h-785q14 -151 87 -271.5t200 -191.5t287 -71q194 0 330.5 91t195.5 245h156q-66 -215 -247 -345.5 t-435 -130.5q-210 0 -376 100t-255.5 269t-89.5 373z" />
<glyph unicode="&#x405;" horiz-adv-x="1126" d="M82 416h143q0 -144 99.5 -222.5t259.5 -78.5q136 0 226.5 67t90.5 180q0 45 -18 84t-45 66t-72.5 53.5t-85.5 44t-100 39.5q-169 64 -221 90q-161 81 -210 202q-26 63 -26 142q0 115 62 202t159 130t211 43q122 0 222.5 -46.5t163.5 -141t63 -221.5h-144q0 128 -85 199 t-220 71q-124 0 -206.5 -63t-82.5 -173q0 -48 17.5 -87.5t42.5 -66.5t71.5 -54t84 -43.5t100.5 -40.5q174 -68 235 -99q167 -89 210 -219q17 -51 17 -111q0 -116 -65 -205.5t-169 -135.5t-226 -46q-138 0 -250.5 50t-182 152t-69.5 239z" />
<glyph unicode="&#x406;" horiz-adv-x="471" d="M164 0v1434h143v-1434h-143z" />
<glyph unicode="&#x407;" horiz-adv-x="471" d="M-51 1597v164h164v-164h-164zM164 0v1434h143v-1434h-143zM358 1597v164h164v-164h-164z" />
<glyph unicode="&#x408;" d="M41 406v20h143v-20q0 -75 24.5 -132.5t67.5 -91t97.5 -50.5t118.5 -17q87 0 154 28.5t110 96t43 166.5v1028h143v-1028q0 -106 -37.5 -190.5t-101 -135.5t-143 -78t-168.5 -27q-70 0 -135.5 16.5t-123 51t-100 84.5t-67.5 122t-25 157z" />
<glyph unicode="&#x409;" horiz-adv-x="1955" d="M31 -2v127q73 -10 126.5 10t93 77t59.5 163t20 262v797h786v-615h328q180 0 305 -117t125 -292q0 -117 -57.5 -211t-156 -146.5t-216.5 -52.5h-410h-61v1298h-500v-665q0 -157 -20.5 -272.5t-57.5 -188t-93.5 -114t-121.5 -54.5t-149 -6zM1116 135h328q121 0 204 77 t83 198q0 120 -83 197t-204 77h-328v-549z" />
<glyph unicode="&#x40a;" horiz-adv-x="1925" d="M164 0v1434h143v-615h635v615h143v-615h328q180 0 305 -117t125 -292q0 -117 -57.5 -211t-156 -146.5t-216.5 -52.5h-409h-62v684h-635v-684h-143zM1085 135h328q121 0 204 77t83 198q0 120 -83 197t-204 77h-328v-549z" />
<glyph unicode="&#x40b;" horiz-adv-x="1357" d="M41 1298v136h522h461v-136h-461v-401q146 70 285 70q172 0 279.5 -100t107.5 -289v-578h-143v578q0 132 -64.5 195t-177.5 63q-133 0 -287 -68v-768h-143v1298h-379z" />
<glyph unicode="&#x40c;" horiz-adv-x="1187" d="M164 0v1434h143v-656l651 656h189l-688 -697l708 -737h-188l-672 694v-694h-143zM483 1575l164 266h164l-197 -266h-131z" />
<glyph unicode="&#x40e;" horiz-adv-x="1167" d="M61 1434h148l414 -881l376 881h148l-477 -1121q-72 -171 -182.5 -247t-274.5 -66v131q116 -12 190 34t123 161l29 67zM319 1595v119h533v-119h-533z" />
<glyph unicode="&#x40f;" horiz-adv-x="1290" d="M164 0v1434h143v-1299h676v1299h143v-1434h-143h-266v-295h-144v295h-348h-61z" />
<glyph unicode="&#x410;" horiz-adv-x="1290" d="M20 0l551 1434h148l551 -1434h-152l-133 352h-680l-133 -352h-152zM356 487h578l-289 768z" />
<glyph unicode="&#x411;" horiz-adv-x="1198" d="M164 0v1434h143h697v-136h-697v-438h389q178 0 304 -126.5t126 -303.5q0 -178 -126 -304t-304 -126h-471h-61zM307 135h389q119 0 203 86t84 209q0 122 -84.5 208.5t-202.5 86.5h-389v-590z" />
<glyph unicode="&#x412;" horiz-adv-x="1402" d="M164 0v1434h143h428q165 0 268 -101.5t103 -249.5q0 -95 -49 -176q125 -54 199.5 -171.5t74.5 -264.5q0 -128 -58 -236t-162.5 -171.5t-231.5 -63.5h-695h-20zM307 135h551q147 0 238.5 97t91.5 239q0 143 -90.5 239.5t-237.5 96.5h-553v-672zM307 942h574h30 q52 58 52 141q0 93 -61.5 154t-166.5 61h-428v-356z" />
<glyph unicode="&#x413;" horiz-adv-x="1003" d="M164 0v1434h799v-136h-656v-1298h-143z" />
<glyph unicode="&#x414;" horiz-adv-x="1351" d="M31 74v61h116q67 79 104.5 198t37.5 314v787h837v-1299h154v-135v-295h-143v295h-154h-809v-295h-143v369zM317 135h666v1163h-551v-655q0 -338 -115 -508z" />
<glyph unicode="&#x415;" horiz-adv-x="1064" d="M164 0v1434h143h666v-136h-666v-507h615v-136h-615v-520h676v-135h-758h-61z" />
<glyph unicode="&#x416;" horiz-adv-x="1740" d="M41 0l616 737l-596 697h168l570 -662v662h143v-662l569 662h168l-596 -697l617 -737h-168l-590 700v-700h-143v700l-590 -700h-168z" />
<glyph unicode="&#x417;" d="M41 446h143q0 -145 94.5 -240t264.5 -95t264 95t94 240q0 143 -90.5 239.5t-237.5 96.5h-102v127h102q52 0 91 -8q114 89 114 207q0 94 -64 154.5t-184 60.5q-119 0 -183 -60.5t-64 -154.5h-144q0 150 106 250t285 100t285.5 -100t106.5 -250q0 -143 -107 -258 q108 -59 168.5 -165.5t60.5 -238.5q0 -200 -136 -335.5t-365 -135.5t-365.5 135.5t-136.5 335.5z" />
<glyph unicode="&#x418;" horiz-adv-x="1290" d="M164 0v1434h143v-1147l697 1147h122v-1434h-143v1147l-696 -1147h-123z" />
<glyph unicode="&#x419;" horiz-adv-x="1290" d="M164 0v1434h143v-1147l697 1147h122v-1434h-143v1147l-696 -1147h-123zM399 1597v119h533v-119h-533z" />
<glyph unicode="&#x41a;" horiz-adv-x="1187" d="M164 0v1434h143v-656l651 656h189l-688 -697l708 -737h-188l-672 694v-694h-143z" />
<glyph unicode="&#x41b;" horiz-adv-x="1320" d="M31 -2v127q73 -10 126.5 10t93 77t59.5 163t20 262v797h827v-1434h-143v1298h-541v-665q0 -157 -20.5 -272.5t-57.5 -188t-93.5 -114t-121.5 -54.5t-149 -6z" />
<glyph unicode="&#x41c;" horiz-adv-x="1638" d="M164 0v1434h143h37l475 -1024l475 1024h181v-1434h-144v1192l-440 -944h-143l-441 944v-1192h-143z" />
<glyph unicode="&#x41d;" horiz-adv-x="1290" d="M164 0v1434h143v-629h676v629h143v-1434h-143v670h-676v-670h-143z" />
<glyph unicode="&#x41e;" horiz-adv-x="1646" d="M82 717q0 151 57.5 288t156 236.5t236 158t291.5 58.5t292 -58.5t236.5 -158t156 -236.5t57.5 -288q0 -202 -97.5 -372.5t-268.5 -270t-376 -99.5q-154 0 -291.5 58.5t-236 158t-156 237t-57.5 288.5zM225 717q0 -165 78 -303t215.5 -218.5t304.5 -80.5t304.5 80.5 t215.5 218.5t78 303t-78 303t-215.5 218.5t-304.5 80.5t-304.5 -80.5t-215.5 -218.5t-78 -303z" />
<glyph unicode="&#x41f;" horiz-adv-x="1290" d="M164 0v1434h143h819v-1434h-143v1298h-676v-1298h-143z" />
<glyph unicode="&#x420;" horiz-adv-x="1187" d="M164 0v1434h143h369q178 0 304 -126t126 -304q0 -177 -126 -304t-304 -127h-369v-573h-143zM307 709h369q118 0 202.5 86.5t84.5 208.5q0 123 -84 208.5t-203 85.5h-369v-589z" />
<glyph unicode="&#x421;" horiz-adv-x="1566" d="M82 717q0 152 56 288.5t154.5 236t239 158t302.5 58.5q235 0 420.5 -132.5t250.5 -342.5h-155q-57 150 -198.5 243t-317.5 93q-177 0 -317 -81t-216 -218t-76 -303t76 -303t216 -218t317 -81q176 0 317.5 93t198.5 243h155q-65 -210 -250.5 -343t-420.5 -133 q-162 0 -303 58.5t-239 158.5t-154 236.5t-56 288.5z" />
<glyph unicode="&#x422;" horiz-adv-x="1024" d="M41 1298v136h543h399v-136h-399v-1298h-144v1298h-399z" />
<glyph unicode="&#x423;" horiz-adv-x="1167" d="M61 1434h148l414 -881l376 881h148l-477 -1121q-72 -171 -182.5 -247t-274.5 -66v131q116 -12 190 34t123 161l29 67z" />
<glyph unicode="&#x424;" horiz-adv-x="1646" d="M61 717q0 170 90 293.5t243.5 188t357.5 73.5v162h143v-162q204 -9 357.5 -73.5t243 -188t89.5 -293.5t-89.5 -293.5t-243 -188t-357.5 -73.5v-162h-143v162q-204 9 -357.5 73.5t-243.5 188t-90 293.5zM205 717q0 -197 147.5 -304t399.5 -120v848q-252 -13 -399.5 -120 t-147.5 -304zM895 293q252 13 399.5 120t147.5 304t-147.5 304t-399.5 120v-848z" />
<glyph unicode="&#x425;" horiz-adv-x="1167" d="M41 0l465 741l-434 693h157l355 -566l354 566h158l-432 -693l462 -741h-157l-385 614l-385 -614h-158z" />
<glyph unicode="&#x426;" horiz-adv-x="1351" d="M164 0v1434h143v-1299h676v1299h143v-1299h154v-430h-143v295h-973z" />
<glyph unicode="&#x427;" horiz-adv-x="1239" d="M133 922v512h143v-512q0 -124 81 -199.5t227 -75.5q182 0 348 72v715h143v-1434h-143v584q-166 -72 -348 -72q-206 0 -328.5 115t-122.5 295z" />
<glyph unicode="&#x428;" horiz-adv-x="1863" d="M164 0v1434h143v-1299h553v1299h144v-1299h552v1299h144v-1434h-1536z" />
<glyph unicode="&#x429;" horiz-adv-x="1925" d="M164 0v1434h143v-1299h553v1299h144v-1299h552v1299h144v-1299h153v-430h-143v295h-1546z" />
<glyph unicode="&#x42a;" horiz-adv-x="1413" d="M0 1298v136h532v-574h369q178 0 304 -126.5t126 -303.5q0 -178 -125.5 -304t-304.5 -126h-512v1298h-389zM532 135h369q119 0 203 86t84 209q0 122 -84.5 208.5t-202.5 86.5h-369v-590z" />
<glyph unicode="&#x42b;" horiz-adv-x="1566" d="M164 0v1434h143v-574h369q178 0 304 -126.5t126 -303.5q0 -178 -126 -304t-304 -126h-512zM307 135h369q119 0 203 86t84 209q0 122 -84.5 208.5t-202.5 86.5h-369v-590zM1260 0v1434h143v-1434h-143z" />
<glyph unicode="&#x42c;" horiz-adv-x="1187" d="M164 0v1434h143v-574h369q178 0 304 -126.5t126 -303.5q0 -178 -126 -304t-304 -126h-451h-61zM307 135h369q119 0 203 86t84 209q0 122 -84.5 208.5t-202.5 86.5h-369v-590z" />
<glyph unicode="&#x42d;" horiz-adv-x="1546" d="M61 451h156q59 -154 195.5 -245t330.5 -91q160 0 287 71t200 191.5t87 271.5h-785v135h785q-21 232 -177.5 383.5t-396.5 151.5q-194 0 -330.5 -91t-195.5 -245h-156q66 214 247 344.5t435 130.5q158 0 293.5 -58.5t228.5 -158t146 -235.5t53 -289q0 -204 -89.5 -373 t-255.5 -269t-376 -100q-254 0 -435 130.5t-247 345.5z" />
<glyph unicode="&#x42e;" horiz-adv-x="2129" d="M164 0v1434h143v-629h271q16 137 78 257.5t157 207.5t223.5 137.5t270.5 50.5q154 0 291.5 -58.5t236 -158t156 -236.5t57.5 -288t-57.5 -288.5t-156 -237t-236 -158t-291.5 -58.5q-147 0 -279.5 54.5t-228.5 147.5t-155.5 221.5t-68.5 271.5h-268v-670h-143zM709 717 q0 -165 78 -303t215.5 -218.5t304.5 -80.5t304.5 80.5t215.5 218.5t78 303t-78 303t-215.5 218.5t-304.5 80.5t-304.5 -80.5t-215.5 -218.5t-78 -303z" />
<glyph unicode="&#x42f;" horiz-adv-x="1269" d="M41 0l508 575q-163 17 -274 140.5t-111 288.5q0 178 126 304t304 126h512v-1434h-143v573h-238l-504 -573h-180zM307 1004q0 -122 84.5 -208.5t202.5 -86.5h369v589h-369q-119 0 -203 -85.5t-84 -208.5z" />
<glyph unicode="&#x430;" horiz-adv-x="1019" d="M82 305q0 80 30.5 144.5t82.5 104t117 60.5t137 21q100 0 182.5 -34t134.5 -99v164q0 129 -72.5 190.5t-181.5 61.5q-106 0 -180 -55t-74 -156h-135q0 149 109 245.5t280 96.5q174 0 281.5 -103.5t107.5 -279.5v-666h-135v115q-100 -140 -317 -140q-72 0 -137 21 t-117 60.5t-82.5 104t-30.5 144.5zM217 305q0 -92 66.5 -147.5t197.5 -55.5q123 0 204 57.5t81 145.5q0 92 -80 147.5t-205 55.5q-131 0 -197.5 -55.5t-66.5 -147.5z" />
<glyph unicode="&#x431;" horiz-adv-x="1161" d="M82 512q0 103 25 193t67.5 157t98 124.5t116.5 101t121.5 81t116 69.5t98 62.5t67.5 64t25 69.5h139q0 -64 -29 -117t-78 -92t-110.5 -74.5t-130.5 -74t-132 -79.5t-121.5 -101.5t-94.5 -131.5q139 168 346 168t350.5 -135.5t143.5 -341.5q0 -207 -142.5 -343.5 t-359.5 -136.5q-221 0 -368.5 148.5t-147.5 388.5zM221 467q0 -156 109 -256t268 -100q161 0 264 97t103 247t-107 248t-270 98q-92 0 -174 -37.5t-137.5 -115.5t-55.5 -181z" />
<glyph unicode="&#x432;" horiz-adv-x="1075" d="M143 0v537v360v127h410q149 0 238.5 -81t89.5 -204q0 -64 -31 -121q85 -41 129.5 -115.5t44.5 -168.5q0 -143 -95.5 -238.5t-273.5 -95.5h-512zM279 127h376q111 0 172.5 55.5t61.5 151.5t-61 149.5t-173 53.5h-376v-410zM279 659h376q24 0 64 -4q26 41 26 84 q0 80 -54.5 120.5t-137.5 37.5h-274v-238z" />
<glyph unicode="&#x433;" horiz-adv-x="768" d="M143 0v1024h615v-131h-479v-893h-136z" />
<glyph unicode="&#x434;" horiz-adv-x="1167" d="M41 74v57h125q53 69 78.5 156.5t25.5 230.5v506h136h460h97v-893h143v-131v-295h-135v295h-144h-651v-295h-135v369zM330 131h497v762h-421v-375q0 -235 -76 -387z" />
<glyph unicode="&#x435;" horiz-adv-x="1165" d="M82 512q0 150 64 272t184.5 193.5t275.5 71.5q151 0 266.5 -77.5t173.5 -199t58 -264.5q0 -24 -4 -64h-135h-744q20 -156 125.5 -247t261.5 -91q110 0 192.5 49t117.5 126h149q-44 -136 -169 -221t-292 -85q-233 0 -378.5 151.5t-145.5 385.5zM221 575h744 q-18 162 -119.5 252.5t-239.5 90.5q-159 0 -262.5 -95t-122.5 -248z" />
<glyph unicode="&#x436;" horiz-adv-x="1380" d="M41 0l459 532l-439 492h164l398 -455v455h135v-455l397 455h164l-438 -492l458 -532h-163l-418 494v-494h-135v494l-418 -494h-164z" />
<glyph unicode="&#x437;" horiz-adv-x="860" d="M41 309h135q0 -94 70 -148.5t184 -54.5t184 54.5t70 148.5t-70 148.5t-184 54.5h-72v123h72q51 0 109 -10q73 55 73 131q0 79 -54.5 120.5t-137.5 41.5q-85 0 -139 -41.5t-54 -128.5h-135q0 134 89 217.5t239 83.5q148 0 238 -84.5t90 -208.5q0 -106 -78 -181 q72 -44 110.5 -113.5t38.5 -152.5q0 -141 -105 -237.5t-284 -96.5t-284 96.5t-105 237.5z" />
<glyph unicode="&#x438;" d="M143 0v1024h136v-778l548 778h115v-1024h-135v778l-549 -778h-115z" />
<glyph unicode="&#x439;" d="M143 0v1024h136v-778l548 778h115v-1024h-135v778l-549 -778h-115zM276 1188v119h533v-119h-533z" />
<glyph unicode="&#x43a;" horiz-adv-x="1011" d="M143 0v1024h136v-455l491 455h180l-532 -492l553 -532h-180l-512 494v-494h-136z" />
<glyph unicode="&#x43b;" d="M20 0v127q77 -7 125 16t76.5 94.5t28.5 198.5v588h135h557v-1024h-135v893h-422v-457q0 -107 -18.5 -186.5t-50.5 -129t-79.5 -78t-99.5 -37.5t-117 -5z" />
<glyph unicode="&#x43c;" horiz-adv-x="1290" d="M143 0v1024h136h20l346 -657l346 657h156v-1024h-135v799l-314 -592h-106l-313 592v-799h-136z" />
<glyph unicode="&#x43d;" horiz-adv-x="1087" d="M143 0v1024h136v-446h528v446h135v-1024h-135v446h-528v-446h-136z" />
<glyph unicode="&#x43e;" horiz-adv-x="1241" d="M82 512q0 149 72 272.5t195.5 194t271.5 70.5q225 0 381.5 -155.5t156.5 -381.5t-156.5 -381.5t-381.5 -155.5q-148 0 -271.5 70.5t-195.5 194t-72 272.5zM217 512q0 -170 117 -288t287 -118t286.5 117.5t116.5 288.5t-116.5 288.5t-286.5 117.5t-287 -118t-117 -288z " />
<glyph unicode="&#x43f;" d="M143 0v1024h136h663v-1024h-135v893h-528v-893h-136z" />
<glyph unicode="&#x440;" horiz-adv-x="1302" d="M143 -410v1434h136v-201q66 106 173 166t240 60q143 0 264.5 -70.5t193 -194.5t71.5 -272t-71.5 -272t-193 -194.5t-264.5 -70.5q-133 0 -240 60t-173 166v-611h-136zM279 512q0 -171 116.5 -288.5t286.5 -117.5t286.5 117.5t116.5 288.5t-116.5 288.5t-286.5 117.5 t-286.5 -117.5t-116.5 -288.5z" />
<glyph unicode="&#x441;" horiz-adv-x="1173" d="M82 512q0 112 41 211.5t112 171t171.5 113t214.5 41.5q176 0 311.5 -98t179.5 -255h-143q-40 100 -134.5 161t-213.5 61q-170 0 -287 -118t-117 -288t117 -288t287 -118q120 0 214.5 61.5t133.5 160.5h143q-43 -157 -178.5 -255t-312.5 -98q-114 0 -214.5 41.5 t-171.5 113t-112 171t-41 211.5z" />
<glyph unicode="&#x442;" horiz-adv-x="819" d="M20 893v131h457h322v-131h-322v-893h-135v893h-322z" />
<glyph unicode="&#x443;" horiz-adv-x="983" d="M41 1024h143l340 -829l295 829h144l-398 -1118q-55 -153 -166 -239.5t-247 -76.5v127q96 -10 168.5 48.5t109.5 164.5l27 76z" />
<glyph unicode="&#x444;" horiz-adv-x="1372" d="M82 512q0 216 147 364.5t389 170.5v387h136v-387q242 -22 389 -170.5t147 -364.5t-147 -364.5t-389 -170.5v-387h-136v387q-242 22 -389 170.5t-147 364.5zM217 512q0 -160 108 -271.5t293 -129.5v802q-185 -18 -293 -129.5t-108 -271.5zM754 111q185 18 293 129.5 t108 271.5t-108 271.5t-293 129.5v-802z" />
<glyph unicode="&#x445;" horiz-adv-x="927" d="M41 0l346 532l-319 492h147l246 -379l246 379h147l-319 -492l346 -532h-148l-272 420l-273 -420h-147z" />
<glyph unicode="&#x446;" horiz-adv-x="1146" d="M143 0v1024h136v-893h507v893h136v-893h163v-426h-135v295h-807z" />
<glyph unicode="&#x447;" horiz-adv-x="1024" d="M102 676v348h136v-348q0 -221 235 -221q139 0 272 59v510h136v-1024h-136v389q-116 -61 -272 -61q-174 0 -272.5 90.5t-98.5 257.5z" />
<glyph unicode="&#x448;" horiz-adv-x="1536" d="M143 0v1024h136v-893h421v893h136v-893h421v893h136v-1024h-136h-557h-469h-88z" />
<glyph unicode="&#x449;" horiz-adv-x="1597" d="M143 0v1024h136v-893h421v893h136v-893h421v893h136v-893h143v-131v-295h-135v295h-144h-557h-469h-88z" />
<glyph unicode="&#x44a;" horiz-adv-x="1105" d="M0 893v131h369h53v-389h280q142 0 242 -90t100 -228t-100 -227.5t-242 -89.5h-346h-69v893h-287zM422 131h280q87 0 147 50.5t60 135.5t-60 136t-147 51h-280v-373z" />
<glyph unicode="&#x44b;" horiz-adv-x="1323" d="M143 0v1024h136v-389h280q142 0 242 -90t100 -228t-100 -227.5t-242 -89.5h-346h-70zM279 131h280q87 0 147 50.5t60 135.5t-60 136t-147 51h-280v-373zM1044 0v1024h136v-1024h-136z" />
<glyph unicode="&#x44c;" horiz-adv-x="962" d="M143 0v1024h136v-389h280q142 0 242 -90t100 -228t-100 -227.5t-242 -89.5h-346h-70zM279 131h280q87 0 147 50.5t60 135.5t-60 136t-147 51h-280v-373z" />
<glyph unicode="&#x44d;" horiz-adv-x="1167" d="M61 328h144q39 -99 136 -160.5t220 -61.5q149 0 256 96t129 244h-510v132h510q-22 148 -129 244t-256 96q-122 0 -219 -61t-137 -161h-144q44 157 182.5 255t317.5 98q227 0 375.5 -154t148.5 -383t-148.5 -383t-375.5 -154q-180 0 -318.5 98t-181.5 255z" />
<glyph unicode="&#x44e;" horiz-adv-x="1638" d="M143 0v1024h136v-446h213q23 203 171.5 337t354.5 134q225 0 381.5 -155.5t156.5 -381.5t-156.5 -381.5t-381.5 -155.5q-206 0 -354.5 134t-171.5 337h-213v-446h-136zM614 512q0 -170 117 -288t287 -118t286.5 117.5t116.5 288.5t-116.5 288.5t-286.5 117.5t-287 -118 t-117 -288z" />
<glyph unicode="&#x44f;" horiz-adv-x="1024" d="M41 0l358 399q-120 19 -198 102.5t-78 205.5q0 138 100 227.5t242 89.5h416v-1024h-136v393h-184l-348 -393h-172zM258 707q0 -85 60 -136t147 -51h280v373h-280q-87 0 -147 -50.5t-60 -135.5z" />
<glyph unicode="&#x451;" horiz-adv-x="1165" d="M82 512q0 150 64 272t184.5 193.5t275.5 71.5q151 0 266.5 -77.5t173.5 -199t58 -264.5q0 -24 -4 -64h-135h-744q20 -156 125.5 -247t261.5 -91q110 0 192.5 49t117.5 126h149q-44 -136 -169 -221t-292 -85q-233 0 -378.5 151.5t-145.5 385.5zM221 575h744 q-18 162 -119.5 252.5t-239.5 90.5q-159 0 -262.5 -95t-122.5 -248zM317 1188v164h164v-164h-164zM727 1188v164h164v-164h-164z" />
<glyph unicode="&#x452;" horiz-adv-x="1075" d="M20 1180v110h144v144h135v-144h295v-110h-295v-291q106 160 315 160q147 0 248 -103.5t101 -275.5v-752q0 -184 -96 -275.5t-273 -76.5v131q120 -12 176.5 39.5t56.5 181.5v752q0 118 -65.5 183t-171.5 65q-55 0 -104.5 -18t-92.5 -56t-68.5 -106.5t-25.5 -159.5v-578 h-135v1180h-144z" />
<glyph unicode="&#x453;" horiz-adv-x="768" d="M143 0v1024h615v-131h-479v-893h-136zM299 1167l164 267h164l-197 -267h-131z" />
<glyph unicode="&#x454;" horiz-adv-x="1167" d="M82 512q0 229 148.5 383t375.5 154q179 0 317.5 -98t182.5 -255h-143q-40 100 -137.5 161t-219.5 61q-149 0 -256 -96t-129 -244h510v-132h-510q22 -148 129 -244t256 -96q123 0 220.5 61.5t136.5 160.5h143q-43 -157 -181.5 -255t-318.5 -98q-227 0 -375.5 154 t-148.5 383z" />
<glyph unicode="&#x455;" horiz-adv-x="942" d="M92 297h135q0 -100 68.5 -145.5t175.5 -45.5q105 0 174.5 40.5t69.5 121.5q0 52 -33 88t-86.5 56t-117.5 36t-128 37.5t-117.5 51.5t-86.5 85.5t-33 133.5q0 126 101.5 209.5t256.5 83.5q157 0 257.5 -88t100.5 -234h-135q0 99 -65 145t-158 46q-91 0 -157 -41t-66 -121 q0 -52 33 -88t86.5 -56t117.5 -36t128 -37.5t117.5 -51.5t86.5 -85.5t33 -133.5q0 -127 -105 -210t-274 -83q-171 0 -275 87.5t-104 234.5z" />
<glyph unicode="&#x456;" horiz-adv-x="421" d="M143 0v1024h136v-1024h-136zM143 1229v205h136v-205h-136z" />
<glyph unicode="&#x457;" horiz-adv-x="421" d="M-76 1188v164h164v-164h-164zM143 0v1024h136v-1024h-136zM334 1188v164h164v-164h-164z" />
<glyph unicode="&#x458;" horiz-adv-x="471" d="M-41 -303q121 -12 177.5 39.5t56.5 181.5v1106h135v-1106q0 -184 -96 -275.5t-273 -76.5v131zM193 1229v205h135v-205h-135z" />
<glyph unicode="&#x459;" horiz-adv-x="1554" d="M20 0v127q77 -7 125 16t76.5 94.5t28.5 198.5v588h135h440h97v-430h249q137 0 229.5 -80t92.5 -217t-92.5 -217t-229.5 -80h-315h-70v893h-401v-457q0 -107 -18.5 -186.5t-50.5 -129t-79.5 -78t-99.5 -37.5t-117 -5zM922 131h249q81 0 134 41.5t53 124.5t-53 124.5 t-134 41.5h-249v-332z" />
<glyph unicode="&#x45a;" horiz-adv-x="1554" d="M143 0v1024h136v-430h507v430h136v-430h249q137 0 229.5 -80t92.5 -217t-92.5 -217t-229.5 -80h-315h-70v463h-507v-463h-136zM922 131h249q81 0 134 41.5t53 124.5t-53 124.5t-134 41.5h-249v-332z" />
<glyph unicode="&#x45b;" horiz-adv-x="1081" d="M20 1180v110h144v144h135v-144h295v-110h-295v-291q106 160 315 160q147 0 248 -103.5t101 -275.5v-670h-136v670q0 118 -65.5 183t-171.5 65q-55 0 -104.5 -18t-92.5 -56t-68.5 -106.5t-25.5 -159.5v-578h-135v1180h-144z" />
<glyph unicode="&#x45c;" horiz-adv-x="1011" d="M143 0v1024h136v-455l491 455h180l-532 -492l553 -532h-180l-512 494v-494h-136zM401 1167l164 267h164l-197 -267h-131z" />
<glyph unicode="&#x45e;" horiz-adv-x="983" d="M41 1024h143l340 -829l295 829h144l-398 -1118q-55 -153 -166 -239.5t-247 -76.5v127q96 -10 168.5 48.5t109.5 164.5l27 76zM231 1188v119h533v-119h-533z" />
<glyph unicode="&#x45f;" d="M143 0v1024h136v-893h528v893h135v-1024h-135h-197v-295h-135v295h-244h-88z" />
<glyph unicode="&#x490;" horiz-adv-x="1003" d="M164 0v1434h655v245h144v-307v-74h-656v-1298h-143z" />
<glyph unicode="&#x491;" horiz-adv-x="768" d="M143 0v1024h480v213h135v-344h-479v-893h-136z" />
<glyph unicode="&#x2000;" horiz-adv-x="920" />
<glyph unicode="&#x2001;" horiz-adv-x="1841" />
<glyph unicode="&#x2002;" horiz-adv-x="920" />
<glyph unicode="&#x2003;" horiz-adv-x="1841" />
<glyph unicode="&#x2004;" horiz-adv-x="613" />
<glyph unicode="&#x2005;" horiz-adv-x="460" />
<glyph unicode="&#x2006;" horiz-adv-x="306" />
<glyph unicode="&#x2007;" horiz-adv-x="306" />
<glyph unicode="&#x2008;" horiz-adv-x="230" />
<glyph unicode="&#x2009;" horiz-adv-x="368" />
<glyph unicode="&#x200a;" horiz-adv-x="102" />
<glyph unicode="&#x2010;" horiz-adv-x="1064" d="M164 567v131h737v-131h-737z" />
<glyph unicode="&#x2011;" horiz-adv-x="1064" d="M164 567v131h737v-131h-737z" />
<glyph unicode="&#x2012;" horiz-adv-x="1064" d="M164 567v131h737v-131h-737z" />
<glyph unicode="&#x2013;" horiz-adv-x="1351" d="M164 567v131h1024v-131h-1024z" />
<glyph unicode="&#x2014;" horiz-adv-x="1556" d="M164 567v131h1229v-131h-1229z" />
<glyph unicode="&#x2018;" horiz-adv-x="471" d="M143 993v185q0 114 47 183.5t138 82.5v-82q-44 -16 -68 -54t-24 -130h92v-185h-185z" />
<glyph unicode="&#x2019;" horiz-adv-x="471" d="M143 983v82q45 16 69 54t24 130h-93v185h185v-185q0 -114 -47 -183.5t-138 -82.5z" />
<glyph unicode="&#x201a;" horiz-adv-x="471" d="M143 0v184h185v-184q0 -114 -47 -183.5t-138 -82.5v82q45 16 69 54t24 130h-93z" />
<glyph unicode="&#x201c;" horiz-adv-x="757" d="M143 993v185q0 114 47 183.5t138 82.5v-82q-44 -16 -68 -54t-24 -130h92v-185h-185zM430 993v185q0 114 46.5 183.5t137.5 82.5v-82q-44 -16 -68 -54t-24 -130h92v-185h-184z" />
<glyph unicode="&#x201d;" horiz-adv-x="757" d="M143 983v82q45 16 69 54t24 130h-93v185h185v-185q0 -114 -47 -183.5t-138 -82.5zM430 983v82q44 16 68 54t24 130h-92v185h184v-185q0 -114 -46.5 -183.5t-137.5 -82.5z" />
<glyph unicode="&#x201e;" horiz-adv-x="757" d="M143 0v184h185v-184q0 -114 -47 -183.5t-138 -82.5v82q45 16 69 54t24 130h-93zM430 0v184h184v-184q0 -114 -46.5 -183.5t-137.5 -82.5v82q44 16 68 54t24 130h-92z" />
<glyph unicode="&#x2026;" horiz-adv-x="1249" d="M143 0v184h185v-184h-185zM532 0v184h185v-184h-185zM922 0v184h184v-184h-184z" />
<glyph unicode="&#x202f;" horiz-adv-x="368" />
<glyph unicode="&#x2039;" horiz-adv-x="679" d="M143 633l226 368h168l-226 -368l226 -369h-168z" />
<glyph unicode="&#x203a;" horiz-adv-x="679" d="M143 264l226 369l-226 368h168l226 -368l-226 -369h-168z" />
<glyph unicode="&#x205f;" horiz-adv-x="460" />
<glyph unicode="&#x20ac;" horiz-adv-x="1269" d="M20 545v119h144v53q0 46 2 69h-146v119h156q38 257 175 405t356 148q207 0 336.5 -130t160.5 -357h-145q-25 167 -117 257.5t-235 90.5q-155 0 -254.5 -107t-130.5 -307h518v-119h-531q-2 -23 -2 -69v-53h533v-119h-521q29 -207 129.5 -318.5t258.5 -111.5q147 0 240 95 t116 269h145q-30 -235 -160.5 -369.5t-340.5 -134.5q-223 0 -361 152.5t-172 417.5h-154z" />
<glyph unicode="&#x2122;" horiz-adv-x="950" d="M82 1358v76h317v-76h-116v-334h-82v334h-119zM449 1024v410h81h15l114 -236l115 236h94v-410h-82v264l-86 -174h-82l-88 176v-266h-81z" />
<glyph unicode="&#x25fc;" horiz-adv-x="1024" d="M0 0v1024h1024v-1024h-1024z" />
</font>
</defs>
</svg>
