<?xml version="1.0" standalone="no"?>
<!DOCTYPE svg PUBLIC "-//W3C//DTD SVG 1.1//EN" "http://www.w3.org/Graphics/SVG/1.1/DTD/svg11.dtd" >
<svg xmlns="http://www.w3.org/2000/svg" xmlns:xlink="http://www.w3.org/1999/xlink" version="1.1">
<metadata>
Created by FontForge 20160407 at Sun Nov 13 17:07:09 2016
 By Jimmy Wärting
The digitally encoded machine readable software for producing the Typefaces licensed to you is copyrighted (c), 1988, 1990, 1991, 2002 Linotype Library GmbH or its affiliated companies. All rights reserved. This software is now the property of Heidelberger Druckmaschinen AG and its licensors, and may not be reproduced, used, displayed, modified, disclosed or transferred without the express written approval of Heidelberger Druckmaschinen AG. Copyright (c) 1988, 1990, 1991 Adobe Systems Incorporated.  All Rights Reserved.
</metadata>
<defs>
<font id="HelveticaLT-UltraCompressed" horiz-adv-x="682" >
  <font-face 
    font-family="Helvetica LT UltraCompressed"
    font-weight="400"
    font-stretch="normal"
    units-per-em="2048"
    panose-1="2 11 5 0 0 0 0 0 0 0"
    ascent="1638"
    descent="-410"
    x-height="1171"
    cap-height="1458"
    bbox="-342 -512 2048 1894"
    underline-thickness="102"
    underline-position="-256"
    unicode-range="U+0020-2122"
  />
<missing-glyph horiz-adv-x="1024" 
d="M102 0h820v1049h-820v-1049zM119 16v1016h786v-1016h-786z" />
    <glyph glyph-name=".notdef" horiz-adv-x="1024" 
d="M102 0h820v1049h-820v-1049zM119 16v1016h786v-1016h-786z" />
    <glyph glyph-name="space" unicode=" " horiz-adv-x="340" 
 />
    <glyph glyph-name="exclam" unicode="!" horiz-adv-x="418" 
d="M311 313v1145h-205v-1145h205zM311 0v227h-205v-227h205z" />
    <glyph glyph-name="quotedbl" unicode="&#x22;" 
d="M403 903h181v555h-181v-555zM96 903h180v555h-180v-555z" />
    <glyph glyph-name="numbersign" unicode="#" 
d="M700 590h-131l31 278h152v152h-134l50 438h-136l-51 -438h-198l51 438h-135l-54 -438h-165v-152h147l-31 -278h-166v-152h146l-49 -438h135l51 438h199l-52 -438h138l51 438h151v152zM463 868l-31 -278h-199l31 278h199z" />
    <glyph glyph-name="dollar" unicode="$" 
d="M403 1515h-114v-92q-201 -35 -236 -231v-174q0 -84 37 -142l275 -372q26 -35 34 -62q4 -26 4 -57v-147q0 -27 -12 -43q-14 -21 -47 -21q-51 0 -61 33q-15 33 -13 80v250h-217v-316q0 -98 53 -162q56 -61 175 -59v-104h114v104q123 10 172 68q49 55 60 151v199
q0 73 -17 129q-16 53 -71 117l-191 241q-43 57 -57 88q-15 31 -15 53v146q-2 57 68 57q41 0 55 -14q11 -17 11 -74v-250h217v297q-2 96 -66 156q-63 61 -158 59v92z" />
    <glyph glyph-name="percent" unicode="%" horiz-adv-x="1024" 
d="M326 -16l477 1490h-99l-477 -1490h99zM33 825q0 -94 61 -133q58 -41 146 -41q100 0 159 49q60 45 64 138v458q-15 86 -74 125q-59 37 -141 37q-131 -2 -174 -72q-43 -71 -41 -194v-367zM199 1259q0 35 10 54q8 18 43 18q39 -2 43 -33q2 -30 2 -61v-361q0 -30 -2 -61
q-2 -14 -12 -25q-9 -12 -31 -12q-37 0 -45 27q-10 22 -8 57v397zM561 174q0 -94 62 -133q57 -41 145 -41q100 0 160 49q59 45 63 137v459q-14 86 -74 125q-59 37 -141 37q-131 -2 -174 -72q-43 -71 -41 -194v-367zM727 608q0 35 10 53q8 19 43 19q39 -2 43 -33q2 -31 2 -61
v-361q0 -30 -2 -61q-2 -15 -12 -25q-8 -12 -31 -12q-37 0 -45 27q-10 22 -8 57v397z" />
    <glyph glyph-name="ampersand" unicode="&#x26;" horiz-adv-x="797" 
d="M283 620h6q63 -243 180 -468q-14 -19 -64 -19q-53 -2 -86 23q-36 24 -36 108v356zM440 1073q-2 -45 -30 -76q-29 -30 -62 -49q-35 45 -37 111v198q0 50 17 66q16 14 49 14q61 0 63 -57v-207zM539 778v-377h-5q-47 201 -122 394q135 86 182 176q45 90 43 213
q2 147 -45 225q-49 78 -199 78q-168 0 -225 -84q-55 -84 -53 -236q-2 -88 12 -172q14 -86 68 -157q-76 -45 -103 -121q-29 -78 -26 -162v-289q2 -133 92 -213q86 -80 215 -82q49 0 102 13q53 10 96 43q33 -27 76 -27h131v154h-71q20 53 22 106v518h-190z" />
    <glyph glyph-name="quotesingle" unicode="'" horiz-adv-x="455" 
d="M137 903h180v555h-180v-555z" />
    <glyph glyph-name="parenleft" unicode="(" horiz-adv-x="342" 
d="M201 1458q-174 -381 -174 -797q-9 -452 182 -860h180q-188 408 -182 860q0 416 172 797h-178z" />
    <glyph glyph-name="parenright" unicode=")" horiz-adv-x="342" 
d="M-37 1458q170 -381 172 -797q4 -452 -182 -860h180q189 408 182 860q-2 416 -174 797h-178z" />
    <glyph glyph-name="asterisk" unicode="*" horiz-adv-x="645" 
d="M319 1100l134 -170v0l92 63l-142 168l211 96l-45 88v0l-194 -84v0v197h-107v-199v0l-192 86v0l-45 -88l205 -98l-138 -166l92 -63v0l129 170v0z" />
    <glyph glyph-name="plus" unicode="+" horiz-adv-x="1024" 
d="M424 676h-414v-180h414v-412h180v412h410v180h-410v411h-180v-411z" />
    <glyph glyph-name="comma" unicode="," horiz-adv-x="340" 
d="M152 -256l149 483h-205l-65 -483h121z" />
    <glyph glyph-name="hyphenminus" unicode="-" horiz-adv-x="340" 
d="M41 541h260v147h-260v-147z" />
    <glyph glyph-name="period" unicode="." horiz-adv-x="340" 
d="M272 0v227h-204v-227h204z" />
    <glyph glyph-name="slash" unicode="/" horiz-adv-x="569" 
d="M479 1487l-499 -1516h108l500 1516h-109z" />
    <glyph glyph-name="zero" unicode="0" 
d="M57 266q2 -143 80 -213q74 -69 193 -69q293 -2 295 282v916q0 165 -74 231q-74 64 -211 61q-135 3 -207 -61q-76 -66 -76 -231v-916zM274 1208q2 90 62 92q69 -2 72 -92v-942q0 -33 -9 -67q-10 -39 -55 -41q-47 0 -57 39q-15 36 -13 77v934z" />
    <glyph glyph-name="one" unicode="1" 
d="M98 1116h160v-1116h217v1458h-178q2 -96 -53 -137q-54 -41 -146 -53v-152z" />
    <glyph glyph-name="two" unicode="2" 
d="M295 174q8 123 57 231q49 109 113 222q63 112 112 237q46 125 48 275q0 65 -9 127q-12 59 -39 106q-26 47 -75 76q-49 26 -129 26q-320 7 -316 -309v-229h217v256q0 51 19 80q16 28 55 28q60 2 60 -108v-135q-3 -92 -54 -195q-51 -104 -121 -221q-67 -117 -118 -252
q-58 -137 -58 -297v-92h559v174h-321z" />
    <glyph glyph-name="three" unicode="3" 
d="M57 537v-207q0 -78 13 -140q12 -63 43 -110q57 -94 229 -96q129 0 205 61t78 234v245q2 70 -25 121q-29 49 -147 88v8q55 13 90 37q32 23 51 49q33 58 31 127v236q0 61 -13 114q-14 54 -47 91q-31 36 -84 59q-53 20 -133 20q-141 0 -215 -63q-76 -68 -76 -233v-238h217
v221q0 47 9 92q6 23 20 35t45 12q51 -2 57 -59q3 -57 3 -141v-131q0 -66 -23 -107q-27 -41 -111 -37v-174h33q49 0 76 -24q25 -27 25 -93v-264q0 -37 -5 -57q-6 -23 -16 -35q-22 -22 -53 -20q-21 -2 -37 24q-23 27 -23 131v224h-217z" />
    <glyph glyph-name="four" unicode="4" 
d="M276 1458l-264 -936v-151h365v-371h207v371h86v174h-86v913h-308zM192 545q113 356 181 729h4v-729h-185z" />
    <glyph glyph-name="five" unicode="5" 
d="M57 537v-306q0 -69 27 -116q22 -47 59 -78q80 -53 189 -53q90 2 147 26q58 23 90 64q33 41 45 94q11 53 11 115v354v55q0 27 -5 51q-8 52 -28 88q-19 41 -55 62q-37 22 -95 22q-90 -4 -159 -63v0v432h327v174h-544v-776h215q10 45 61 45q39 0 53 -29q13 -28 13 -69v-365
q0 -41 -9 -72q-10 -34 -49 -34q-49 0 -63 34q-15 31 -13 72v273h-217z" />
    <glyph glyph-name="six" unicode="6" 
d="M625 657q0 76 -17 121q-16 45 -45 70q-29 24 -59 33q-33 8 -68 8q-96 -2 -162 -70v0v389q-2 41 13 66q14 26 55 26q45 0 57 -26q9 -25 9 -66v-274h217v239q6 297 -281 301q-291 -6 -287 -292v-928q0 -268 281 -270q92 2 149 26q58 23 86 62q31 41 43 92q9 51 9 106v387z
M408 252q0 -33 -7 -62q-10 -32 -55 -32q-51 0 -61 41q-13 37 -11 82v325q0 35 15 62q12 22 49 24q43 0 57 -22q13 -23 13 -64v-354z" />
    <glyph glyph-name="seven" unicode="7" 
d="M41 1284h385l-332 -1284h232l317 1278v180h-602v-174z" />
    <glyph glyph-name="eight" unicode="8" 
d="M57 250q4 -264 277 -266q137 2 215 65q76 64 76 170v367q0 43 -37 90q-19 24 -51 45q-35 18 -84 31v4q51 6 88 30q32 23 51 56q18 34 26 75q7 37 7 74l-2 205q0 80 -25 135q-25 53 -68 84q-86 59 -198 59q-88 3 -178 -53q-41 -31 -68 -86q-29 -53 -29 -139v-227
q0 -86 37 -144q35 -61 139 -69v-4q-57 -13 -90 -35q-37 -23 -55 -53q-33 -62 -31 -142v-272zM408 262q0 -33 -9 -67q-10 -35 -55 -37q-70 0 -70 104v313q0 29 15 56q12 22 51 24q41 -2 55 -24q13 -27 13 -56v-313zM408 942q-3 -90 -62 -88q-39 -2 -53 18q-19 21 -19 76v258
q-4 90 68 94q37 0 51 -16q15 -20 15 -78v-264z" />
    <glyph glyph-name="nine" unicode="9" 
d="M57 723q0 -74 21 -119q16 -45 43 -70q28 -24 61 -32q33 -11 64 -11q96 3 162 70v0v-299q0 -37 -11 -63q-12 -29 -57 -29q-41 0 -53 29q-15 26 -13 63v180h-217v-145q-8 -297 281 -301q291 6 287 293v927q0 269 -281 271q-88 0 -145 -23q-58 -22 -88 -63q-29 -41 -41 -90
q-13 -52 -13 -111v-477zM274 1218q0 37 11 66q10 27 51 29q53 -2 63 -37q9 -39 9 -86v-416q0 -31 -11 -57q-14 -29 -53 -29q-41 0 -55 27q-15 22 -15 59v444z" />
    <glyph glyph-name="colon" unicode=":" horiz-adv-x="340" 
d="M272 0v227h-204v-227h204zM272 840v227h-204v-227h204z" />
    <glyph glyph-name="semicolon" unicode=";" horiz-adv-x="340" 
d="M137 -256l150 483h-205l-66 -483h121zM272 840v227h-204v-227h204z" />
    <glyph glyph-name="less" unicode="&#x3c;" horiz-adv-x="1024" 
d="M960 127v154l-694 305l694 305v153v0l-894 -391v-135l894 -391v0z" />
    <glyph glyph-name="equal" unicode="=" horiz-adv-x="1024" 
d="M1014 885h-1004v-181h1004v181zM1014 467h-1004v-180h1004v180z" />
    <glyph glyph-name="greater" unicode="&#x3e;" horiz-adv-x="1024" 
d="M63 1044v-153l693 -305l-693 -305v-156v0l895 393v135l-895 391v0z" />
    <glyph glyph-name="question" unicode="?" 
d="M287 942v322q0 45 14 63q12 16 39 16q39 0 49 -14q6 -16 6 -59v-203q-2 -59 -35 -121l-96 -194q-24 -58 -22 -127v-312h204v228q-2 118 23 170l100 196q15 29 21 72q2 41 2 88v164q0 151 -70 207q-69 51 -188 49q-244 0 -244 -221v-324h197zM446 0v227h-204v-227h204z
" />
    <glyph glyph-name="at" unicode="@" horiz-adv-x="1638" 
d="M747 455q-73 0 -118 53q-47 51 -47 133q0 119 77 223q37 51 86 82q50 29 109 29q70 -2 117 -53q45 -52 45 -127q-2 -117 -76 -224q-35 -49 -84 -82q-49 -34 -109 -34v0zM1077 999v0q-86 146 -235 144q-205 -4 -326 -164q-125 -156 -125 -363q2 -139 90 -235
q86 -100 219 -102q66 0 127 38q60 35 103 82h4q4 -59 39 -90q35 -30 82 -30q63 0 147 36q82 37 162 109q80 74 133 184q51 109 53 256q-4 283 -209 453q-202 168 -489 170q-322 -4 -539 -217q-223 -211 -227 -539q4 -332 227 -541q217 -215 549 -219q399 4 623 338h-160
q-176 -188 -455 -190q-268 2 -436 170q-174 164 -176 436q2 266 166 438q158 174 426 176q237 0 393 -131q158 -129 162 -377q-2 -163 -82 -276q-78 -115 -174 -117q-37 2 -35 49q0 43 14 90l140 537h-156z" />
    <glyph glyph-name="A" unicode="A" 
d="M276 586l54 606h14l45 -606h-113zM12 0h197l47 395h154l41 -395h219l-166 1458h-326z" />
    <glyph glyph-name="B" unicode="B" 
d="M274 1292h50q43 0 61 -22q16 -23 16 -86v-222q0 -59 -16 -83q-18 -27 -61 -25h-50v438zM57 0h305q138 2 201 90q62 86 62 217v232q0 120 -52 165q-51 48 -155 62v4q96 20 147 61q53 41 53 134v231q0 119 -59 190q-63 70 -194 72h-308v-1458zM274 680h43q45 0 70 -23
q21 -26 21 -92v-276q0 -66 -21 -90q-25 -27 -70 -25h-43v506z" />
    <glyph glyph-name="C" unicode="C" 
d="M625 926v315q0 74 -25 121q-25 49 -66 76q-88 51 -194 49q-49 0 -98 -10q-50 -13 -90 -39q-41 -27 -66 -76q-29 -47 -29 -121v-1024q2 -139 95 -192q40 -27 90 -39q49 -15 98 -15q53 0 104 15q50 12 90 39q41 26 66 75q25 47 25 117v334h-217v-315q0 -54 -15 -72
q-18 -21 -51 -19q-33 -2 -49 19q-19 18 -19 72v987q0 53 19 73q16 17 49 17t51 -17q15 -20 15 -73v-297h217z" />
    <glyph glyph-name="D" unicode="D" 
d="M57 0h310q127 2 192 82q66 74 66 182v864q0 191 -72 262q-72 70 -234 68h-262v-1458zM274 1284h52q43 0 63 -16q19 -23 19 -93v-892q0 -68 -19 -88q-20 -23 -63 -21h-52v1110z" />
    <glyph glyph-name="E" unicode="E" horiz-adv-x="569" 
d="M551 0v190h-270v512h256v191h-256v375h266v190h-484v-1458h488z" />
    <glyph glyph-name="F" unicode="F" horiz-adv-x="569" 
d="M281 0v702h260v191h-260v375h270v190h-488v-1458h218z" />
    <glyph glyph-name="G" unicode="G" 
d="M322 727v-174h86v-317q0 -54 -15 -72q-18 -21 -51 -19q-33 -2 -49 19q-19 18 -19 72v987q0 53 19 73q16 17 49 17t51 -17q15 -20 15 -73v-291h217v309q0 74 -25 121q-25 49 -66 76q-88 51 -194 49q-49 0 -98 -10q-50 -13 -90 -39q-41 -27 -66 -76q-29 -47 -29 -121v-1024
q0 -70 27 -117q27 -49 63 -75q39 -27 82 -39q41 -15 80 -15q133 0 197 121h4l6 -92h109v727h-303z" />
    <glyph glyph-name="H" unicode="H" 
d="M281 0v709h120v-709h217v1458h-217v-559h-120v559h-218v-1458h218z" />
    <glyph glyph-name="I" unicode="I" horiz-adv-x="342" 
d="M279 0v1458h-218v-1458h218z" />
    <glyph glyph-name="J" unicode="J" 
d="M401 1458v-1208q0 -68 -16 -88q-20 -19 -43 -17q-23 -2 -41 17q-20 20 -20 88v305h-218v-311q0 -121 76 -195q76 -76 195 -78q51 0 100 15q49 12 90 39q45 30 70 77q24 50 24 119v1237h-217z" />
    <glyph glyph-name="K" unicode="K" 
d="M281 0v739h6l157 -739h224l-170 793l166 665h-211l-166 -657h-6v657h-218v-1458h218z" />
    <glyph glyph-name="L" unicode="L" horiz-adv-x="569" 
d="M557 0v190h-276v1268h-218v-1458h494z" />
    <glyph glyph-name="M" unicode="M" horiz-adv-x="985" 
d="M592 0l76 629q24 258 53 561h8q-8 -268 -8 -518v-672h190v1458h-321l-60 -604q-14 -201 -20 -453h-10q-11 299 -35 455l-70 602h-321v-1458h190v905q-2 144 -8 285h8q25 -225 51 -488l78 -702h199z" />
    <glyph glyph-name="N" unicode="N" horiz-adv-x="797" 
d="M63 1458v-1458h179v1057q-6 92 -6 188h8q20 -252 65 -516l103 -729h321v1458h-178v-741q2 -213 6 -426v-78h-8q-29 416 -102 825l-62 420h-326z" />
    <glyph glyph-name="O" unicode="O" 
d="M274 1223q0 53 19 73q16 17 49 17t51 -17q15 -20 15 -73v-987q0 -54 -15 -72q-18 -21 -51 -19q-33 -2 -49 19q-19 18 -19 72v987zM57 217q2 -139 95 -192q40 -27 90 -39q49 -15 98 -15q53 0 104 15q50 12 90 39q41 26 66 75q25 47 25 117v1024q0 74 -25 121
q-25 49 -66 76q-88 51 -194 49q-49 0 -98 -10q-50 -13 -90 -39q-41 -27 -66 -76q-29 -47 -29 -121v-1024z" />
    <glyph glyph-name="P" unicode="P" 
d="M625 1173q0 158 -84 224q-86 63 -256 61h-228v-1458h217v559h91q258 0 260 299v315zM274 1284h39q56 0 76 -31q19 -32 19 -108v-346q-3 -47 -41 -58q-41 -10 -93 -8v551z" />
    <glyph glyph-name="Q" unicode="Q" 
d="M274 1223q0 53 19 73q16 17 49 17t51 -17q15 -20 15 -73v-987q0 -54 -15 -72q-18 -21 -51 -19q-33 -2 -49 19q-19 18 -19 72v987zM57 217q2 -139 95 -192q40 -27 90 -39q49 -15 98 -15q37 0 70 9q2 -60 26 -99q23 -41 98 -43h111v162h-96q-31 0 -33 14q49 27 80 78
q29 49 29 125v1024q0 74 -25 121q-25 49 -66 76q-88 51 -194 49q-49 0 -98 -10q-50 -13 -90 -39q-41 -27 -66 -76q-29 -47 -29 -121v-1024z" />
    <glyph glyph-name="R" unicode="R" 
d="M274 0v676q76 4 105 -23q29 -28 29 -96q-3 -129 0 -276q2 -152 26 -281h217q-22 152 -24 303q-4 152 -11 297q-2 51 -20 84q-19 33 -49 51q-62 37 -137 43v4q135 19 178 78q39 59 37 141v207q-2 139 -74 197q-74 53 -207 53h-287v-1458h217zM274 1284h52q79 2 82 -72
v-264q0 -41 -17 -65q-18 -29 -76 -29h-41v430z" />
    <glyph glyph-name="S" unicode="S" 
d="M274 553h-217v-336q2 -139 95 -192q40 -27 90 -39q49 -15 98 -15q53 0 104 15q50 12 90 39q41 26 66 75q25 47 25 117v258q-2 57 -54 139q-51 78 -120 162q-68 86 -119 158q-25 35 -41 63q-17 27 -17 45v181q0 53 19 73q16 17 49 17t51 -17q15 -20 15 -73v-289h217v307
q0 74 -25 121q-25 49 -66 76q-88 51 -194 49q-49 0 -98 -10q-50 -13 -90 -39q-41 -27 -66 -76q-29 -47 -29 -121v-209q0 -88 58 -170q51 -82 118 -162q70 -80 121 -155q51 -80 54 -156v-153q0 -54 -15 -72q-18 -21 -51 -19q-33 -2 -49 19q-19 18 -19 72v317z" />
    <glyph glyph-name="T" unicode="T" horiz-adv-x="645" 
d="M25 1458v-190h190v-1268h217v1268h188v190h-595z" />
    <glyph glyph-name="U" unicode="U" 
d="M408 1458v-1222q0 -54 -15 -72q-18 -21 -51 -19q-33 -2 -49 19q-19 18 -19 72v1222h-217v-1241q2 -139 95 -192q40 -27 90 -39q49 -15 98 -15q53 0 104 15q50 12 90 39q41 26 66 75q25 47 25 117v1241h-217z" />
    <glyph glyph-name="V" unicode="V" 
d="M8 1458l164 -1458h328l172 1458h-217l-66 -657q-22 -260 -43 -525h-4q-25 289 -49 574l-68 608h-217z" />
    <glyph glyph-name="W" unicode="W" horiz-adv-x="985" 
d="M405 0l62 606q20 242 41 481h10q4 -280 27 -563l37 -524h235l145 1458h-176l-55 -618q-16 -201 -22 -428h-11q-4 221 -22 471l-45 575h-236l-49 -479q-22 -283 -24 -567h-11q-6 262 -26 516l-45 530h-220l134 -1458h251z" />
    <glyph glyph-name="X" unicode="X" 
d="M205 0q41 160 80 319q41 158 47 318q4 -4 16 -98q12 -93 31 -187l78 -352h223l-180 793l176 665h-203l-35 -135q-63 -213 -86 -440h-6q-35 290 -102 575h-226l166 -721l-182 -737h203z" />
    <glyph glyph-name="Y" unicode="Y" 
d="M8 1458l223 -913v-545h217v555l224 903h-203l-78 -328q-31 -137 -37 -305h-4q-14 168 -47 316l-72 317h-223z" />
    <glyph glyph-name="Z" unicode="Z" horiz-adv-x="530" 
d="M27 1458v-190h247l-251 -1116v-152h483v190h-256l254 1108v160h-477z" />
    <glyph glyph-name="bracketleft" unicode="[" horiz-adv-x="455" 
d="M426 -199v144h-184v1370h184v143h-365v-1657h365z" />
    <glyph glyph-name="backslash" unicode="\" horiz-adv-x="569" 
d="M-117 1487l688 -1516h115l-692 1516h-111z" />
    <glyph glyph-name="bracketright" unicode="]" horiz-adv-x="455" 
d="M29 -199h364v1657h-364v-143h184v-1370h-184v-144z" />
    <glyph glyph-name="asciicircum" unicode="^" horiz-adv-x="1024" 
d="M205 631l307 639v0l307 -639h184l-407 827h-168l-408 -827h185z" />
    <glyph glyph-name="underscore" unicode="_" horiz-adv-x="1024" 
d="M1024 -256v102h-1024v-102h1024z" />
    <glyph glyph-name="grave" unicode="`" horiz-adv-x="303" 
d="M98 1646h-202l282 -350h111z" />
    <glyph glyph-name="a" unicode="a" horiz-adv-x="569" 
d="M332 606v-405q-2 -41 -47 -47q-41 0 -47 38v295q0 45 28 72q25 25 66 47v0zM528 989q0 92 -63 146q-66 51 -180 51q-113 0 -176 -51q-68 -54 -68 -146v-235h199v153q-2 37 4 84q2 23 14 39q8 12 29 12q35 -2 39 -45v-71q-2 -107 -43 -154q-41 -49 -99 -74
q-53 -24 -96 -61q-47 -37 -47 -123v-393q0 -133 133 -135q59 0 94 24q31 21 60 70h4q-2 -41 12 -80h184v989z" />
    <glyph glyph-name="b" unicode="b" horiz-adv-x="569" 
d="M332 225q0 -43 -13 -57q-16 -14 -34 -14q-19 0 -31 14q-16 14 -16 57v721q0 45 16 59q12 13 31 13q18 0 34 -13q13 -14 13 -59v-721zM41 0h197v70h4q24 -31 61 -58q37 -24 80 -26q61 0 102 32q41 35 43 105v926q-2 73 -43 106q-41 31 -102 31q-47 0 -82 -27
q-37 -27 -59 -61h-4v360h-197v-1458z" />
    <glyph glyph-name="c" unicode="c" horiz-adv-x="569" 
d="M41 182q0 -90 68 -141q63 -53 176 -55q114 2 180 55q63 51 63 141v279h-196v-275q0 -39 -13 -47q-12 -10 -34 -10q-21 0 -33 10q-14 8 -14 47v785q0 45 16 59q12 12 31 12q18 0 34 -12q13 -14 13 -59v-217h196v235q0 92 -63 146q-66 51 -180 51q-113 0 -176 -51
q-68 -54 -68 -146v-807z" />
    <glyph glyph-name="d" unicode="d" horiz-adv-x="569" 
d="M238 946q0 45 16 59q12 13 31 13q18 0 34 -13q13 -14 13 -59v-721q0 -43 -13 -57q-16 -14 -34 -14q-19 0 -31 14q-16 14 -16 57v721zM528 1458h-196v-360h-4q-21 34 -56 61q-36 27 -86 27q-57 0 -100 -31q-45 -33 -45 -106v-926q0 -70 45 -105q43 -32 100 -32q47 2 84 26
q35 27 58 58h4v-70h196v1458z" />
    <glyph glyph-name="e" unicode="e" horiz-adv-x="569" 
d="M332 461v-275q0 -39 -13 -47q-12 -10 -34 -10q-21 0 -33 10q-14 8 -14 47v373h290v430q0 92 -63 146q-66 51 -180 51q-113 0 -176 -51q-68 -54 -68 -146v-807q0 -90 68 -141q63 -53 176 -55q114 2 180 55q63 51 63 141v279h-196zM332 696h-94v289q0 39 14 49q12 8 33 8
q22 0 34 -8q13 -10 13 -49v-289z" />
    <glyph glyph-name="f" unicode="f" horiz-adv-x="342" 
d="M72 0h196v1016h62v155h-62v72q0 23 8 41q7 16 27 18h27v156h-111q-88 0 -117 -39q-32 -41 -30 -100v-148h-62v-155h62v-1016z" />
    <glyph glyph-name="g" unicode="g" horiz-adv-x="569" 
d="M238 946q0 45 16 59q12 13 31 13q18 0 34 -13q13 -14 13 -59v-573q0 -43 -13 -58q-16 -14 -34 -14q-19 0 -31 14q-16 15 -16 58v573zM528 1171h-196v-69v0q-31 37 -66 61q-37 23 -78 23q-147 -4 -147 -156v-741q0 -154 147 -156q97 0 136 80h4v-260q0 -43 -13 -57
q-16 -15 -34 -15q-19 0 -31 15q-17 14 -17 57v127h-192v-146q0 -90 68 -141q63 -53 176 -55q114 2 180 55q63 51 63 141v1237z" />
    <glyph glyph-name="h" unicode="h" horiz-adv-x="569" 
d="M238 1458h-197v-1458h197v946q0 27 8 49q8 23 43 23q30 0 39 -23q4 -22 4 -49v-946h196v975q2 94 -18 153q-23 58 -133 58q-86 0 -135 -82h-4v354z" />
    <glyph glyph-name="i" unicode="i" horiz-adv-x="303" 
d="M250 0v1171h-197v-1171h197zM250 1458h-197v-209h197v209z" />
    <glyph glyph-name="j" unicode="j" horiz-adv-x="303" 
d="M-35 -262h115q61 2 96 20q37 19 51 54q19 34 23 79q4 43 0 91v1189h-197v-1196q2 -84 -88 -81v-156zM250 1458h-197v-209h197v209z" />
    <glyph glyph-name="k" unicode="k" horiz-adv-x="569" 
d="M242 0v616h8l108 -616h201l-119 643l113 528h-197l-106 -538h-8v825h-197v-1458h197z" />
    <glyph glyph-name="l" unicode="l" horiz-adv-x="303" 
d="M250 0v1458h-197v-1458h197z" />
    <glyph glyph-name="m" unicode="m" horiz-adv-x="872" 
d="M248 1171h-197v-1171h197v946q0 27 8 49q6 23 35 23q33 0 41 -23q6 -22 6 -49v-946h196v946q0 27 9 49q6 23 34 23q33 0 41 -23q7 -22 7 -49v-946h196v975q2 94 -18 153q-23 58 -133 58q-103 2 -142 -84v0q-22 45 -55 65q-33 19 -84 19q-45 0 -80 -27q-37 -27 -57 -65h-4
v77z" />
    <glyph glyph-name="n" unicode="n" horiz-adv-x="569" 
d="M41 0h197v946q0 27 8 49q8 23 43 23q30 0 39 -23q4 -22 4 -49v-946h196v975q2 94 -18 153q-23 58 -133 58q-86 0 -135 -82h-4v67h-197v-1171z" />
    <glyph glyph-name="o" unicode="o" horiz-adv-x="569" 
d="M528 989q0 92 -63 146q-66 51 -180 51q-113 0 -176 -51q-68 -54 -68 -146v-807q0 -90 68 -141q63 -53 176 -55q114 2 180 55q63 51 63 141v807zM332 186q0 -39 -13 -47q-12 -10 -34 -10q-21 0 -33 10q-14 8 -14 47v799q0 39 14 49q12 8 33 8q22 0 34 -8q13 -10 13 -49
v-799z" />
    <glyph glyph-name="p" unicode="p" horiz-adv-x="569" 
d="M332 225q0 -43 -13 -57q-16 -14 -34 -14q-19 0 -31 14q-16 14 -16 57v721q0 45 16 59q12 13 31 13q18 0 34 -13q13 -14 13 -59v-721zM41 -262h197v336h4q22 -35 59 -60q35 -26 82 -28q145 2 145 178v844q-4 180 -131 178q-55 -2 -92 -25q-39 -24 -63 -59h-4v69h-197
v-1433z" />
    <glyph glyph-name="q" unicode="q" horiz-adv-x="569" 
d="M238 946q0 45 16 59q12 13 31 13q18 0 34 -13q13 -14 13 -59v-721q0 -43 -13 -57q-16 -14 -34 -14q-19 0 -31 14q-16 14 -16 57v721zM528 1171h-196v-69h-4q-23 35 -58 59q-37 23 -84 25q-57 0 -100 -31q-45 -33 -45 -106v-926q0 -70 45 -105q43 -32 100 -32q50 2 86 28
q35 25 56 60h4v-336h196v1433z" />
    <glyph glyph-name="r" unicode="r" horiz-adv-x="569" 
d="M41 0h197v946q0 27 8 49q8 23 43 23q30 0 39 -23q4 -22 4 -49v-387h196v403v89q-2 41 -16 71q-23 62 -135 64q-86 0 -135 -82h-4v67h-197v-1171z" />
    <glyph glyph-name="s" unicode="s" horiz-adv-x="569" 
d="M41 457v-275q0 -90 68 -141q63 -53 176 -55q114 2 180 55q63 51 63 141v238q-2 67 -43 131q-43 61 -100 119q-29 30 -53 57q-25 29 -47 53q-47 51 -47 94v97q0 45 16 59q12 12 31 12q18 0 34 -12q13 -14 13 -59v-224h196v242q0 92 -63 146q-66 51 -180 51
q-113 0 -176 -51q-68 -54 -68 -146v-158q0 -67 47 -129q43 -61 100 -122q58 -62 101 -123q41 -64 43 -135v-121q0 -43 -13 -58q-16 -14 -34 -14q-19 0 -31 14q-16 15 -16 58v256h-197z" />
    <glyph glyph-name="t" unicode="t" horiz-adv-x="342" 
d="M266 1382h-196v-211h-58v-155h58v-860q-2 -39 30 -95q29 -59 117 -61h113v156h-21q-16 -2 -28 16q-15 16 -15 78v766h64v155h-64v211z" />
    <glyph glyph-name="u" unicode="u" horiz-adv-x="569" 
d="M528 1171h-196v-946q0 -24 -6 -47q-9 -24 -45 -24q-29 0 -35 24q-8 23 -8 47v946h-197v-962q-2 -94 18 -156q23 -65 133 -67q87 0 136 82h4v-68h196v1171z" />
    <glyph glyph-name="v" unicode="v" horiz-adv-x="569" 
d="M156 0h245l162 1171h-194l-62 -536q-16 -203 -24 -408h-9q0 258 -26 537l-47 407h-197z" />
    <glyph glyph-name="w" unicode="w" horiz-adv-x="909" 
d="M348 1171l-47 -544q-14 -181 -18 -400h-9q-8 207 -22 393l-43 551h-203l135 -1171h232l53 500q20 225 27 448h4q2 -280 37 -557l47 -391h215l145 1171h-203l-39 -514q-18 -215 -26 -430h-6q-13 236 -27 469l-33 475h-219z" />
    <glyph glyph-name="x" unicode="x" horiz-adv-x="530" 
d="M18 1171l109 -557l-119 -614h189q36 238 59 479h4q25 -231 66 -479h196l-114 618l98 553h-189q-22 -204 -43 -401h-4q-18 199 -55 401h-197z" />
    <glyph glyph-name="y" unicode="y" horiz-adv-x="569" 
d="M143 203q4 -25 11 -56q4 -30 10 -65q10 -70 12 -119q0 -29 -10 -47q-14 -22 -60 -22h-59v-154q55 0 121 -2q123 -2 164 33q39 34 53 159l174 1241h-194l-48 -430q-22 -245 -30 -483h-8q-7 242 -33 524l-43 389h-195z" />
    <glyph glyph-name="z" unicode="z" horiz-adv-x="455" 
d="M8 162v-162h436v156h-241l225 860v155h-420v-155h223z" />
    <glyph glyph-name="braceleft" unicode="{" 
d="M76 569q65 0 121 -49q53 -49 55 -145v-340q0 -55 24 -98q23 -43 56 -74q73 -62 151 -62h160v144h-109q-59 2 -79 37q-23 32 -23 84v333q0 68 -20 113q-19 45 -52 70q-30 24 -61 36q-31 11 -53 13v4q47 4 114 55q33 25 52 68q20 39 20 100v336q0 41 23 80q20 39 79 41h109
v143h-160q-78 0 -151 -57q-33 -29 -56 -72q-24 -45 -24 -104v-342q-2 -88 -55 -136q-56 -51 -121 -51v-127z" />
    <glyph glyph-name="bar" unicode="|" horiz-adv-x="455" 
d="M137 -512h180v2048h-180v-2048z" />
    <glyph glyph-name="braceright" unicode="}" 
d="M39 -199h160q80 0 153 62q76 59 78 172v342q2 90 59 139q54 47 117 47v127q-63 0 -117 51q-57 49 -59 144v340q-2 116 -78 176q-33 30 -73 45q-41 12 -80 12h-160v-143h108q64 0 84 -33q19 -35 19 -88v-334q0 -65 24 -108q21 -45 52 -70q32 -25 63 -37q29 -12 47 -16v-4
q-45 -5 -110 -52q-31 -24 -52 -67q-24 -43 -24 -105v-335q0 -37 -19 -78q-20 -41 -84 -43h-108v-144z" />
    <glyph glyph-name="asciitilde" unicode="~" horiz-adv-x="1024" 
d="M911 747v0q-32 -55 -75 -98q-43 -47 -105 -49q-37 0 -88 25q-51 20 -111 45q-57 28 -116 49q-62 20 -121 20q-100 -2 -162 -55q-61 -53 -94 -121l74 -143v0q24 57 65 102q39 43 107 45q63 0 118 -20q54 -21 105 -49q51 -25 106 -45q56 -25 115 -25q94 0 154 57
q30 27 57 58q25 30 45 61z" />
    <glyph glyph-name="quotesinglbase" unicode="&#x201a;" horiz-adv-x="342" 
d="M127 227l-70 -428h129l129 428h-188z" />
    <glyph glyph-name="florin" unicode="&#x192;" 
d="M645 854v156h-135l39 211q8 28 14 47q4 18 12 30q21 23 82 13l27 151q-64 6 -129 12q-129 0 -170 -79q-25 -39 -39 -105q-14 -67 -31 -155l-20 -125h-162v-156h137l-149 -887q-10 -41 -35 -53q-29 -14 -72 -12l-16 -144q16 -8 53 -14q35 -6 49 -6q187 4 228 196l157 920
h160z" />
    <glyph glyph-name="quotedblbase" unicode="&#x201e;" horiz-adv-x="645" 
d="M149 227l-69 -428h129l129 428h-189zM416 227l-70 -428h129l129 428h-188z" />
    <glyph glyph-name="ellipsis" unicode="&#x2026;" horiz-adv-x="2048" 
d="M442 0v227h-204v-227h204zM1126 0v227h-204v-227h204zM1810 0v227h-204v-227h204z" />
    <glyph glyph-name="dagger" unicode="&#x2020;" 
d="M661 838v174h-219v446h-202v-446h-220v-174h220v-1076h202v1076h219z" />
    <glyph glyph-name="daggerdbl" unicode="&#x2021;" 
d="M20 1026v-174h220v-490h-220v-174h220v-426h202v426h219v174h-219v490h219v174h-219v432h-202v-432h-220z" />
    <glyph glyph-name="circumflex" unicode="&#x2c6;" horiz-adv-x="303" 
d="M0 1296l156 228v0l147 -228h109l-176 350h-164l-181 -350h109z" />
    <glyph glyph-name="perthousand" unicode="&#x2030;" horiz-adv-x="1593" 
d="M367 -16l477 1490h-99l-477 -1490h99zM498 1296q-2 86 -68 125q-63 37 -147 37q-131 -2 -174 -72q-43 -71 -41 -194v-367q0 -94 61 -133q57 -41 145 -41q101 0 160 49q60 45 64 138v458zM233 1259q0 35 11 54q8 18 43 18q39 -2 43 -33q2 -30 2 -61v-361q0 -30 -2 -61
q-2 -14 -13 -25q-8 -12 -30 -12q-37 0 -45 27q-11 22 -9 57v397zM606 174q0 -94 62 -133q57 -41 145 -41q100 0 160 49q59 45 63 137v459q-2 86 -67 125q-64 37 -148 37q-131 -2 -174 -72q-43 -71 -41 -194v-367zM772 608q0 35 10 53q8 19 43 19q39 -2 43 -33q2 -31 2 -61
v-361q0 -30 -2 -61q-2 -15 -12 -25q-8 -12 -31 -12q-37 0 -45 27q-10 22 -8 57v397zM1542 645q-2 86 -68 125q-63 37 -147 37q-131 -2 -174 -72q-43 -71 -41 -194v-367q0 -94 61 -133q58 -41 146 -41q100 0 162 49q59 45 61 137v459zM1278 608q0 35 10 53q8 19 43 19
q39 -2 43 -33q2 -31 2 -61v-361q0 -30 -2 -61q-2 -15 -12 -25q-8 -12 -31 -12q-37 0 -45 27q-10 22 -8 57v397z" />
    <glyph glyph-name="guilsinglleft" unicode="&#x2039;" horiz-adv-x="379" 
d="M330 1026v0l-281 -307v-266l281 -314v0v260l-178 187l178 190v250z" />
    <glyph glyph-name="OE" unicode="&#x152;" horiz-adv-x="909" 
d="M405 242q5 -35 -6 -64q-14 -33 -59 -33q-53 2 -59 43q-11 39 -9 78v975q-4 70 68 72q31 0 45 -11q12 -12 18 -30q5 -39 2 -88v-942zM623 1268h282v190h-231q-156 6 -217 16q-64 11 -121 13q-275 -6 -281 -287v-938q-12 -291 275 -291q51 0 82 6q28 5 55 11q43 12 194 12
h244v190h-282v512h274v191h-274v375z" />
    <glyph glyph-name="quoteleft" unicode="&#x2018;" horiz-adv-x="342" 
d="M215 1458h-188l129 -428h129z" />
    <glyph glyph-name="quoteright" unicode="&#x2019;" horiz-adv-x="342" 
d="M127 1458l-70 -428h129l129 428h-188z" />
    <glyph glyph-name="quotedblleft" unicode="&#x201c;" horiz-adv-x="645" 
d="M229 1458h-188l129 -428h129zM496 1458h-189l129 -428h129z" />
    <glyph glyph-name="quotedblright" unicode="&#x201d;" horiz-adv-x="645" 
d="M149 1458l-69 -428h129l129 428h-189zM416 1458l-70 -428h129l129 428h-188z" />
    <glyph glyph-name="bullet" unicode="&#x2022;" horiz-adv-x="1024" 
d="M870 717q-2 153 -102 256q-102 100 -256 102q-154 -2 -254 -102q-100 -103 -104 -256q2 -154 106 -252q100 -105 252 -107q154 2 256 107q100 100 102 252v0z" />
    <glyph glyph-name="endash" unicode="&#x2013;" horiz-adv-x="1024" 
d="M1024 545v137h-1024v-137h1024z" />
    <glyph glyph-name="emdash" unicode="&#x2014;" horiz-adv-x="2048" 
d="M0 545h2048v137h-2048v-137z" />
    <glyph glyph-name="tilde" unicode="&#x2dc;" horiz-adv-x="303" 
d="M-41 1343q6 33 29 60q22 22 55 24q37 -2 90 -20q55 -21 107 -21q79 2 133 62q51 55 59 135q-2 6 -33 4q-30 0 -43 -2q-8 -39 -26 -57q-21 -21 -64 -21q-39 2 -98 23q-55 20 -94 22q-90 -2 -133 -59q-41 -62 -54 -150h72z" />
    <glyph glyph-name="trademark" unicode="&#x2122;" horiz-adv-x="2027" 
d="M784 1458h-680v-143h250v-701h180v701h250v143zM1450 883l-223 575h-254v-844h168v643h4l239 -643h127l240 643h4v-643h168v844h-254l-219 -575v0z" />
    <glyph glyph-name="guilsinglright" unicode="&#x203a;" horiz-adv-x="379" 
d="M49 1026v-250l178 -190l-178 -187v-260v0l281 314v266l-281 307v0z" />
    <glyph glyph-name="oe" unicode="&#x153;" horiz-adv-x="872" 
d="M629 696h-95v275q0 45 17 59q12 12 31 12q18 0 34 -12q13 -14 13 -59v-275zM825 942q0 244 -237 244q-101 0 -156 -35q-76 35 -162 35q-221 -4 -223 -242v-731q-4 -227 229 -227q95 0 150 30q53 -30 135 -30q143 0 207 53q57 49 57 151v271h-196v-260q0 -43 -13 -58
q-16 -14 -34 -14q-19 0 -31 14q-17 15 -17 58v358h291v383zM244 971q0 45 16 59q12 12 31 12q18 0 35 -12q12 -14 12 -59v-770q0 -43 -12 -58q-17 -14 -35 -14q-19 0 -31 14q-16 15 -16 58v770z" />
    <glyph glyph-name="Ydieresis" unicode="&#x178;" 
d="M8 1458l223 -913v-545h217v555l224 903h-203l-78 -328q-31 -137 -37 -305h-4q-14 168 -47 316l-72 317h-223zM293 1612v199h-184v-199h184zM580 1612v199h-184v-199h184z" />
    <glyph glyph-name="nonbreakingspace" unicode="&#xa0;" horiz-adv-x="340" 
 />
    <glyph glyph-name="exclamdown" unicode="&#xa1;" horiz-adv-x="418" 
d="M106 911v-1140h205v1140h-205zM106 1225v-228h205v228h-205z" />
    <glyph glyph-name="cent" unicode="&#xa2;" 
d="M117 -170h108l37 166q41 -10 86 -10q115 2 180 55q64 51 64 141v279h-197v-275q0 -39 -12 -47q-12 -10 -35 -10q-20 0 -33 10q-14 8 -14 47v785q0 45 16 59q13 12 31 12q19 0 35 -12q12 -14 12 -59v-217h197v235q-2 107 -90 160l47 178h-111l-41 -145q-20 4 -49 4
q-112 0 -176 -51q-68 -54 -68 -146v-807q0 -86 60 -137z" />
    <glyph glyph-name="sterling" unicode="&#xa3;" 
d="M416 1081h217v133q2 136 -58 199q-61 61 -221 61q-307 -2 -301 -296q0 -199 58 -390h-68v-116h94q8 -117 8 -221q0 -80 -20 -154q-23 -74 -86 -145l39 -154q96 6 104 12q8 4 166 -2q88 -8 156 -14q63 -8 155 12l-8 191v0q-51 -23 -92 -23q-45 2 -98 8q-66 10 -133 6
q-68 -4 -97 -12l-4 4q84 74 113 170q22 92 22 203q0 57 -6 119h142v116h-156q-6 29 -35 140q-12 53 -22 112q-15 60 -15 111q0 65 15 106q14 41 59 43q70 -4 72 -79v-140z" />
    <glyph glyph-name="currency" unicode="&#xa4;" 
d="M51 577l58 -59v0l63 66v0q68 -58 172 -58q98 0 166 58v0l63 -66v0l60 59l-64 64q54 70 54 168t-54 166l64 63l-60 60v0l-69 -64v0q-62 53 -160 55q-102 -2 -170 -55v0l-65 64v0l-58 -60l66 -65q-31 -31 -43 -74q-15 -45 -15 -92q0 -96 58 -166zM344 620q-78 0 -129 56
q-55 51 -55 131q0 82 55 135q51 51 129 53q78 -2 129 -55q47 -55 49 -131q-2 -80 -49 -131q-51 -58 -129 -58v0z" />
    <glyph glyph-name="yen" unicode="&#xa5;" 
d="M641 702v119h-123l154 637h-203l-78 -328q-29 -129 -33 -305h-16q-8 191 -39 316l-70 317h-225l150 -639h-123v-117h147l25 -102h-117v-117h139v-483h217v483h140v117h-117l25 102h147z" />
    <glyph glyph-name="section" unicode="&#xa7;" 
d="M598 1159v90q4 238 -250 238q-76 0 -125 -21q-51 -20 -80 -61q-53 -82 -51 -205q-4 -156 96 -270q-139 -84 -141 -246q2 -133 59 -213q56 -80 125 -143q74 -60 127 -129q25 -37 41 -80q15 -45 15 -101q2 -53 -9 -92q-12 -43 -75 -45q-45 2 -60 27q-16 26 -16 69v129h-180
v-126q-2 -107 53 -172q53 -68 195 -70q278 -2 272 289q0 82 -19 149q-20 66 -79 123q67 45 104 113q35 69 35 147q0 64 -15 115q-16 49 -40 90q-56 78 -125 137q-35 33 -66 66q-31 30 -57 67q-58 70 -58 174q0 27 2 51q0 25 5 43q10 39 67 41q45 0 60 -26q10 -27 10 -68v-90
h180zM281 823l57 -57q29 -31 55 -64q29 -32 45 -69q17 -37 17 -76q-2 -80 -45 -139v0q-68 51 -123 121q-58 67 -60 155q0 76 54 129v0z" />
    <glyph glyph-name="dieresis" unicode="&#xa8;" horiz-adv-x="303" 
d="M100 1364v199h-184v-199h184zM387 1364v199h-184v-199h184z" />
    <glyph glyph-name="copyright" unicode="&#xa9;" horiz-adv-x="1638" 
d="M819 -29q322 4 543 211q225 205 231 547q-6 346 -231 551q-221 205 -543 207q-317 -2 -538 -207q-232 -205 -236 -551q4 -342 236 -547q221 -207 538 -211v0zM229 729q2 272 172 440q166 168 418 170q252 -2 418 -170q168 -168 172 -440q-4 -268 -172 -436
q-166 -172 -418 -174q-252 2 -418 174q-170 168 -172 436v0zM1063 600q-33 -172 -215 -176q-121 2 -189 94q-71 90 -71 219q0 135 65 219q66 84 191 86q176 -4 219 -166h149q-24 154 -125 234q-100 80 -245 80q-203 -2 -316 -129q-114 -127 -114 -328q0 -196 120 -323
q117 -131 316 -134q141 0 241 86q103 84 129 238h-155z" />
    <glyph glyph-name="ordfeminine" unicode="&#xaa;" horiz-adv-x="342" 
d="M133 1069q0 16 10 25q9 10 15 18q14 14 49 29v-244q-12 -25 -35 -29q-12 0 -23 6q-12 7 -16 17v178zM328 1380q-2 64 -54 86q-53 21 -112 21q-51 0 -99 -21q-49 -22 -51 -86v-131h123v72q2 20 6 47q4 25 33 27q25 -2 29 -23q4 -22 4 -41q2 -45 -27 -70q-28 -24 -67 -45
q-39 -20 -68 -47q-33 -28 -33 -84v-237q0 -80 88 -80q39 0 62 14q20 13 39 41h2q-2 -22 8 -47h117v604z" />
    <glyph glyph-name="guillemotleft" unicode="&#xab;" 
d="M647 1026v0l-280 -307v-266l280 -314v0v260l-178 187l178 190v250zM313 1026v0l-280 -307v-266l280 -314v0v260l-178 187l178 190v250z" />
    <glyph glyph-name="logicalnot" unicode="&#xac;" horiz-adv-x="1024" 
d="M833 315h181v570h-1004v-181h823v-389z" />
    <glyph glyph-name="registered" unicode="&#xae;" horiz-adv-x="1638" 
d="M819 -29q322 4 543 211q225 205 231 547q-6 346 -231 551q-221 205 -543 207q-317 -2 -538 -207q-232 -205 -236 -551q4 -342 236 -547q221 -207 538 -211v0zM229 729q2 272 172 440q166 168 418 170q252 -2 418 -170q168 -168 172 -440q-4 -268 -172 -436
q-166 -172 -418 -174q-252 2 -418 174q-170 168 -172 436v0zM672 682h125l215 -369h163l-235 375q102 10 166 64q63 53 63 167q-2 256 -323 252h-324v-858h150v369zM672 805v244h159q68 0 123 -21q56 -23 58 -96q-2 -82 -54 -105q-51 -24 -129 -22h-157z" />
    <glyph glyph-name="macron" unicode="&#xaf;" horiz-adv-x="303" 
d="M-82 1517v-131h469v131h-469z" />
    <glyph glyph-name="degree" unicode="&#xb0;" horiz-adv-x="819" 
d="M410 960q-84 0 -136 60q-55 55 -55 139q0 86 55 143q52 54 136 56q86 -2 139 -56q51 -57 51 -143q0 -84 -51 -139q-53 -60 -139 -60v0zM410 860q127 2 213 90q84 84 86 209q-2 127 -86 213q-86 84 -213 86q-125 -2 -209 -86q-88 -86 -90 -213q2 -125 90 -209
q84 -88 209 -90v0z" />
    <glyph glyph-name="plusminus" unicode="&#xb1;" horiz-adv-x="1024" 
d="M422 797h-412v-181h412v-292h180v292h412v181h-412v290h-180v-290zM10 84h1004v180h-1004v-180z" />
    <glyph glyph-name="acute" unicode="&#xb4;" horiz-adv-x="303" 
d="M14 1296h111l283 350h-203z" />
    <glyph glyph-name="mu" unicode="&#xb5;" horiz-adv-x="569" 
d="M528 1171h-196v-946q0 -24 -6 -47q-9 -24 -45 -24q-29 0 -35 24q-8 23 -8 47v946h-197v-1433h197v256q57 14 90 74h4v-68h196v1171z" />
    <glyph glyph-name="paragraph" unicode="&#xb6;" horiz-adv-x="1229" 
d="M498 -367h180v1682h121v-1682h180v1682h180v143h-180h-440q-220 0 -349 -84q-133 -90 -135 -297q0 -164 121 -262q117 -102 322 -104v-1078z" />
    <glyph glyph-name="periodcentered" unicode="&#xb7;" horiz-adv-x="340" 
d="M61 586q0 -47 33 -78q29 -33 76 -33t80 33q29 31 31 78q-2 47 -31 78q-33 28 -80 30q-47 -2 -76 -30q-33 -31 -33 -78v0z" />
    <glyph glyph-name="periodcentered" unicode="&#x2219;" horiz-adv-x="340" 
d="M61 586q0 -47 33 -78q29 -33 76 -33t80 33q29 31 31 78q-2 47 -31 78q-33 28 -80 30q-47 -2 -76 -30q-33 -31 -33 -78v0z" />
    <glyph glyph-name="cedilla" unicode="&#xb8;" horiz-adv-x="303" 
d="M55 -176q21 6 54 6q49 0 77 -20q29 -25 25 -80q-8 -45 -47 -64q-39 -20 -82 -20q-64 2 -123 26q-16 -41 -27 -53q-10 -12 37 -24q68 -19 135 -19q88 0 170 37q39 22 64 55q22 33 22 82q-2 76 -49 113q-49 33 -116 33q-27 0 -50 -5l31 97h-61z" />
    <glyph glyph-name="ordmasculine" unicode="&#xba;" horiz-adv-x="342" 
d="M133 1352q0 16 10 30q9 13 29 13q29 0 33 -41q2 -41 2 -146v-303q0 -16 -8 -29q-9 -16 -31 -16q-21 0 -27 14q-8 15 -8 27v451zM12 903q-6 -137 152 -135q94 0 131 41q33 41 33 117v446q-2 72 -54 94q-51 21 -110 21q-74 0 -111 -35q-41 -35 -41 -94v-455z" />
    <glyph glyph-name="guillemotright" unicode="&#xbb;" 
d="M33 1026v-250l178 -190l-178 -187v-260v0l280 314v266l-280 307v0zM367 1026v-250l178 -190l-178 -187v-260v0l280 314v266l-280 307v0z" />
    <glyph glyph-name="questiondown" unicode="&#xbf;" 
d="M395 283v-322q0 -45 -10 -61q-12 -19 -43 -19q-37 0 -45 19q-10 16 -10 55v203q0 61 35 121l96 194q22 57 22 127v311h-204v-227q0 -119 -23 -170l-100 -197q-13 -26 -17 -67q-6 -45 -6 -92v-164q0 -150 72 -203q69 -53 186 -53q244 0 244 221v324h-197zM236 1225v-228
h204v228h-204z" />
    <glyph glyph-name="Agrave" unicode="&#xc0;" 
d="M276 586l54 606h14l45 -606h-113zM12 0h197l47 395h154l41 -395h219l-166 1458h-326zM291 1894h-202l282 -350h111z" />
    <glyph glyph-name="Aacute" unicode="&#xc1;" 
d="M276 586l54 606h14l45 -606h-113zM12 0h197l47 395h154l41 -395h219l-166 1458h-326zM209 1544h111l283 350h-203z" />
    <glyph glyph-name="Acircumflex" unicode="&#xc2;" 
d="M276 586l54 606h14l45 -606h-113zM12 0h197l47 395h154l41 -395h219l-166 1458h-326zM194 1544l156 228v0l147 -228h109l-176 350h-164l-181 -350h109z" />
    <glyph glyph-name="Atilde" unicode="&#xc3;" 
d="M276 586l54 606h14l45 -606h-113zM12 0h197l47 395h154l41 -395h219l-166 1458h-326zM153 1591q6 33 29 60q22 22 55 24q37 -2 90 -20q55 -21 107 -21q79 2 133 62q51 55 59 135q-2 6 -33 4q-30 0 -43 -2q-8 -39 -26 -57q-21 -21 -64 -21q-39 2 -98 23q-55 20 -94 22
q-90 -2 -133 -59q-41 -62 -54 -150h72z" />
    <glyph glyph-name="Adieresis" unicode="&#xc4;" 
d="M276 586l54 606h14l45 -606h-113zM12 0h197l47 395h154l41 -395h219l-166 1458h-326zM293 1612v199h-184v-199h184zM580 1612v199h-184v-199h184z" />
    <glyph glyph-name="Aring" unicode="&#xc5;" 
d="M276 586l54 606h14l45 -606h-113zM12 0h197l47 395h154l41 -395h219l-166 1458h-326zM269 1704q0 33 26 57q23 23 52 23q32 0 55 -23q22 -24 22 -57q0 -31 -22 -53q-23 -27 -55 -27q-29 0 -52 27q-26 22 -26 53v0zM177 1704q2 -72 51 -121q47 -53 119 -53q73 0 120 53
q47 49 50 121q-3 76 -50 125q-47 47 -120 49q-72 -2 -119 -49q-49 -49 -51 -125v0z" />
    <glyph glyph-name="AE" unicode="&#xc6;" horiz-adv-x="985" 
d="M334 586l112 682h19v-682h-131zM211 0l82 395h172v-395h497v190h-280v512h270v191h-270v375h285v190h-664l-303 -1458h211z" />
    <glyph glyph-name="Ccedilla" unicode="&#xc7;" 
d="M408 551v-315q0 -54 -15 -72q-18 -21 -51 -19q-33 -2 -49 19q-19 18 -19 72v987q0 53 19 73q16 17 49 17t51 -17q15 -20 15 -73v-297h217v315q0 74 -25 121q-25 49 -66 76q-88 51 -194 49q-49 0 -98 -10q-50 -13 -90 -39q-41 -27 -66 -76q-29 -47 -29 -121v-1024
q2 -123 78 -180q35 -27 78 -43q43 -14 86 -21l-53 -149q20 6 53 6q49 0 78 -20q28 -25 24 -80q-8 -45 -47 -64q-39 -20 -82 -20q-63 2 -123 26q-16 -41 -26 -53t37 -24q67 -19 135 -19q88 0 170 37q39 22 63 55q23 33 23 82q-2 76 -49 113q-49 33 -117 33q-27 0 -49 -5
l24 82q103 2 183 58q80 53 82 186v334h-217z" />
    <glyph glyph-name="Egrave" unicode="&#xc8;" horiz-adv-x="569" 
d="M551 0v190h-270v512h256v191h-256v375h266v190h-484v-1458h488zM229 1894h-202l282 -350h111z" />
    <glyph glyph-name="Eacute" unicode="&#xc9;" horiz-adv-x="569" 
d="M551 0v190h-270v512h256v191h-256v375h266v190h-484v-1458h488zM150 1544h111l283 350h-203z" />
    <glyph glyph-name="Ecircumflex" unicode="&#xca;" horiz-adv-x="569" 
d="M551 0v190h-270v512h256v191h-256v375h266v190h-484v-1458h488zM132 1544l156 228v0l147 -228h109l-176 350h-164l-181 -350h109z" />
    <glyph glyph-name="Edieresis" unicode="&#xcb;" horiz-adv-x="569" 
d="M551 0v190h-270v512h256v191h-256v375h266v190h-484v-1458h488zM233 1612v199h-184v-199h184zM520 1612v199h-184v-199h184z" />
    <glyph glyph-name="Igrave" unicode="&#xcc;" horiz-adv-x="342" 
d="M279 0v1458h-218v-1458h218zM114 1894h-202l282 -350h111z" />
    <glyph glyph-name="Iacute" unicode="&#xcd;" horiz-adv-x="342" 
d="M279 0v1458h-218v-1458h218zM33 1544h111l283 350h-203z" />
    <glyph glyph-name="Icircumflex" unicode="&#xce;" horiz-adv-x="342" 
d="M279 0v1458h-218v-1458h218zM17 1544l156 228v0l147 -228h109l-176 350h-164l-181 -350h109z" />
    <glyph glyph-name="Idieresis" unicode="&#xcf;" horiz-adv-x="342" 
d="M279 0v1458h-218v-1458h218zM116 1612v199h-184v-199h184zM403 1612v199h-184v-199h184z" />
    <glyph glyph-name="Ntilde" unicode="&#xd1;" horiz-adv-x="797" 
d="M63 1458v-1458h179v1057q-6 92 -6 188h8q20 -252 65 -516l103 -729h321v1458h-178v-741q2 -213 6 -426v-78h-8q-29 416 -102 825l-62 420h-326zM210 1591q6 33 29 60q22 22 55 24q37 -2 90 -20q55 -21 107 -21q79 2 133 62q51 55 59 135q-2 6 -33 4q-30 0 -43 -2
q-8 -39 -26 -57q-21 -21 -64 -21q-39 2 -98 23q-55 20 -94 22q-90 -2 -133 -59q-41 -62 -54 -150h72z" />
    <glyph glyph-name="Ograve" unicode="&#xd2;" 
d="M274 1223q0 53 19 73q16 17 49 17t51 -17q15 -20 15 -73v-987q0 -54 -15 -72q-18 -21 -51 -19q-33 -2 -49 19q-19 18 -19 72v987zM57 217q2 -139 95 -192q40 -27 90 -39q49 -15 98 -15q53 0 104 15q50 12 90 39q41 26 66 75q25 47 25 117v1024q0 74 -25 121
q-25 49 -66 76q-88 51 -194 49q-49 0 -98 -10q-50 -13 -90 -39q-41 -27 -66 -76q-29 -47 -29 -121v-1024zM289 1894h-202l282 -350h111z" />
    <glyph glyph-name="Oacute" unicode="&#xd3;" 
d="M274 1223q0 53 19 73q16 17 49 17t51 -17q15 -20 15 -73v-987q0 -54 -15 -72q-18 -21 -51 -19q-33 -2 -49 19q-19 18 -19 72v987zM57 217q2 -139 95 -192q40 -27 90 -39q49 -15 98 -15q53 0 104 15q50 12 90 39q41 26 66 75q25 47 25 117v1024q0 74 -25 121
q-25 49 -66 76q-88 51 -194 49q-49 0 -98 -10q-50 -13 -90 -39q-41 -27 -66 -76q-29 -47 -29 -121v-1024zM208 1544h111l283 350h-203z" />
    <glyph glyph-name="Ocircumflex" unicode="&#xd4;" 
d="M274 1223q0 53 19 73q16 17 49 17t51 -17q15 -20 15 -73v-987q0 -54 -15 -72q-18 -21 -51 -19q-33 -2 -49 19q-19 18 -19 72v987zM57 217q2 -139 95 -192q40 -27 90 -39q49 -15 98 -15q53 0 104 15q50 12 90 39q41 26 66 75q25 47 25 117v1024q0 74 -25 121
q-25 49 -66 76q-88 51 -194 49q-49 0 -98 -10q-50 -13 -90 -39q-41 -27 -66 -76q-29 -47 -29 -121v-1024zM192 1544l156 228v0l147 -228h109l-176 350h-164l-181 -350h109z" />
    <glyph glyph-name="Otilde" unicode="&#xd5;" 
d="M274 1223q0 53 19 73q16 17 49 17t51 -17q15 -20 15 -73v-987q0 -54 -15 -72q-18 -21 -51 -19q-33 -2 -49 19q-19 18 -19 72v987zM57 217q2 -139 95 -192q40 -27 90 -39q49 -15 98 -15q53 0 104 15q50 12 90 39q41 26 66 75q25 47 25 117v1024q0 74 -25 121
q-25 49 -66 76q-88 51 -194 49q-49 0 -98 -10q-50 -13 -90 -39q-41 -27 -66 -76q-29 -47 -29 -121v-1024zM149 1591q6 33 29 60q22 22 55 24q37 -2 90 -20q55 -21 107 -21q79 2 133 62q51 55 59 135q-2 6 -33 4q-30 0 -43 -2q-8 -39 -26 -57q-21 -21 -64 -21q-39 2 -98 23
q-55 20 -94 22q-90 -2 -133 -59q-41 -62 -54 -150h72z" />
    <glyph glyph-name="Odieresis" unicode="&#xd6;" 
d="M274 1223q0 53 19 73q16 17 49 17t51 -17q15 -20 15 -73v-987q0 -54 -15 -72q-18 -21 -51 -19q-33 -2 -49 19q-19 18 -19 72v987zM57 217q2 -139 95 -192q40 -27 90 -39q49 -15 98 -15q53 0 104 15q50 12 90 39q41 26 66 75q25 47 25 117v1024q0 74 -25 121
q-25 49 -66 76q-88 51 -194 49q-49 0 -98 -10q-50 -13 -90 -39q-41 -27 -66 -76q-29 -47 -29 -121v-1024zM291 1612v199h-184v-199h184zM578 1612v199h-184v-199h184z" />
    <glyph glyph-name="Oslash" unicode="&#xd8;" 
d="M279 704h-5v519q0 53 19 73q16 17 49 17t51 -17q15 -20 15 -73v-138zM403 731h5v-495q0 -54 -15 -72q-18 -21 -51 -19q-33 -2 -49 19q-19 18 -19 72v112zM57 217q0 -53 15 -90l-76 -219h125l39 108v0q84 -45 180 -45q53 0 104 15q50 12 90 39q41 26 66 75q25 47 25 117
v1024q0 47 -13 80l74 211h-123l-33 -96v0q-84 51 -190 51q-49 0 -98 -10q-50 -13 -90 -39q-41 -27 -66 -76q-29 -47 -29 -121v-1024z" />
    <glyph glyph-name="Ugrave" unicode="&#xd9;" 
d="M408 1458v-1222q0 -54 -15 -72q-18 -21 -51 -19q-33 -2 -49 19q-19 18 -19 72v1222h-217v-1241q2 -139 95 -192q40 -27 90 -39q49 -15 98 -15q53 0 104 15q50 12 90 39q41 26 66 75q25 47 25 117v1241h-217zM289 1894h-202l282 -350h111z" />
    <glyph glyph-name="Uacute" unicode="&#xda;" 
d="M408 1458v-1222q0 -54 -15 -72q-18 -21 -51 -19q-33 -2 -49 19q-19 18 -19 72v1222h-217v-1241q2 -139 95 -192q40 -27 90 -39q49 -15 98 -15q53 0 104 15q50 12 90 39q41 26 66 75q25 47 25 117v1241h-217zM208 1544h111l283 350h-203z" />
    <glyph glyph-name="Ucircumflex" unicode="&#xdb;" 
d="M408 1458v-1222q0 -54 -15 -72q-18 -21 -51 -19q-33 -2 -49 19q-19 18 -19 72v1222h-217v-1241q2 -139 95 -192q40 -27 90 -39q49 -15 98 -15q53 0 104 15q50 12 90 39q41 26 66 75q25 47 25 117v1241h-217zM192 1544l156 228v0l147 -228h109l-176 350h-164l-181 -350
h109z" />
    <glyph glyph-name="Udieresis" unicode="&#xdc;" 
d="M408 1458v-1222q0 -54 -15 -72q-18 -21 -51 -19q-33 -2 -49 19q-19 18 -19 72v1222h-217v-1241q2 -139 95 -192q40 -27 90 -39q49 -15 98 -15q53 0 104 15q50 12 90 39q41 26 66 75q25 47 25 117v1241h-217zM291 1612v199h-184v-199h184zM578 1612v199h-184v-199h184z
" />
    <glyph glyph-name="germandbls" unicode="&#xdf;" horiz-adv-x="569" 
d="M285 -14q84 -6 135 10q49 16 76 53q26 39 34 94q7 56 7 129v344q2 74 -7 121q-12 47 -65 82q-31 21 -29 23q39 16 58 45q18 26 22 63v244q0 55 -2 102q-6 47 -27 84q-20 37 -69 60q-51 18 -142 18q-104 0 -167 -57q-68 -62 -68 -207v-1194h197v1251q0 27 10 45
q8 19 35 19q39 -2 36 -47v-318q0 -16 -8 -28q-8 -13 -26 -13v-143q41 -6 55 -43v-533q-2 -63 -55 -61v-143z" />
    <glyph glyph-name="agrave" unicode="&#xe0;" horiz-adv-x="569" 
d="M332 606v-405q-2 -41 -47 -47q-41 0 -47 38v295q0 45 28 72q25 25 66 47v0zM528 989q0 92 -63 146q-66 51 -180 51q-113 0 -176 -51q-68 -54 -68 -146v-235h199v153q-2 37 4 84q2 23 14 39q8 12 29 12q35 -2 39 -45v-71q-2 -107 -43 -154q-41 -49 -99 -74
q-53 -24 -96 -61q-47 -37 -47 -123v-393q0 -133 133 -135q59 0 94 24q31 21 60 70h4q-2 -41 12 -80h184v989zM231 1646h-202l282 -350h111z" />
    <glyph glyph-name="aacute" unicode="&#xe1;" horiz-adv-x="569" 
d="M332 606v-405q-2 -41 -47 -47q-41 0 -47 38v295q0 45 28 72q25 25 66 47v0zM528 989q0 92 -63 146q-66 51 -180 51q-113 0 -176 -51q-68 -54 -68 -146v-235h199v153q-2 37 4 84q2 23 14 39q8 12 29 12q35 -2 39 -45v-71q-2 -107 -43 -154q-41 -49 -99 -74
q-53 -24 -96 -61q-47 -37 -47 -123v-393q0 -133 133 -135q59 0 94 24q31 21 60 70h4q-2 -41 12 -80h184v989zM150 1296h111l283 350h-203z" />
    <glyph glyph-name="acircumflex" unicode="&#xe2;" horiz-adv-x="569" 
d="M332 606v-405q-2 -41 -47 -47q-41 0 -47 38v295q0 45 28 72q25 25 66 47v0zM528 989q0 92 -63 146q-66 51 -180 51q-113 0 -176 -51q-68 -54 -68 -146v-235h199v153q-2 37 4 84q2 23 14 39q8 12 29 12q35 -2 39 -45v-71q-2 -107 -43 -154q-41 -49 -99 -74
q-53 -24 -96 -61q-47 -37 -47 -123v-393q0 -133 133 -135q59 0 94 24q31 21 60 70h4q-2 -41 12 -80h184v989zM134 1296l156 228v0l147 -228h109l-176 350h-164l-181 -350h109z" />
    <glyph glyph-name="atilde" unicode="&#xe3;" horiz-adv-x="569" 
d="M332 606v-405q-2 -41 -47 -47q-41 0 -47 38v295q0 45 28 72q25 25 66 47v0zM528 989q0 92 -63 146q-66 51 -180 51q-113 0 -176 -51q-68 -54 -68 -146v-235h199v153q-2 37 4 84q2 23 14 39q8 12 29 12q35 -2 39 -45v-71q-2 -107 -43 -154q-41 -49 -99 -74
q-53 -24 -96 -61q-47 -37 -47 -123v-393q0 -133 133 -135q59 0 94 24q31 21 60 70h4q-2 -41 12 -80h184v989zM93 1343q6 33 29 60q22 22 55 24q37 -2 90 -20q55 -21 107 -21q79 2 133 62q51 55 59 135q-2 6 -33 4q-30 0 -43 -2q-8 -39 -26 -57q-21 -21 -64 -21q-39 2 -98 23
q-55 20 -94 22q-90 -2 -133 -59q-41 -62 -54 -150h72z" />
    <glyph glyph-name="adieresis" unicode="&#xe4;" horiz-adv-x="569" 
d="M332 606v-405q-2 -41 -47 -47q-41 0 -47 38v295q0 45 28 72q25 25 66 47v0zM528 989q0 92 -63 146q-66 51 -180 51q-113 0 -176 -51q-68 -54 -68 -146v-235h199v153q-2 37 4 84q2 23 14 39q8 12 29 12q35 -2 39 -45v-71q-2 -107 -43 -154q-41 -49 -99 -74
q-53 -24 -96 -61q-47 -37 -47 -123v-393q0 -133 133 -135q59 0 94 24q31 21 60 70h4q-2 -41 12 -80h184v989zM233 1364v199h-184v-199h184zM520 1364v199h-184v-199h184z" />
    <glyph glyph-name="aring" unicode="&#xe5;" horiz-adv-x="569" 
d="M332 606v-405q-2 -41 -47 -47q-41 0 -47 38v295q0 45 28 72q25 25 66 47v0zM528 989q0 92 -63 146q-66 51 -180 51q-113 0 -176 -51q-68 -54 -68 -146v-235h199v153q-2 37 4 84q2 23 14 39q8 12 29 12q35 -2 39 -45v-71q-2 -107 -43 -154q-41 -49 -99 -74
q-53 -24 -96 -61q-47 -37 -47 -123v-393q0 -133 133 -135q59 0 94 24q31 21 60 70h4q-2 -41 12 -80h184v989zM210 1456q0 33 26 57q23 23 52 23q32 0 55 -23q22 -24 22 -57q0 -31 -22 -53q-23 -27 -55 -27q-29 0 -52 27q-26 22 -26 53v0zM118 1456q2 -72 51 -121
q47 -53 119 -53q73 0 120 53q47 49 50 121q-3 76 -50 125q-47 47 -120 49q-72 -2 -119 -49q-49 -49 -51 -125v0z" />
    <glyph glyph-name="ae" unicode="&#xe6;" horiz-adv-x="872" 
d="M629 696h-95v211q0 41 3 88q2 45 49 47q41 -2 43 -45q2 -18 2 -37q-2 -20 -2 -36v-228zM338 606v-405q-2 -41 -47 -47q-41 0 -47 38v295q0 45 28 72q25 25 66 47v0zM825 942q0 244 -237 244q-99 0 -152 -33q-35 18 -74 27q-40 6 -71 6q-113 0 -176 -51q-68 -54 -68 -146
v-235h199v153q-2 37 4 84q2 23 14 39q8 12 29 12q35 -2 39 -45v-71q-2 -107 -43 -154q-41 -49 -99 -74q-53 -24 -96 -61q-47 -37 -47 -123v-393q0 -133 133 -135q142 2 168 133h4q37 -133 209 -133q143 0 207 53q57 49 57 151v271h-196v-260q0 -43 -13 -58q-16 -14 -34 -14
q-19 0 -31 14q-17 15 -17 58v358h291v383z" />
    <glyph glyph-name="ccedilla" unicode="&#xe7;" horiz-adv-x="569" 
d="M332 461v-275q0 -39 -13 -47q-12 -10 -34 -10q-21 0 -33 10q-14 8 -14 47v785q0 45 16 59q12 12 31 12q18 0 34 -12q13 -14 13 -59v-217h196v235q0 92 -63 146q-66 51 -180 51q-113 0 -176 -51q-68 -54 -68 -146v-809q4 -170 203 -194l-56 -162q21 6 54 6q49 0 77 -20
q29 -25 25 -80q-8 -45 -47 -64q-39 -20 -82 -20q-63 2 -123 26q-16 -41 -26 -53q-11 -12 36 -24q68 -19 136 -19q88 0 170 37q38 22 63 55q23 33 23 82q-3 76 -50 113q-49 33 -116 33q-27 0 -49 -5l26 95q219 16 223 194v281h-196z" />
    <glyph glyph-name="egrave" unicode="&#xe8;" horiz-adv-x="569" 
d="M332 461v-275q0 -39 -13 -47q-12 -10 -34 -10q-21 0 -33 10q-14 8 -14 47v373h290v430q0 92 -63 146q-66 51 -180 51q-113 0 -176 -51q-68 -54 -68 -146v-807q0 -90 68 -141q63 -53 176 -55q114 2 180 55q63 51 63 141v279h-196zM332 696h-94v289q0 39 14 49q12 8 33 8
q22 0 34 -8q13 -10 13 -49v-289zM231 1646h-202l282 -350h111z" />
    <glyph glyph-name="eacute" unicode="&#xe9;" horiz-adv-x="569" 
d="M332 461v-275q0 -39 -13 -47q-12 -10 -34 -10q-21 0 -33 10q-14 8 -14 47v373h290v430q0 92 -63 146q-66 51 -180 51q-113 0 -176 -51q-68 -54 -68 -146v-807q0 -90 68 -141q63 -53 176 -55q114 2 180 55q63 51 63 141v279h-196zM332 696h-94v289q0 39 14 49q12 8 33 8
q22 0 34 -8q13 -10 13 -49v-289zM150 1296h111l283 350h-203z" />
    <glyph glyph-name="ecircumflex" unicode="&#xea;" horiz-adv-x="569" 
d="M332 461v-275q0 -39 -13 -47q-12 -10 -34 -10q-21 0 -33 10q-14 8 -14 47v373h290v430q0 92 -63 146q-66 51 -180 51q-113 0 -176 -51q-68 -54 -68 -146v-807q0 -90 68 -141q63 -53 176 -55q114 2 180 55q63 51 63 141v279h-196zM332 696h-94v289q0 39 14 49q12 8 33 8
q22 0 34 -8q13 -10 13 -49v-289zM134 1296l156 228v0l147 -228h109l-176 350h-164l-181 -350h109z" />
    <glyph glyph-name="edieresis" unicode="&#xeb;" horiz-adv-x="569" 
d="M332 461v-275q0 -39 -13 -47q-12 -10 -34 -10q-21 0 -33 10q-14 8 -14 47v373h290v430q0 92 -63 146q-66 51 -180 51q-113 0 -176 -51q-68 -54 -68 -146v-807q0 -90 68 -141q63 -53 176 -55q114 2 180 55q63 51 63 141v279h-196zM332 696h-94v289q0 39 14 49q12 8 33 8
q22 0 34 -8q13 -10 13 -49v-289zM233 1364v199h-184v-199h184zM520 1364v199h-184v-199h184z" />
    <glyph glyph-name="igrave" unicode="&#xec;" horiz-adv-x="303" 
d="M250 0v1171h-197v-1171h197zM94 1646h-202l282 -350h111z" />
    <glyph glyph-name="iacute" unicode="&#xed;" horiz-adv-x="303" 
d="M250 0v1171h-197v-1171h197zM14 1296h111l283 350h-203z" />
    <glyph glyph-name="icircumflex" unicode="&#xee;" horiz-adv-x="303" 
d="M250 0v1171h-197v-1171h197zM-3 1296l156 228v0l147 -228h109l-176 350h-164l-181 -350h109z" />
    <glyph glyph-name="idieresis" unicode="&#xef;" horiz-adv-x="303" 
d="M250 0v1171h-197v-1171h197zM98 1364v199h-184v-199h184zM385 1364v199h-184v-199h184z" />
    <glyph glyph-name="ntilde" unicode="&#xf1;" horiz-adv-x="569" 
d="M41 0h197v946q0 27 8 49q8 23 43 23q30 0 39 -23q4 -22 4 -49v-946h196v975q2 94 -18 153q-23 58 -133 58q-86 0 -135 -82h-4v67h-197v-1171zM93 1343q6 33 29 60q22 22 55 24q37 -2 90 -20q55 -21 107 -21q79 2 133 62q51 55 59 135q-2 6 -33 4q-30 0 -43 -2
q-8 -39 -26 -57q-21 -21 -64 -21q-39 2 -98 23q-55 20 -94 22q-90 -2 -133 -59q-41 -62 -54 -150h72z" />
    <glyph glyph-name="ograve" unicode="&#xf2;" horiz-adv-x="569" 
d="M528 989q0 92 -63 146q-66 51 -180 51q-113 0 -176 -51q-68 -54 -68 -146v-807q0 -90 68 -141q63 -53 176 -55q114 2 180 55q63 51 63 141v807zM332 186q0 -39 -13 -47q-12 -10 -34 -10q-21 0 -33 10q-14 8 -14 47v799q0 39 14 49q12 8 33 8q22 0 34 -8q13 -10 13 -49
v-799zM231 1646h-202l282 -350h111z" />
    <glyph glyph-name="oacute" unicode="&#xf3;" horiz-adv-x="569" 
d="M528 989q0 92 -63 146q-66 51 -180 51q-113 0 -176 -51q-68 -54 -68 -146v-807q0 -90 68 -141q63 -53 176 -55q114 2 180 55q63 51 63 141v807zM332 186q0 -39 -13 -47q-12 -10 -34 -10q-21 0 -33 10q-14 8 -14 47v799q0 39 14 49q12 8 33 8q22 0 34 -8q13 -10 13 -49
v-799zM150 1296h111l283 350h-203z" />
    <glyph glyph-name="ocircumflex" unicode="&#xf4;" horiz-adv-x="569" 
d="M528 989q0 92 -63 146q-66 51 -180 51q-113 0 -176 -51q-68 -54 -68 -146v-807q0 -90 68 -141q63 -53 176 -55q114 2 180 55q63 51 63 141v807zM332 186q0 -39 -13 -47q-12 -10 -34 -10q-21 0 -33 10q-14 8 -14 47v799q0 39 14 49q12 8 33 8q22 0 34 -8q13 -10 13 -49
v-799zM134 1296l156 228v0l147 -228h109l-176 350h-164l-181 -350h109z" />
    <glyph glyph-name="otilde" unicode="&#xf5;" horiz-adv-x="569" 
d="M528 989q0 92 -63 146q-66 51 -180 51q-113 0 -176 -51q-68 -54 -68 -146v-807q0 -90 68 -141q63 -53 176 -55q114 2 180 55q63 51 63 141v807zM332 186q0 -39 -13 -47q-12 -10 -34 -10q-21 0 -33 10q-14 8 -14 47v799q0 39 14 49q12 8 33 8q22 0 34 -8q13 -10 13 -49
v-799zM93 1343q6 33 29 60q22 22 55 24q37 -2 90 -20q55 -21 107 -21q79 2 133 62q51 55 59 135q-2 6 -33 4q-30 0 -43 -2q-8 -39 -26 -57q-21 -21 -64 -21q-39 2 -98 23q-55 20 -94 22q-90 -2 -133 -59q-41 -62 -54 -150h72z" />
    <glyph glyph-name="odieresis" unicode="&#xf6;" horiz-adv-x="569" 
d="M528 989q0 92 -63 146q-66 51 -180 51q-113 0 -176 -51q-68 -54 -68 -146v-807q0 -90 68 -141q63 -53 176 -55q114 2 180 55q63 51 63 141v807zM332 186q0 -39 -13 -47q-12 -10 -34 -10q-21 0 -33 10q-14 8 -14 47v799q0 39 14 49q12 8 33 8q22 0 34 -8q13 -10 13 -49
v-799zM233 1364v199h-184v-199h184zM520 1364v199h-184v-199h184z" />
    <glyph glyph-name="divide" unicode="&#xf7;" horiz-adv-x="1024" 
d="M1014 496v180h-1004v-180h1004zM360 1014q0 -64 50 -109q45 -47 110 -47q64 2 109 49q43 45 45 107q-2 65 -47 110t-109 47q-65 0 -110 -45q-48 -45 -48 -112v0zM360 158q0 -64 50 -109q45 -49 110 -49q64 0 109 51q43 45 45 107q-2 65 -47 110t-109 45q-65 0 -110 -45
q-48 -45 -48 -110v0z" />
    <glyph glyph-name="oslash" unicode="&#xf8;" horiz-adv-x="569" 
d="M328 559h4v-373q0 -39 -13 -47q-12 -10 -34 -10q-21 0 -33 10q-14 8 -14 47v103zM242 598h-4v387q0 39 14 49q12 8 33 8q22 0 34 -8q13 -10 13 -49v-119zM528 989q0 43 -18 80l63 178h-108l-33 -94q-59 33 -147 33q-113 0 -176 -51q-68 -54 -68 -146v-807q0 -49 20 -86
l-59 -170h109l30 90q58 -30 144 -30q114 2 180 55q63 51 63 141v807z" />
    <glyph glyph-name="ugrave" unicode="&#xf9;" horiz-adv-x="569" 
d="M528 1171h-196v-946q0 -24 -6 -47q-9 -24 -45 -24q-29 0 -35 24q-8 23 -8 47v946h-197v-962q-2 -94 18 -156q23 -65 133 -67q87 0 136 82h4v-68h196v1171zM229 1646h-202l282 -350h111z" />
    <glyph glyph-name="uacute" unicode="&#xfa;" horiz-adv-x="569" 
d="M528 1171h-196v-946q0 -24 -6 -47q-9 -24 -45 -24q-29 0 -35 24q-8 23 -8 47v946h-197v-962q-2 -94 18 -156q23 -65 133 -67q87 0 136 82h4v-68h196v1171zM148 1296h111l283 350h-203z" />
    <glyph glyph-name="ucircumflex" unicode="&#xfb;" horiz-adv-x="569" 
d="M528 1171h-196v-946q0 -24 -6 -47q-9 -24 -45 -24q-29 0 -35 24q-8 23 -8 47v946h-197v-962q-2 -94 18 -156q23 -65 133 -67q87 0 136 82h4v-68h196v1171zM132 1296l156 228v0l147 -228h109l-176 350h-164l-181 -350h109z" />
    <glyph glyph-name="udieresis" unicode="&#xfc;" horiz-adv-x="569" 
d="M528 1171h-196v-946q0 -24 -6 -47q-9 -24 -45 -24q-29 0 -35 24q-8 23 -8 47v946h-197v-962q-2 -94 18 -156q23 -65 133 -67q87 0 136 82h4v-68h196v1171zM231 1364v199h-184v-199h184zM518 1364v199h-184v-199h184z" />
    <glyph glyph-name="ydieresis" unicode="&#xff;" horiz-adv-x="569" 
d="M143 203q4 -25 11 -56q4 -30 10 -65q10 -70 12 -119q0 -29 -10 -47q-14 -22 -60 -22h-59v-154q55 0 121 -2q123 -2 164 33q39 34 53 159l174 1241h-194l-48 -430q-22 -245 -30 -483h-8q-7 242 -33 524l-43 389h-195zM234 1364v199h-184v-199h184zM521 1364v199h-184v-199
h184z" />
    <glyph glyph-name=".null" horiz-adv-x="0" 
 />
    <glyph glyph-name="nonmarkingreturn" horiz-adv-x="340" 
 />
    <glyph glyph-name="Euro" 
d="M98 555h-123l33 117h90v143h-123l33 117h90v289q0 72 24 118t56 74q25 21 54 33t58 18.5t57 8.5t50 2q41 0 77.5 -5.5t76.5 -19.5q37 -12 63 -29t48 -43l-54 -178q-12 25 -30.5 43.5t-42.5 32.5q-28 15 -50.5 19.5t-48.5 4.5q-10 0 -22.5 -1t-25.5 -4t-25.5 -10
t-22.5 -19q-25 -33 -25 -92v-242h232l-33 -117h-199v-143h172l-32 -117h-140v-266q0 -25 3.5 -54t25.5 -51q19 -18 46 -24t50 -6q26 0 51.5 5t51.5 17q24 11 49.5 29t48.5 43v-195q-20 -14 -44.5 -27t-55.5 -22q-37 -12 -81.5 -18t-86.5 -6q-11 0 -33 1.5t-49.5 7.5
t-56.5 17.5t-54 32.5q-34 29 -58 79.5t-24 119.5v317z" />
    <glyph glyph-name="Euro" unicode="&#x20ac;" 
d="M98 555h-123l33 117h90v143h-123l33 117h90v289q0 72 24 118t56 74q25 21 54 33t58 18.5t57 8.5t50 2q41 0 77.5 -5.5t76.5 -19.5q37 -12 63 -29t48 -43l-54 -178q-12 25 -30.5 43.5t-42.5 32.5q-28 15 -50.5 19.5t-48.5 4.5q-10 0 -22.5 -1t-25.5 -4t-25.5 -10
t-22.5 -19q-25 -33 -25 -92v-242h232l-33 -117h-199v-143h172l-32 -117h-140v-266q0 -25 3.5 -54t25.5 -51q19 -18 46 -24t50 -6q26 0 51.5 5t51.5 17q24 11 49.5 29t48.5 43v-195q-20 -14 -44.5 -27t-55.5 -22q-37 -12 -81.5 -18t-86.5 -6q-11 0 -33 1.5t-49.5 7.5
t-56.5 17.5t-54 32.5q-34 29 -58 79.5t-24 119.5v317z" />
    <glyph glyph-name="Scaron" unicode="&#x160;" 
d="M274 553h-217v-336q2 -139 95 -192q40 -27 90 -39q49 -15 98 -15q53 0 104 15q50 12 90 39q41 26 66 75q25 47 25 117v258q-2 57 -54 139q-51 78 -120 162q-68 86 -119 158q-25 35 -41 63q-17 27 -17 45v181q0 53 19 73q16 17 49 17t51 -17q15 -20 15 -73v-289h217v307
q0 74 -25 121q-25 49 -66 76q-88 51 -194 49q-49 0 -98 -10q-50 -13 -90 -39q-41 -27 -66 -76q-29 -47 -29 -121v-209q0 -88 58 -170q51 -82 118 -162q70 -80 121 -155q51 -80 54 -156v-153q0 -54 -15 -72q-18 -21 -51 -19q-33 -2 -49 19q-19 18 -19 72v317zM428 1544
l176 350h-109l-149 -227v0l-154 227h-109l181 -350h164z" />
    <glyph glyph-name="scaron" unicode="&#x161;" horiz-adv-x="569" 
d="M41 457v-275q0 -90 68 -141q63 -53 176 -55q114 2 180 55q63 51 63 141v238q-2 67 -43 131q-43 61 -100 119q-29 30 -53 57q-25 29 -47 53q-47 51 -47 94v97q0 45 16 59q12 12 31 12q18 0 34 -12q13 -14 13 -59v-224h196v242q0 92 -63 146q-66 51 -180 51
q-113 0 -176 -51q-68 -54 -68 -146v-158q0 -67 47 -129q43 -61 100 -122q58 -62 101 -123q41 -64 43 -135v-121q0 -43 -13 -58q-16 -14 -34 -14q-19 0 -31 14q-16 15 -16 58v256h-197zM370 1296l176 350h-109l-149 -227v0l-154 227h-109l181 -350h164z" />
    <glyph glyph-name="brokenbar" unicode="&#xa6;" horiz-adv-x="455" 
d="M137 -358h180v716h-180v-716zM137 666h180v716h-180v-716z" />
    <glyph glyph-name="uni00AD" unicode="&#xad;" horiz-adv-x="340" 
d="M41 541h260v147h-260v-147z" />
    <glyph glyph-name="twosuperior" unicode="&#xb2;" horiz-adv-x="408" 
d="M178 694q4 74 37 139q33 68 74 134q43 67 71 143q29 76 31 164q0 80 -29 139q-32 59 -135 61q-207 5 -204 -186v-137h141v153q-2 64 49 66q37 0 37 -66v-79q0 -56 -33 -117q-35 -62 -80 -133q-45 -70 -78 -150q-36 -82 -36 -180v-55h364v104h-209z" />
    <glyph glyph-name="threesuperior" unicode="&#xb3;" horiz-adv-x="408" 
d="M23 911v-123q-3 -96 36 -151q39 -57 150 -57q84 -3 133 36q47 39 49 142v147q2 43 -14 72q-19 31 -96 53v4q69 17 92 53q18 35 18 76v141q0 76 -37 123q-41 45 -141 47q-92 0 -139 -36q-51 -41 -51 -142v-143h141v133q0 29 6 55q4 27 43 29q18 0 27 -8q8 -10 10 -27
q2 -35 0 -86v-78q0 -41 -14 -63q-17 -25 -72 -23v-104h22q64 2 64 -70v-159q0 -45 -12 -56q-13 -14 -35 -12q-13 -2 -25 16q-14 17 -14 78v133h-141z" />
    <glyph glyph-name="onesuperior" unicode="&#xb9;" horiz-adv-x="408" 
d="M39 1259h104v-669h142v874h-117q2 -57 -33 -80q-37 -26 -96 -34v-91z" />
    <glyph glyph-name="onequarter" unicode="&#xbc;" horiz-adv-x="1022" 
d="M717 874l-172 -561v-90h237v-223h133v223h58v105h-58v546h-198zM661 328q76 213 117 442h4v-442h-121zM670 1474l-478 -1490h99l477 1490h-98zM49 1259h105v-669h141v874h-117q2 -57 -33 -80q-36 -26 -96 -34v-91z" />
    <glyph glyph-name="onehalf" unicode="&#xbd;" horiz-adv-x="1022" 
d="M657 1474l-477 -1490h99l477 1490h-99zM37 1259h104v-669h142v874h-117q2 -57 -33 -80q-37 -26 -96 -34v-91zM772 104q4 74 37 140q33 67 74 133q43 67 71 143q29 76 31 164q0 80 -29 139q-32 60 -135 62q-207 4 -205 -187v-137h142v154q-2 63 49 65q37 0 37 -65v-80
q0 -55 -33 -117q-35 -61 -80 -133q-45 -70 -78 -149q-37 -82 -37 -181v-55h365v104h-209z" />
    <glyph glyph-name="threequarters" unicode="&#xbe;" horiz-adv-x="1022" 
d="M737 874l-172 -561v-90h238v-223h133v223h57v105h-57v546h-199zM682 328q76 213 117 442h4v-442h-121zM727 1474l-477 -1490h98l477 1490h-98zM33 911v-123q-2 -96 37 -151q39 -57 149 -57q84 -3 133 36q47 39 49 142v147q2 43 -14 72q-18 31 -96 53v4q69 17 92 53
q18 35 18 76v141q0 76 -36 123q-41 45 -142 47q-92 0 -139 -36q-51 -41 -51 -142v-143h141v133q0 29 6 55q4 27 43 29q19 0 27 -8q8 -10 10 -27q2 -35 0 -86v-78q0 -41 -14 -63q-17 -25 -72 -23v-104h23q63 2 63 -70v-159q0 -45 -12 -56q-12 -14 -35 -12q-12 -2 -25 16
q-14 17 -14 78v133h-141z" />
    <glyph glyph-name="Eth" unicode="&#xd0;" 
d="M57 725v-725h310q127 2 192 82q66 74 66 182v864q0 191 -72 262q-72 70 -234 68h-262v-559h-69v-174h69zM274 899v385h52q43 0 63 -16q19 -23 19 -93v-892q0 -68 -19 -88q-20 -23 -63 -21h-52v551h70v174h-70z" />
    <glyph glyph-name="multiply" unicode="&#xd7;" horiz-adv-x="1024" 
d="M387 547l-377 -375l125 -129v0l377 377v0l377 -377v0l125 129l-375 377l375 375l-125 129v0l-377 -377v0l-377 377v0l-125 -129z" />
    <glyph glyph-name="Yacute" unicode="&#xdd;" 
d="M8 1458l223 -913v-545h217v555l224 903h-203l-78 -328q-31 -137 -37 -305h-4q-14 168 -47 316l-72 317h-223zM212 1544h111l283 350h-203z" />
    <glyph glyph-name="Thorn" unicode="&#xde;" 
d="M57 0h217v362h91q258 0 260 299v316q0 158 -84 223q-86 64 -256 61h-11v197h-217v-1458zM408 602q-3 -41 -37 -53q-37 -15 -97 -12v550h39q56 0 76 -30q19 -33 19 -109v-346z" />
    <glyph glyph-name="eth" unicode="&#xf0;" horiz-adv-x="569" 
d="M332 186q0 -20 -8 -37q-13 -20 -39 -20q-27 0 -37 20q-10 17 -10 37v725q0 23 10 41q10 17 37 17q26 0 39 -17q8 -18 8 -41v-725zM121 1178l106 83v0q47 -69 74 -165q-18 12 -41 14q-22 2 -41 2q-70 0 -123 -76t-55 -200v-603q2 -122 74 -184q67 -61 170 -63
q102 2 172 63q69 62 71 184v603q-2 192 -47 323t-108 217l78 62l-35 75v0l-90 -69v0q-39 53 -72 94l-150 -117q33 -33 76 -92l-96 -76l37 -75v0z" />
    <glyph glyph-name="yacute" unicode="&#xfd;" horiz-adv-x="569" 
d="M143 203q4 -25 11 -56q4 -30 10 -65q10 -70 12 -119q0 -29 -10 -47q-14 -22 -60 -22h-59v-154q55 0 121 -2q123 -2 164 33q39 34 53 159l174 1241h-194l-48 -430q-22 -245 -30 -483h-8q-7 242 -33 524l-43 389h-195zM151 1296h111l283 350h-203z" />
    <glyph glyph-name="thorn" unicode="&#xfe;" horiz-adv-x="569" 
d="M332 225q0 -43 -13 -57q-16 -14 -34 -14q-19 0 -31 14q-16 14 -16 57v721q0 45 16 59q12 13 31 13q18 0 34 -13q13 -14 13 -59v-721zM41 -262h197v336h4q22 -35 59 -60q35 -26 82 -28q145 2 145 178v844q-4 180 -131 178q-55 -2 -92 -25q-39 -24 -63 -59h-4v356h-197
v-1720z" />
    <glyph glyph-name="hyphen" horiz-adv-x="340" 
d="M41 541h260v147h-260v-147z" />
    <glyph glyph-name="fraction" horiz-adv-x="342" 
d="M684 1474h-109l-917 -1490h109z" />
    <glyph glyph-name="fi" horiz-adv-x="645" 
d="M606 1458h-196v-209h196v209zM606 0v1171h-196v-1171h196zM72 0h196v1016h62v155h-62v72q0 23 8 41q7 16 27 18h27v156h-111q-88 0 -117 -39q-32 -41 -30 -100v-148h-62v-155h62v-1016z" />
    <glyph glyph-name="fl" horiz-adv-x="645" 
d="M606 0v1458h-196v-1458h196zM72 0h196v1016h62v155h-62v72q0 23 8 41q7 16 27 18h27v156h-111q-88 0 -117 -39q-32 -41 -30 -100v-148h-62v-155h62v-1016z" />
    <glyph glyph-name="breve" horiz-adv-x="303" 
d="M-102 1593q6 -114 73 -184q66 -74 183 -74q118 0 188 74q68 70 66 184h-60q-2 -49 -20 -76q-19 -26 -49 -38q-60 -23 -146 -21q-72 -2 -115 31q-45 28 -55 104h-65z" />
    <glyph glyph-name="dotaccent" horiz-adv-x="303" 
d="M244 1364v199h-185v-199h185z" />
    <glyph glyph-name="ring" horiz-adv-x="303" 
d="M74 1456q0 33 26 57q23 23 52 23q32 0 55 -23q22 -24 22 -57q0 -31 -22 -53q-23 -27 -55 -27q-29 0 -52 27q-26 22 -26 53v0zM-18 1456q2 -72 51 -121q47 -53 119 -53q73 0 120 53q47 49 50 121q-3 76 -50 125q-47 47 -120 49q-72 -2 -119 -49q-49 -49 -51 -125v0z" />
    <glyph glyph-name="ogonek" horiz-adv-x="303" 
d="M192 0q-92 -29 -163 -86q-76 -59 -78 -164q2 -98 69 -137q31 -18 68 -27q37 -10 74 -10q82 2 141 19q57 14 80 24l-27 53q-59 -24 -123 -26q-45 0 -86 24q-45 25 -45 103q0 53 39 96q35 41 80 70q107 59 115 61h-144z" />
    <glyph glyph-name="caron" horiz-adv-x="303" 
d="M236 1296l176 350h-109l-149 -227v0l-154 227h-109l181 -350h164z" />
    <glyph glyph-name="Lslash" horiz-adv-x="569" 
d="M63 1458v-692l-75 -55v-197v0l75 55v0v-569h494v190h-276v539l139 102v197v0l-139 -113v0v543h-218z" />
    <glyph glyph-name="dotlessi" horiz-adv-x="303" 
d="M250 0v1171h-197v-1171h197z" />
    <glyph glyph-name="lslash" horiz-adv-x="303" 
d="M53 1458v-680l-73 -74v-196v0l73 74v0v-582h197v790l74 86v197v0l-74 -86v0v471h-197z" />
    <glyph glyph-name="minus" horiz-adv-x="1024" 
d="M1014 496v180h-1004v-180h1004z" />
    </font>
</defs>
</svg>
