<svg xmlns="http://www.w3.org/2000/svg" xmlns:xlink="http://www.w3.org/1999/xlink" preserveAspectRatio="xMidYMid" width="128" height="124" viewBox="0 0 128 124">
  <defs>
    <style>
      .cls-1 {
        fill: #e1e1e1;
        fill-rule: evenodd;
      }
    </style>
  </defs>
  <path d="M127.991,57.709 L112.730,124.001 L-0.005,98.032 L15.256,31.741 L24.968,27.116 L28.148,13.301 L45.562,17.314 L81.916,0.011 L107.043,31.476 L124.459,35.488 L121.279,49.302 L127.991,57.709 ZM123.523,61.324 L81.348,81.399 L110.497,117.904 L123.523,61.324 ZM106.842,119.006 L66.231,68.148 L7.474,96.117 L106.842,119.006 ZM19.569,33.613 L22.599,37.408 L23.953,31.526 L19.569,33.613 ZM17.694,36.946 L4.669,93.526 L46.844,73.450 L17.694,36.946 ZM80.901,4.418 L51.120,18.594 L101.485,30.196 L80.901,4.418 ZM120.210,38.147 L30.806,17.553 L25.422,40.942 L50.130,71.885 L67.247,63.739 L79.076,78.553 L114.826,61.538 L120.210,38.148 L120.210,38.147 ZM118.910,59.594 L123.294,57.507 L120.264,53.712 L118.910,59.594 ZM38.210,36.410 L39.006,32.955 L106.103,48.411 L105.307,51.867 L38.210,36.410 ZM103.035,61.737 L35.938,46.281 L36.733,42.826 L103.830,58.283 L103.035,61.737 Z" class="cls-1"/>
</svg>
