<svg xmlns="http://www.w3.org/2000/svg" xmlns:xlink="http://www.w3.org/1999/xlink" preserveAspectRatio="xMidYMid" width="48" height="33" viewBox="0 0 48 33">
  <defs>
    <style>
      .cls-1 {
        fill: #002acc;
        fill-rule: evenodd;
      }
    </style>
  </defs>
  <path d="M10.536,11.998 C16.330,11.998 21.026,16.699 21.026,22.498 C21.026,28.298 16.330,32.999 10.536,32.999 C4.743,32.999 0.047,28.298 0.047,22.498 L-0.000,20.999 C-0.000,9.400 9.393,-0.002 20.979,-0.002 L20.979,5.998 C16.977,5.998 13.214,7.558 10.383,10.392 C9.838,10.937 9.341,11.518 8.893,12.127 C9.428,12.043 9.977,11.998 10.536,11.998 ZM37.510,11.998 C43.303,11.998 48.000,16.699 48.000,22.498 C48.000,28.298 43.303,32.999 37.510,32.999 C31.717,32.999 27.020,28.298 27.020,22.498 L26.973,20.999 C26.973,9.400 36.366,-0.002 47.953,-0.002 L47.953,5.998 C43.950,5.998 40.187,7.558 37.357,10.392 C36.812,10.937 36.315,11.518 35.866,12.127 C36.402,12.043 36.951,11.998 37.510,11.998 Z" class="cls-1"/>
</svg>
