<svg xmlns="http://www.w3.org/2000/svg" xmlns:xlink="http://www.w3.org/1999/xlink" preserveAspectRatio="xMidYMid" width="48" height="33" viewBox="0 0 48 33">
  <defs>
    <style>
      .cls-1 {
        fill: #002acc;
        fill-rule: evenodd;
      }
    </style>
  </defs>
  <path d="M37.463,20.999 C31.670,20.999 26.974,16.297 26.974,10.498 C26.974,4.700 31.670,-0.001 37.463,-0.001 C43.257,-0.001 47.953,4.700 47.953,10.498 L48.000,11.999 C48.000,23.596 38.607,32.999 27.020,32.999 L27.020,26.999 C31.023,26.999 34.786,25.438 37.617,22.605 C38.162,22.060 38.659,21.479 39.107,20.870 C38.572,20.954 38.023,20.999 37.463,20.999 ZM10.490,20.999 C4.696,20.999 -0.000,16.297 -0.000,10.498 C-0.000,4.700 4.696,-0.001 10.490,-0.001 C16.283,-0.001 20.979,4.700 20.979,10.498 L21.026,11.999 C21.026,23.596 11.633,32.999 0.047,32.999 L0.047,26.999 C4.050,26.999 7.813,25.438 10.643,22.605 C11.188,22.060 11.685,21.479 12.134,20.870 C11.598,20.954 11.049,20.999 10.490,20.999 Z" class="cls-1"/>
</svg>
