<?xml version="1.0" standalone="no"?>
<!DOCTYPE svg PUBLIC "-//W3C//DTD SVG 1.1//EN" "http://www.w3.org/Graphics/SVG/1.1/DTD/svg11.dtd" >
<svg xmlns="http://www.w3.org/2000/svg" xmlns:xlink="http://www.w3.org/1999/xlink" version="1.1">
<metadata></metadata>
<defs>
<font id="p22_underground_cy_prothin" horiz-adv-x="1228" >
<font-face units-per-em="2048" ascent="1536" descent="-512" />
<missing-glyph horiz-adv-x="532" />
<glyph horiz-adv-x="0" />
<glyph horiz-adv-x="682" />
<glyph unicode=" "  horiz-adv-x="532" />
<glyph unicode="&#x09;" horiz-adv-x="532" />
<glyph unicode="&#xa0;" horiz-adv-x="532" />
<glyph unicode="!" horiz-adv-x="614" d="M246 20v21l51 51h20l52 -51v-21l-52 -51h-20zM287 358v830v235l10 11h20l11 -11v-235v-830l-11 -10h-20z" />
<glyph unicode="&#x22;" horiz-adv-x="983" d="M287 952v277v194l10 11h20l11 -11v-194v-277l-11 -10h-20zM655 952v277v194l11 11h20l10 -11v-194v-277l-10 -10h-20z" />
<glyph unicode="#" horiz-adv-x="1310" d="M123 532v21l10 10h270l31 369h-280l-11 10v21l11 10h284l33 368l10 11h21l10 -11l-33 -368h389l33 368l10 11h21l10 -11l-33 -368h269l10 -10v-21l-10 -10h-273l-31 -369h283l10 -10v-21l-10 -10h-287l-41 -430l-10 -10h-20l-11 10l41 430h-389l-41 -430l-10 -10h-20 l-11 10l41 430h-266zM444 563h390l30 369h-389z" />
<glyph unicode="$" horiz-adv-x="1146" d="M154 266l20 10h21q39 -109 138 -184t220 -82v768q-55 26 -98.5 51t-88 59t-74.5 70t-48.5 82.5t-18.5 96.5q0 132 92 226t236 101v164l10 10h21l10 -10v-164q215 -25 328 -215l-21 -10h-20q-47 78 -122 127.5t-165 56.5v-614q43 -20 68.5 -32.5t68.5 -35.5t70 -42 t62.5 -46t57.5 -54.5t43 -60t30.5 -70.5t9.5 -79q0 -92 -38 -173t-98 -133.5t-132 -83t-142 -30.5v-164l-10 -10h-21l-10 10v164q-292 26 -399 297zM270 1137q0 -55 22.5 -101.5t67.5 -84.5t87 -64t106 -58v594q-115 -8 -199 -85t-84 -201zM594 10q59 0 122 25.5t117.5 71 t89.5 120t35 162.5q0 40 -13 78t-31.5 67.5t-51 59t-60 50t-70 44.5t-69 37t-69.5 33v-748z" />
<glyph unicode="%" horiz-adv-x="1720" d="M123 1116q0 137 99.5 232.5t238.5 95.5t238.5 -95.5t99.5 -232.5t-99.5 -232.5t-238.5 -95.5t-238.5 95.5t-99.5 232.5zM168 1116q0 -122 84.5 -204.5t208.5 -82.5t208.5 82.5t84.5 204.5t-84.5 204.5t-208.5 82.5t-208.5 -82.5t-84.5 -204.5zM360 10l943 1413l20 11h20 l11 -11l-942 -1413l-21 -10h-20zM922 317q0 137 99.5 232.5t238.5 95.5t238 -95.5t99 -232.5t-99 -232t-238 -95t-238.5 95t-99.5 232zM967 317q0 -122 84.5 -204t208.5 -82t208 82t84 204q0 123 -84 205t-208 82t-208.5 -82.5t-84.5 -204.5z" />
<glyph unicode="&#x26;" horiz-adv-x="1433" d="M123 373q0 35 10.5 69.5t24 62t42.5 61t48.5 54t60 53t59.5 47t65 47t59 42.5q-6 7 -36 41.5t-48 55.5t-46 60t-44.5 69.5t-29 69.5t-12.5 73q0 119 81 202.5t196 83.5t195.5 -83.5t80.5 -202.5q0 -153 -276 -369q260 -301 420 -461q120 169 256 420h33l8 -10 q-137 -254 -266 -441q136 -136 327 -305l-10 -12h-41q-190 169 -303 287q-232 -318 -465 -318q-161 0 -275 118.5t-114 285.5zM168 373q0 -151 100.5 -257t243.5 -106q210 0 434 307q-272 284 -424 461q-17 -12 -59 -42t-62.5 -45.5t-57.5 -45t-56.5 -49t-46 -49.5 t-39.5 -55.5t-23 -56.5t-10 -62zM322 1178q0 -38 16 -80t43.5 -83t51 -71t53.5 -63.5t36 -40.5q35 25 73 57.5t84 79.5t75.5 100.5t29.5 100.5q0 101 -67 173t-162 72q-97 0 -165 -72t-68 -173z" />
<glyph unicode="'" horiz-adv-x="614" d="M287 952v277v194l10 11h20l11 -11v-194v-277l-11 -10h-20z" />
<glyph unicode="(" horiz-adv-x="696" d="M205 471q0 171 23.5 332.5t62.5 287.5t78 218t82 166h30l11 -11q-98 -151 -170 -413t-72 -580t72 -580t170 -413l-11 -10h-30q-43 74 -82 165.5t-78 217.5t-62.5 287.5t-23.5 332.5z" />
<glyph unicode=")" horiz-adv-x="696" d="M205 -522q98 151 169.5 413t71.5 580t-71.5 580t-169.5 413l10 11h31q43 -74 82 -166t78 -218t62.5 -287.5t23.5 -332.5t-23.5 -332.5t-62.5 -287.5t-78 -217.5t-82 -165.5h-31z" />
<glyph unicode="*" horiz-adv-x="983" d="M160 901v10l291 154l-291 154v10l14 26h10l287 -159v327l10 11h21l10 -11v-327l287 159h10l14 -26v-10l-291 -154l291 -154v-10l-14 -27h-10l-287 160v-327l-10 -11h-21l-10 11v327l-287 -160h-10z" />
<glyph unicode="+" horiz-adv-x="1146" d="M174 737v21l10 10h369v369l10 10h21l10 -10v-369h369l10 -10v-21l-10 -10h-369v-369l-10 -10h-21l-10 10v369h-369z" />
<glyph unicode="," horiz-adv-x="614" d="M195 -195q92 0 92 164v103l10 10h20l11 -10v-92q0 -195 -92 -195q-21 0 -41 10v10z" />
<glyph unicode="-" horiz-adv-x="819" d="M82 471v21l10 10h635l10 -10v-21l-10 -10h-635z" />
<glyph unicode="." horiz-adv-x="614" d="M266 10v62l10 10h62l10 -10v-62l-10 -10h-62z" />
<glyph unicode="/" horiz-adv-x="573" d="M61 -502l410 1925l10 11h25l10 -11l-410 -1925l-10 -10h-24z" />
<glyph unicode="0" horiz-adv-x="1187" d="M164 717q0 208 51 377t150 269.5t229 100.5t229 -100.5t150 -269.5t51 -377t-51 -377t-150 -270t-229 -101t-229 101t-150 270t-51 377zM209 717q0 -198 49 -359.5t137.5 -254.5t198.5 -93t198.5 93t137.5 254.5t49 359.5t-49 359t-137.5 254t-198.5 93t-198.5 -93 t-137.5 -254t-49 -359z" />
<glyph unicode="1" horiz-adv-x="450" d="M205 10v1393l10 20l21 21l10 -10v-1424l-10 -10h-21z" />
<glyph unicode="2" horiz-adv-x="1064" d="M143 1249v41q167 174 328 174t254.5 -99.5t93.5 -268.5q0 -90 -50.5 -201t-143.5 -260l-369 -594h594l10 -10v-21l-10 -10h-655l-11 10l410 656q180 277 180 430t-82 240t-221 87q-87 0 -168.5 -50.5t-148.5 -133.5z" />
<glyph unicode="3" horiz-adv-x="1105" d="M82 195l20 20h21q67 -97 171 -151t208 -54q172 0 294 123.5t122 296.5q0 162 -116 265.5t-300 103.5q-49 0 -103 -21l-10 10l399 605h-655l-10 10v20l10 11h717l10 -11l-379 -583q219 7 350.5 -107.5t131.5 -302.5q0 -190 -135.5 -325.5t-325.5 -135.5q-119 0 -228 57 t-192 169z" />
<glyph unicode="4" horiz-adv-x="1331" d="M61 502l809 942l11 -10v-902h297l10 -10v-20l-10 -10h-297v-482l-11 -10h-20l-10 10v482h-768zM143 532h697v809z" />
<glyph unicode="5" horiz-adv-x="1085" d="M82 174l20 21h21q66 -89 163.5 -137t194.5 -48q183 0 312 123.5t129 296.5q0 177 -129.5 298.5t-321.5 121.5q-40 0 -63 -1.5t-71 -11t-110 -28.5l-10 10l59 604l11 11h686l10 -11l-20 -30h-646l-59 -533q114 34 218 34t193 -37.5t154.5 -98t102.5 -146t37 -182.5 q0 -197 -140 -329t-342 -132q-116 0 -219.5 53t-179.5 152z" />
<glyph unicode="6" horiz-adv-x="1146" d="M123 553q0 128 44.5 268.5t114.5 257.5t152 210.5t160 144.5h41l10 -11q-161 -112 -297 -322.5t-170 -424.5q185 194 416 194q196 0 323 -131t127 -319t-127 -319.5t-323 -131.5q-92 0 -174 34t-149.5 102t-107.5 183.5t-40 264.5zM168 553q0 -137 36 -244t97 -170.5 t135.5 -96t157.5 -32.5q167 0 286 120.5t119 289.5t-119 289t-286 120q-222 0 -424 -215q-2 -20 -2 -61z" />
<glyph unicode="7" horiz-adv-x="1146" d="M225 10l727 1383h-716l-11 10v20l11 11h768l10 -11l-738 -1413l-20 -10h-20z" />
<glyph unicode="8" horiz-adv-x="1105" d="M143 379q0 132 106 246.5t253 167.5q-122 62 -194 152.5t-72 201.5q0 131 93 224t224 93t224 -93t93 -224q0 -111 -72 -201.5t-194 -152.5q147 -53 253 -167.5t106 -246.5q0 -181 -118.5 -295.5t-291.5 -114.5t-291.5 114.5t-118.5 295.5zM188 379q0 -160 105 -264.5 t260 -104.5t260 104.5t105 264.5q0 126 -106 233.5t-259 155.5q-153 -48 -259 -155.5t-106 -233.5zM281 1147q0 -100 75 -191.5t197 -136.5q122 45 197 136.5t75 191.5q0 116 -78.5 196t-193.5 80t-193.5 -80t-78.5 -196z" />
<glyph unicode="9" horiz-adv-x="1146" d="M102 1014q0 188 127.5 319t323.5 131q92 0 174 -34t149.5 -101.5t107.5 -183t40 -264.5q0 -128 -44.5 -268.5t-114.5 -257.5t-152 -210.5t-160 -144.5h-41l-10 10q161 112 297 322.5t170 425.5q-185 -195 -416 -195q-196 0 -323.5 131.5t-127.5 319.5zM147 1014 q0 -169 119.5 -289.5t286.5 -120.5q222 0 424 215q2 20 2 62q0 110 -23.5 201.5t-64 153.5t-95.5 105t-116 62.5t-127 19.5q-167 0 -286.5 -120t-119.5 -289z" />
<glyph unicode=":" horiz-adv-x="614" d="M266 10v62l10 10h62l10 -10v-62l-10 -10h-62zM266 666v61l10 10h62l10 -10v-61l-10 -11h-62z" />
<glyph unicode=";" horiz-adv-x="614" d="M195 -195q92 0 92 164v103l10 10h20l11 -10v-92q0 -195 -92 -195q-21 0 -41 10v10zM266 666v61l10 10h62l10 -10v-61l-10 -11h-62z" />
<glyph unicode="&#x3c;" horiz-adv-x="1146" d="M154 737v21l10 10l799 287l10 -11v-20l-10 -10l-738 -266l738 -267l10 -10v-20l-10 -11l-799 287z" />
<glyph unicode="=" horiz-adv-x="1146" d="M215 532v21l10 10h779l10 -10v-21l-10 -10h-779zM215 942v21l10 10h779l10 -10v-21l-10 -10h-779z" />
<glyph unicode="&#x3e;" horiz-adv-x="1146" d="M174 451v20l10 10l738 267l-738 266l-10 10v20l10 11l799 -287l10 -10v-21l-10 -10l-799 -287z" />
<glyph unicode="?" horiz-adv-x="962" d="M82 1208q56 119 154 187.5t225 68.5q139 0 238.5 -99t99.5 -239q0 -73 -43 -144.5t-104 -128.5t-122 -111.5t-104 -114t-43 -115.5q0 -43 15.5 -77.5t33 -52.5t49.5 -44l-30 -31q-51 35 -82 82t-31 123q0 46 23 92t59.5 86t81 80.5t89 82t81 83t59.5 91t23 99.5 q0 123 -86 210t-207 87q-117 0 -199 -59.5t-143 -171.5h-10zM389 20v21l51 51h21l51 -51v-21l-51 -51h-21z" />
<glyph unicode="@" horiz-adv-x="1802" d="M164 492q0 210 101 382.5t269.5 268.5t366.5 96q197 0 366.5 -95t270 -258t100.5 -354q0 -124 -38 -228t-114 -168t-175 -64q-140 0 -195 116q-32 -39 -110.5 -72.5t-145.5 -33.5q-124 0 -200 64t-76 171q0 235 522 277q0 287 -209 287q-126 0 -242 -72l-10 10l21 41 q112 62 235 62q246 0 246 -332v-324q0 -77 50 -115t114 -38q128 0 205 119t77 300t-93.5 334.5t-252.5 242.5t-346 89q-186 0 -345.5 -94.5t-253 -257.5t-93.5 -354t93.5 -354t253 -258t345.5 -95q110 0 198 26.5t171 86.5h10l18 -29q-96 -69 -187.5 -97t-209.5 -28 q-148 0 -283 57t-235 155t-159.5 238t-59.5 298zM629 317q0 -90 64.5 -142t166.5 -52q52 0 130 29.5t116 83.5v317q-80 -4 -158 -18.5t-152.5 -41t-120.5 -72.5t-46 -104z" />
<glyph unicode="A" horiz-adv-x="1310" d="M61 10l564 1413l10 11h41l10 -11l563 -1413l-10 -10h-20l-11 10l-198 492h-709l-199 -492l-10 -10h-20zM317 543h676l-338 850z" />
<glyph unicode="B" d="M205 10v1413l10 11h297q207 0 313.5 -92.5t106.5 -245.5q0 -104 -61 -180.5t-164 -116.5q193 -22 296 -129.5t103 -259.5q0 -183 -136 -296.5t-345 -113.5h-410zM246 41h379q192 0 314 103.5t122 265.5q0 159 -121 253.5t-315 94.5h-379v-717zM246 799h266 q154 0 264.5 87t110.5 210q0 126 -94 211.5t-281 85.5h-266v-594z" />
<glyph unicode="C" horiz-adv-x="1556" d="M143 717q0 151 60 289t161 238.5t241.5 160t295.5 59.5q280 0 492 -153v-41l-11 -10q-206 163 -481 163q-143 0 -275 -56t-228 -150.5t-153 -225.5t-57 -274q0 -191 96.5 -354t261 -258t355.5 -95q273 0 481 164l11 -10v-41q-213 -154 -492 -154q-155 0 -295.5 59.5 t-241.5 160t-161 239t-60 289.5z" />
<glyph unicode="D" horiz-adv-x="1413" d="M205 10v1413l10 11h317q162 0 303.5 -56t241 -152.5t156.5 -228.5t57 -280t-57 -280t-156.5 -228.5t-241 -152.5t-303.5 -56h-317zM246 41h286q196 0 360 89.5t258.5 244.5t94.5 342t-94.5 342t-258.5 244.5t-360 89.5h-286v-1352z" />
<glyph unicode="E" horiz-adv-x="1064" d="M205 10v1413l10 11h696l11 -11v-20l-11 -10h-665v-584h502l10 -10v-21l-10 -10h-502v-727h727l10 -10v-21l-10 -10h-758z" />
<glyph unicode="F" horiz-adv-x="983" d="M205 10v1413l10 11h696l11 -11v-20l-11 -10h-665v-584h502l10 -10v-21l-10 -10h-502v-758l-10 -10h-21z" />
<glyph unicode="G" horiz-adv-x="1638" d="M143 717q0 152 60.5 289.5t163.5 238t248 160t307 59.5q332 0 512 -133v-41l-11 -10q-181 143 -501 143q-151 0 -287 -56t-234 -150.5t-155.5 -225t-57.5 -274.5q0 -143 59 -274t158.5 -226t237.5 -151t289 -56q125 0 257.5 40t223.5 108v528h-440l-10 10v21l10 10h471 l10 -10v-584q-224 -164 -522 -164q-162 0 -308.5 58.5t-251.5 158t-167 238t-62 293.5z" />
<glyph unicode="H" horiz-adv-x="1433" d="M205 10v1413l10 11h21l10 -11v-614h942v614l10 11h21l10 -11v-1413l-10 -10h-21l-10 10v758h-942v-758l-10 -10h-21z" />
<glyph unicode="I" horiz-adv-x="450" d="M205 10v1413l10 11h21l10 -11v-1413l-10 -10h-21z" />
<glyph unicode="J" horiz-adv-x="983" d="M82 240l31 16h10q36 -124 117 -185t180 -61q64 0 119 21t100.5 64.5t71.5 118.5t26 175v1034l11 11h20l10 -11v-1044q0 -194 -99.5 -302t-258.5 -108q-115 0 -208.5 68.5t-129.5 202.5z" />
<glyph unicode="K" horiz-adv-x="1105" d="M205 10v1413l10 11h21l10 -11v-563l676 563l20 11h31l10 -11l-727 -604l788 -809l-10 -10h-30l-21 10l-737 758v-758l-10 -10h-21z" />
<glyph unicode="L" horiz-adv-x="1024" d="M205 8v1417l8 9h25l8 -9v-1384h667l9 -10v-23l-9 -8h-700z" />
<glyph unicode="M" horiz-adv-x="1679" d="M205 10v1413l10 11h21l20 -11l584 -737l583 737l21 11h20l11 -11v-1413l-11 -10h-20l-10 10v1362l-584 -737h-21l-583 737v-1362l-10 -10h-21z" />
<glyph unicode="N" horiz-adv-x="1515" d="M205 10v1413l10 11h27l20 -11l1008 -1362v1362l10 11h20l11 -11v-1413l-11 -10h-24l-21 10l-1009 1362v-1362l-10 -10h-21z" />
<glyph unicode="O" horiz-adv-x="1802" d="M143 717q0 152 60 290t161.5 238.5t242 159.5t294.5 59t294.5 -59t242 -159.5t161.5 -238.5t60 -290t-60 -290.5t-161.5 -238.5t-242 -159.5t-294.5 -59.5t-294.5 59.5t-242 159.5t-161.5 238.5t-60 290.5zM188 717q0 -191 96.5 -354t261 -258t355.5 -95t355.5 95 t261 258t96.5 354q0 143 -57 274t-153 225.5t-228 150.5t-275 56t-275 -56t-228 -150.5t-153 -225.5t-57 -274z" />
<glyph unicode="P" horiz-adv-x="1105" d="M205 10v1413l8 11h279q255 0 383.5 -105.5t128.5 -294.5t-128.5 -294t-383.5 -105h-246v-625l-10 -10h-21zM246 676h246q225 0 345.5 91t120.5 267t-121 267.5t-345 91.5h-246v-717z" />
<glyph unicode="Q" horiz-adv-x="1802" d="M143 717q0 152 60 290t161.5 238.5t242 159.5t294.5 59t294.5 -59t242 -159.5t161.5 -238.5t60 -290q0 -145 -54 -277t-151 -235l205 -174v-11l-21 -20h-10l-205 176q-104 -98 -239 -152.5t-283 -54.5q-154 0 -294.5 59.5t-242 159.5t-161.5 238.5t-60 290.5zM188 717 q0 -191 96.5 -354t261 -258t355.5 -95q138 0 264.5 51.5t223.5 143.5l-191 164v10l21 20h10l190 -163q92 95 143.5 219.5t51.5 261.5q0 143 -57 274t-153 225.5t-228 150.5t-275 56t-275 -56t-228 -150.5t-153 -225.5t-57 -274z" />
<glyph unicode="R" horiz-adv-x="1187" d="M205 10v1413l10 11h317q201 0 316 -96.5t115 -272.5q0 -81 -29.5 -146t-81.5 -107.5t-113.5 -69.5t-134.5 -42l522 -690l-10 -10h-31l-10 10l-522 686h-307v-686l-10 -10h-21zM246 737h246q61 0 119 10t114.5 34.5t98.5 61.5t68 94t26 128q0 159 -103 243.5t-283 84.5 h-286v-656z" />
<glyph unicode="S" horiz-adv-x="1126" d="M113 266l20 10h21q44 -126 152.5 -196t236.5 -70q155 0 265 111t110 268q0 59 -25 110t-67.5 89.5t-97.5 73.5t-116 66l-122 62t-116 66.5t-97.5 75t-67.5 92t-25 113.5q0 135 99 231t239 96q118 0 210 -58.5t149 -156.5l-21 -10h-20q-117 184 -318 184 q-121 0 -207 -83.5t-86 -202.5q0 -68 40.5 -125.5t105 -99.5t143 -81.5t157 -82t143 -90.5t105 -117t40.5 -152q0 -173 -123.5 -296.5t-296.5 -123.5q-152 0 -263.5 78.5t-166.5 218.5z" />
<glyph unicode="T" horiz-adv-x="1269" d="M61 1403v20l11 11h1126l10 -11v-20l-10 -10h-543v-1383l-10 -10h-20l-11 10v1383h-542z" />
<glyph unicode="U" horiz-adv-x="1515" d="M205 635v788l10 11h21l10 -11v-788q0 -297 136 -461t376 -164t376 164t136 461v788l10 11h20l11 -11v-788q0 -315 -146 -490.5t-407 -175.5t-407 175.5t-146 490.5z" />
<glyph unicode="V" horiz-adv-x="1269" d="M61 1423l11 11h20l10 -11l533 -1382l532 1382l11 11h20l10 -11l-542 -1413l-11 -10h-41l-10 10z" />
<glyph unicode="W" horiz-adv-x="1925" d="M61 1423l11 11h20l10 -11l430 -1382l410 1362l10 10h21l10 -10l410 -1362l430 1382l10 11h20l11 -11l-441 -1413l-10 -10h-41l-10 10l-399 1321l-400 -1321l-10 -10h-41l-10 10z" />
<glyph unicode="X" horiz-adv-x="1351" d="M61 10l590 731l-549 682l11 11h20l21 -11l522 -649l522 649l21 11h20l10 -11l-549 -682l590 -731l-10 -10h-20l-21 10l-563 701l-563 -701l-21 -10h-20z" />
<glyph unicode="Y" d="M61 1423l11 11h20l21 -11l501 -635l504 635l19 11h20l10 -11l-532 -675v-738l-10 -10h-21l-10 10v738z" />
<glyph unicode="Z" d="M61 10l1004 1383h-932l-10 10v20l10 11h993l11 -11l-1004 -1382h1004l10 -12v-19l-10 -10h-1065z" />
<glyph unicode="[" horiz-adv-x="696" d="M205 -522v1986l10 11h348l10 -11v-20l-10 -10h-317v-1926h317l10 -10v-20l-10 -10h-348z" />
<glyph unicode="\" horiz-adv-x="573" d="M61 1423l11 11h24l10 -11l410 -1925l-10 -10h-25l-10 10z" />
<glyph unicode="]" horiz-adv-x="696" d="M123 -502l10 10h318v1926h-318l-10 10v20l10 11h348l11 -11v-1986l-11 -10h-348l-10 10v20z" />
<glyph unicode="^" horiz-adv-x="1146" d="M266 625l287 798l10 11h21l10 -11l287 -798l-11 -11h-20l-10 11l-267 737l-266 -737l-10 -11h-21z" />
<glyph unicode="_" horiz-adv-x="1024" d="M82 -195l10 11h840l10 -11v-20l-10 -10h-840l-10 10v20z" />
<glyph unicode="`" horiz-adv-x="1249" d="M369 1362l8 10h33l20 -10l297 -297l-10 -10h-21l-20 10z" />
<glyph unicode="a" horiz-adv-x="1064" d="M123 225q0 93 51.5 160.5t151 108t223.5 61.5t291 29q0 198 -89 283t-259 85q-76 0 -143 -21.5t-144 -60.5l-10 11l20 41q140 71 277 71q199 0 294 -100.5t95 -308.5v-574l-11 -10h-20l-10 10v103q-78 -61 -180 -102.5t-209 -41.5q-143 0 -235.5 68.5t-92.5 187.5z M168 225q0 -103 80.5 -159t202.5 -56q103 0 209.5 44.5t179.5 109.5v379q-101 -5 -182 -14t-160 -24.5t-136.5 -39.5t-102.5 -57t-68 -79t-23 -104z" />
<glyph unicode="b" horiz-adv-x="1290" d="M205 10v1413l10 11h21l10 -11v-635q71 95 176.5 150t232.5 55q207 0 349.5 -148.5t142.5 -363.5t-142.5 -363.5t-349.5 -148.5q-127 0 -232.5 55t-176.5 150v-164l-10 -10h-21zM246 246q62 -109 171 -172.5t238 -63.5q186 0 316.5 136.5t130.5 334.5t-130.5 334.5 t-316.5 136.5q-129 0 -238 -63.5t-171 -171.5v-471z" />
<glyph unicode="c" horiz-adv-x="1085" d="M123 481q0 141 63 257.5t181 185.5t268 69q191 0 328 -102v-31l-11 -10q-81 58 -153.5 80t-163.5 22q-199 0 -333 -135.5t-134 -335.5t134 -335.5t333 -135.5q90 0 163 22t154 81l11 -11v-30q-138 -103 -328 -103q-150 0 -268 69t-181 185.5t-63 257.5z" />
<glyph unicode="d" horiz-adv-x="1269" d="M123 481q0 215 142 363.5t349 148.5q127 0 233 -55t177 -150v635l10 11h21l10 -11v-1413l-10 -10h-21l-10 10v164q-71 -95 -177 -150t-233 -55q-207 0 -349 148.5t-142 363.5zM168 481q0 -198 130 -334.5t316 -136.5q129 0 238.5 64t171.5 172v471q-62 108 -171.5 171.5 t-238.5 63.5q-186 0 -316 -136.5t-130 -334.5z" />
<glyph unicode="e" horiz-adv-x="1126" d="M123 492q0 140 57 253.5t165.5 180.5t248.5 67q85 0 156 -28t117 -73.5t78 -104.5t45.5 -117.5t13.5 -116.5q0 -26 -11 -51l-20 -10h-805q0 -205 128.5 -343.5t338.5 -138.5q91 0 179.5 35.5t158.5 97.5l10 -10v-31q-51 -51 -149.5 -92t-198.5 -41q-154 0 -272 71.5 t-179 190t-61 261.5zM168 532h795q-8 189 -106 304.5t-263 115.5q-186 0 -298 -118t-128 -302z" />
<glyph unicode="f" horiz-adv-x="737" d="M82 932v22l10 9h154v143q0 157 80.5 257.5t216.5 100.5q51 0 76.5 -7.5t76.5 -33.5v-30l-10 -11q-50 25 -75 33t-68 8q-121 0 -188.5 -89t-67.5 -238v-133h399l10 -11v-20l-10 -10h-399v-912l-11 -10h-20l-10 10v912h-154z" />
<glyph unicode="g" horiz-adv-x="1064" d="M82 -266q0 43 20 86t46 74.5t72 68.5t76 57.5t79 51.5q-139 59 -139 143q0 62 51 104q-67 54 -105.5 130.5t-38.5 164.5q0 157 114 268t275 111q76 0 154 -30h279l8 -9v-24l-8 -8h-205q75 -53 118.5 -134.5t43.5 -173.5q0 -157 -114.5 -267.5t-275.5 -110.5 q-118 0 -210 59q-41 -38 -41 -80q0 -35 38.5 -63.5t100.5 -49.5t137 -42t150 -48t137 -61t100.5 -87t38.5 -120q0 -126 -114 -206.5t-320 -80.5q-225 0 -346 65t-121 212zM127 -266q0 -119 112.5 -177.5t309.5 -58.5q186 0 287.5 70t101.5 176q0 46 -25.5 84.5t-62 64 t-95.5 50.5t-107.5 40t-118.5 36.5t-109 35.5q-42 -25 -81.5 -52.5t-93 -72t-86 -96t-32.5 -100.5zM188 614q0 -137 102.5 -237.5t241.5 -100.5t242 100.5t103 237.5t-103 237.5t-242 100.5t-241.5 -100.5t-102.5 -237.5z" />
<glyph unicode="h" d="M205 10v1413l10 11h21l10 -11v-635q71 94 173.5 149.5t215.5 55.5q211 0 310 -124t99 -367v-492l-10 -10h-20l-10 10v482q0 233 -89.5 346.5t-279.5 113.5q-116 0 -222 -64t-167 -171v-707l-10 -10h-21z" />
<glyph unicode="i" horiz-adv-x="450" d="M164 1219v20l51 51h21l51 -51v-20l-51 -52h-21zM205 10v942l10 11h21l10 -11v-942l-10 -10h-21z" />
<glyph unicode="j" horiz-adv-x="450" d="M-82 -492l10 11q43 -21 103 -21q38 0 66.5 12t54.5 42t39.5 89t13.5 144v1167l10 11h21l10 -11v-1177q0 -318 -215 -318q-70 0 -113 21v30zM164 1219v20l51 51h21l51 -51v-20l-51 -52h-21z" />
<glyph unicode="k" horiz-adv-x="942" d="M205 10v1413l10 11h21l10 -11v-870l512 399l20 11h31l10 -11l-543 -430l605 -512l-11 -10h-30l-21 10l-573 482v-482l-10 -10h-21z" />
<glyph unicode="l" horiz-adv-x="614" d="M184 266v1157l11 11h20l10 -11v-1147q0 -266 164 -266q41 0 76 13t78 49l10 -11v-30q-82 -62 -164 -62q-205 0 -205 297z" />
<glyph unicode="m" horiz-adv-x="1863" d="M205 10v942l10 11h21l10 -11v-164q153 205 368 205q117 0 208 -65.5t124 -179.5q36 55 72.5 95.5t85.5 76t111.5 54.5t136.5 19q327 0 327 -450v-533l-10 -10h-20l-11 10v522q0 219 -77 319.5t-209 100.5q-93 0 -169.5 -36t-125.5 -89t-94 -131v-686l-11 -10h-20l-10 10 v553q0 191 -85.5 290t-222.5 99q-113 0 -209 -62.5t-159 -172.5v-707l-10 -10h-21z" />
<glyph unicode="n" d="M205 10v942l10 11h21l10 -11v-164q71 94 173.5 149.5t215.5 55.5q211 0 310 -124t99 -367v-492l-10 -10h-20l-10 10v482q0 233 -89.5 346.5t-279.5 113.5q-116 0 -222 -64t-167 -171v-707l-10 -10h-21z" />
<glyph unicode="o" d="M123 481q0 215 142 363.5t349 148.5t349.5 -148.5t142.5 -363.5t-142.5 -363.5t-349.5 -148.5t-349 148.5t-142 363.5zM168 481q0 -198 130 -334.5t316 -136.5t316.5 136.5t130.5 334.5t-130.5 334.5t-316.5 136.5t-316 -136.5t-130 -334.5z" />
<glyph unicode="p" horiz-adv-x="1269" d="M205 -461v1413l10 11h21l10 -11v-164q71 95 176.5 150t232.5 55q207 0 349.5 -148.5t142.5 -363.5t-142.5 -363.5t-349.5 -148.5q-127 0 -232.5 55t-176.5 150v-635l-10 -10h-21zM246 246q62 -109 171 -172.5t238 -63.5q186 0 316.5 136.5t130.5 334.5t-130.5 334.5 t-316.5 136.5q-129 0 -238 -63.5t-171 -171.5v-471z" />
<glyph unicode="q" horiz-adv-x="1290" d="M143 481q0 215 142.5 363.5t349.5 148.5q127 0 232.5 -55t176.5 -150v164l11 11h20l10 -11v-1413l-10 -10h-20l-11 10v635q-71 -95 -176.5 -150t-232.5 -55q-207 0 -349.5 148.5t-142.5 363.5zM188 481q0 -198 130.5 -334.5t316.5 -136.5q129 0 238 63.5t171 172.5v471 q-62 108 -171 171.5t-238 63.5q-186 0 -316.5 -136.5t-130.5 -334.5z" />
<glyph unicode="r" horiz-adv-x="942" d="M205 10v942l10 11h21l10 -11v-164q69 92 181.5 148.5t227.5 56.5q114 0 195 -41l10 -41l-10 -10q-33 24 -73 36t-63 13.5t-59 1.5q-118 0 -233.5 -65t-175.5 -170v-707l-10 -10h-21z" />
<glyph unicode="s" horiz-adv-x="942" d="M133 51v35l10 10q78 -53 149.5 -69.5t168.5 -16.5q132 0 222.5 70t90.5 176q0 56 -35 96.5t-90.5 64.5t-123 44t-134.5 41t-122.5 48.5t-90.5 75t-35 111.5q0 107 93.5 181.5t224.5 74.5q185 0 317 -82v-34l-10 -11q-133 86 -307 86q-116 0 -194.5 -61.5t-78.5 -153.5 q0 -56 35 -96t90.5 -63t123 -42t134.5 -40t122.5 -49t90.5 -76.5t35 -114.5q0 -122 -105 -204.5t-253 -82.5q-191 0 -328 82z" />
<glyph unicode="t" horiz-adv-x="798" d="M82 932v20l10 11h164v235l10 10h21l10 -12v-233h451l10 -11v-20l-10 -10h-451v-615q0 -157 66 -227t169 -70q128 0 216 62l10 -11v-30q-92 -62 -226 -62q-128 0 -202 82.5t-74 245.5v625h-164z" />
<glyph unicode="u" d="M184 461v491l11 11h20l10 -11v-481q0 -233 89.5 -347t279.5 -114q115 0 221 64.5t168 171.5v706l10 11h21l10 -11v-942l-10 -10h-21l-10 10v164q-71 -94 -173.5 -149.5t-215.5 -55.5q-211 0 -310.5 124.5t-99.5 367.5z" />
<glyph unicode="v" horiz-adv-x="1024" d="M61 952l11 11h24l10 -11l406 -911l406 911l10 11h24l11 -11l-420 -942l-11 -10h-40l-11 10z" />
<glyph unicode="w" horiz-adv-x="1597" d="M61 952l11 11h24l10 -11l365 -907l307 866l10 11h21l10 -11l307 -866l365 907l10 11h25l10 -11l-379 -942l-10 -10h-41l-10 10l-297 840l-297 -840l-10 -10h-41l-11 10z" />
<glyph unicode="x" horiz-adv-x="901" d="M61 10l363 482l-342 460l10 11h21l20 -11l318 -430l317 430l20 11h21l10 -11l-342 -460l363 -482l-11 -10h-20l-21 10l-337 451l-338 -451l-21 -10h-20z" />
<glyph unicode="y" horiz-adv-x="1024" d="M61 -461l11 10q79 0 133 52.5t123 173.5l164 338l-431 839l11 11h20l21 -11l409 -788l389 788l21 11h20l11 -11l-594 -1198q-68 -128 -132.5 -187t-164.5 -59l-11 15v16z" />
<glyph unicode="z" horiz-adv-x="921" d="M82 10l686 912h-637l-8 10v20l10 11h696l11 -11l-686 -911h675l11 -10v-21l-11 -10h-737z" />
<glyph unicode="{" horiz-adv-x="778" d="M123 461v20l10 11q74 0 122.5 40.5t68.5 102.5t20 143q0 44 -8 154t-8 215q0 328 317 328l10 -11v-20l-10 -10q-142 0 -207 -72.5t-65 -214.5q0 -105 8 -215t8 -154q0 -244 -174 -307q174 -63 174 -307q0 -44 -8 -154t-8 -215q0 -142 65 -214.5t207 -72.5l10 -10v-20 l-10 -10q-317 0 -317 327q0 105 8 215t8 154q0 81 -20 143.5t-68.5 103t-122.5 40.5z" />
<glyph unicode="|" horiz-adv-x="614" d="M287 -604v2027l10 11h20l11 -11v-2027l-11 -10h-20z" />
<glyph unicode="}" horiz-adv-x="778" d="M123 -502l10 10q143 0 208 72.5t65 214.5q0 105 -8.5 215t-8.5 154q0 244 174 307q-174 63 -174 307q0 44 8.5 154t8.5 215q0 142 -65 214.5t-208 72.5l-10 10v20l10 11q318 0 318 -328q0 -105 -8.5 -215t-8.5 -154q0 -81 20 -143t68.5 -102.5t122.5 -40.5l10 -11v-20 l-10 -10q-74 0 -122.5 -40.5t-68.5 -103t-20 -143.5q0 -44 8.5 -154t8.5 -215q0 -327 -318 -327l-10 10v20z" />
<glyph unicode="~" horiz-adv-x="1146" d="M154 676q77 143 225 143q80 0 207.5 -46t191.5 -46q129 0 205 102l10 -10q-77 -143 -225 -143q-80 0 -207.5 46t-191.5 46q-129 0 -205 -102z" />
<glyph unicode="&#xa2;" horiz-adv-x="1146" d="M123 727q0 207 128.5 348t342.5 164v184l10 11h21l10 -11v-184q191 0 328 -102v-31l-11 -10q-81 58 -153.5 80t-163.5 22v-942q91 0 163.5 22t153.5 80l11 -10v-31q-137 -102 -328 -102v-205l-10 -10h-21l-10 10v205q-212 15 -341.5 158.5t-129.5 353.5zM168 727 q0 -191 120.5 -323.5t305.5 -147.5v942q-185 -15 -305.5 -147.5t-120.5 -323.5z" />
<glyph unicode="&#xa3;" horiz-adv-x="1146" d="M82 635l10 20l10 11h207q7 113 14.5 196.5t20.5 171t30 149t42.5 118t58.5 90t78.5 53.5t101.5 20q88 0 153.5 -39.5t123.5 -124.5l-21 -30h-10q-53 83 -111.5 118t-134.5 35q-37 0 -67.5 -8.5t-56 -27.5t-45.5 -41.5t-36.5 -60t-28.5 -71.5t-22.5 -87.5t-17 -97.5 t-13 -112t-11 -120t-9.5 -131h410l10 -11l-10 -20l-10 -10h-400q-15 -174 -68 -357t-106 -227h901l10 -10l-12 -25l-18 -6h-953l-10 10q84 70 140.5 251.5t74.5 363.5h-215z" />
<glyph unicode="&#xa5;" horiz-adv-x="1146" d="M143 1423l11 11h20l21 -11l378 -665l379 667l21 9h20l11 -11l-390 -675h297l11 -11v-20l-11 -10h-317v-287h317l11 -10v-21l-11 -10h-317v-369l-10 -10h-21l-10 10v369h-317l-11 10v21l11 10h317v287h-317l-11 10v20l11 11h296z" />
<glyph unicode="&#xa8;" d="M328 1219v20l51 51h20l52 -51v-20l-52 -52h-20zM778 1219v20l51 51h21l51 -51v-20l-51 -52h-21z" />
<glyph unicode="&#xa9;" horiz-adv-x="1720" d="M123 717q0 210 101 382.5t269.5 268.5t366.5 96t366.5 -96t269.5 -268.5t101 -382.5q0 -158 -59.5 -298t-159.5 -238t-235 -155t-283 -57t-283 57t-235 155t-159.5 238t-59.5 298zM168 717q0 -191 93.5 -354t253 -258t345.5 -95t345.5 95t253 258t93.5 354t-93.5 354 t-253 257.5t-345.5 94.5t-345.5 -94.5t-253 -257.5t-93.5 -354zM481 727q0 161 117 275t283 114q70 0 136 -19.5t109 -52.5v-30l-10 -10q-100 71 -235 71q-147 0 -251 -101t-104 -247t104 -247t251 -101q119 0 235 82l10 -15v-26q-46 -35 -112 -58.5t-133 -23.5 q-166 0 -283 114t-117 275z" />
<glyph unicode="&#xab;" horiz-adv-x="983" d="M82 471v21l399 399l11 -10v-31l-369 -369l369 -368v-31l-11 -10zM451 471v21l399 399l10 -10v-31l-368 -369l368 -368v-31l-10 -10z" />
<glyph unicode="&#xad;" horiz-adv-x="819" d="M82 471v21l10 10h635l10 -10v-21l-10 -10h-635z" />
<glyph unicode="&#xae;" horiz-adv-x="1146" d="M123 1044q0 186 132 318.5t318 132.5t318.5 -132.5t132.5 -318.5t-132.5 -318t-318.5 -132t-318 132t-132 318zM168 1044q0 -169 119 -289t286 -120t286.5 120t119.5 289t-119.5 289.5t-286.5 120.5t-286 -120.5t-119 -289.5zM440 829v441l11 10h143q75 0 119.5 -40.5 t44.5 -102.5q0 -58 -36.5 -94.5t-86.5 -43.5l123 -170l-10 -10h-21l-20 10l-123 164h-103v-164l-10 -10h-20zM481 1034h113q56 0 87.5 29t31.5 74t-30 73.5t-89 28.5h-113v-205z" />
<glyph unicode="&#xb4;" d="M502 1065l297 297l20 10h33l8 -10l-307 -297l-21 -10h-20z" />
<glyph unicode="&#xb8;" d="M389 -420l21 31h10q54 -72 143 -72q67 0 108.5 38.5t41.5 94.5t-41.5 94.5t-108.5 38.5l-10 11l41 184h41l-31 -154q71 -15 112.5 -60.5t41.5 -113.5q0 -71 -56 -122.5t-139 -51.5q-57 0 -102.5 23.5t-71.5 58.5z" />
<glyph unicode="&#xbb;" horiz-adv-x="983" d="M123 82v31l369 368l-369 369v31l10 10l399 -399v-21l-399 -399zM492 82v31l368 368l-368 369v31l10 10l399 -399v-21l-399 -399z" />
<glyph unicode="&#x2c6;" d="M338 1065l246 297l20 10h21l20 -10l246 -297l-10 -10h-21l-20 10l-226 276l-225 -276l-20 -10h-21z" />
<glyph unicode="&#x2da;" d="M410 1229q0 80 60 137t144 57q85 0 145 -57t60 -137t-60.5 -137.5t-144.5 -57.5t-144 57.5t-60 137.5zM455 1229q0 -63 45.5 -108.5t113.5 -45.5t114 45.5t46 108.5t-46 108t-114 45t-113.5 -45t-45.5 -108z" />
<glyph unicode="&#x2dc;" d="M266 1116q43 80 90 112t105 32q45 0 90 -17.5t76 -39t72.5 -39t78.5 -17.5q53 0 90 25t84 88l11 -11q-43 -80 -90 -111.5t-105 -31.5q-45 0 -90 17.5t-76 39t-72.5 39t-78.5 17.5q-53 0 -90.5 -25t-84.5 -88z" />
<glyph unicode="&#x400;" horiz-adv-x="1064" d="M205 10v1413l10 11h696l11 -11v-20l-11 -10h-665v-584h502l10 -10v-21l-10 -10h-502v-727h727l10 -10v-21l-10 -10h-758zM307 1782l8 10h54l20 -10l297 -256l-10 -10h-21l-20 10z" />
<glyph unicode="&#x401;" horiz-adv-x="1064" d="M205 10v1413l10 11h696l11 -11v-20l-11 -10h-665v-584h502l10 -10v-21l-10 -10h-502v-727h727l10 -10v-21l-10 -10h-758zM266 1638v21l62 61h20l62 -61v-21l-62 -61h-20zM737 1638v21l62 61h20l62 -61v-21l-62 -61h-20z" />
<glyph unicode="&#x402;" horiz-adv-x="1679" d="M102 1403v20l11 11h1044l10 -11v-20l-10 -10h-543v-635q66 58 169.5 95.5t220.5 37.5q232 0 361.5 -151t129.5 -433v-389q0 -317 -215 -317q-72 0 -113 20v31l11 10q41 -20 102 -20q38 0 66.5 12t54.5 42t39.5 88.5t13.5 143.5v359q0 281 -116 422t-334 141 q-118 0 -209.5 -35t-180.5 -108v-697l-10 -10h-20l-11 10v1383h-460z" />
<glyph unicode="&#x403;" horiz-adv-x="983" d="M205 10v1413l10 11h696l11 -11v-20l-11 -10h-665v-1383l-10 -10h-21zM461 1526l297 256l20 10h53l9 -10l-328 -256l-20 -10h-21z" />
<glyph unicode="&#x404;" horiz-adv-x="1556" d="M143 717q0 151 60 289t161 238.5t241.5 160t295.5 59.5q280 0 492 -153v-41l-11 -10q-206 163 -481 163q-186 0 -345.5 -86.5t-257 -236.5t-110.5 -332h846l10 -10v-21l-10 -10h-846q0 -147 57 -280t153 -228.5t227.5 -152t275.5 -56.5q273 0 481 164l11 -10v-41 q-213 -154 -492 -154q-155 0 -295.5 59.5t-241.5 160t-161 239t-60 289.5z" />
<glyph unicode="&#x405;" horiz-adv-x="1126" d="M113 266l20 10h21q44 -126 152.5 -196t236.5 -70q155 0 265 111t110 268q0 59 -25 110t-67.5 89.5t-97.5 73.5t-116 66l-122 62t-116 66.5t-97.5 75t-67.5 92t-25 113.5q0 135 99 231t239 96q118 0 210 -58.5t149 -156.5l-21 -10h-20q-117 184 -318 184 q-121 0 -207 -83.5t-86 -202.5q0 -68 40.5 -125.5t105 -99.5t143 -81.5t157 -82t143 -90.5t105 -117t40.5 -152q0 -173 -123.5 -296.5t-296.5 -123.5q-152 0 -263.5 78.5t-166.5 218.5z" />
<glyph unicode="&#x406;" horiz-adv-x="450" d="M205 10v1413l10 11h21l10 -11v-1413l-10 -10h-21z" />
<glyph unicode="&#x407;" horiz-adv-x="450" d="M-41 1638v21l61 61h21l61 -61v-21l-61 -61h-21zM205 10v1413l10 11h21l10 -11v-1413l-10 -10h-21zM348 1638v21l62 61h20l62 -61v-21l-62 -61h-20z" />
<glyph unicode="&#x408;" horiz-adv-x="983" d="M82 240l31 16h10q36 -124 117 -185t180 -61q64 0 119 21t100.5 64.5t71.5 118.5t26 175v1034l11 11h20l10 -11v-1044q0 -194 -99.5 -302t-258.5 -108q-115 0 -208.5 68.5t-129.5 202.5z" />
<glyph unicode="&#x409;" horiz-adv-x="2129" d="M82 0l10 10q174 0 225 287l175 1126l10 11h676l10 -11v-614h338q228 0 354.5 -106.5t126.5 -292.5q0 -187 -127 -298.5t-354 -111.5h-369l-10 10v1383h-615l-174 -1127q-31 -149 -95.5 -223t-170.5 -74l-10 11v20zM1188 41h338q203 0 319.5 102t116.5 267 q0 169 -114.5 263.5t-321.5 94.5h-338v-727z" />
<glyph unicode="&#x40a;" horiz-adv-x="2129" d="M205 10v1413l10 11h21l10 -11v-614h901v614l10 11h21l10 -11v-614h338q228 0 354.5 -106.5t126.5 -292.5q0 -187 -127 -298.5t-354 -111.5h-369l-10 10v758h-901v-758l-10 -10h-21zM1188 41h338q203 0 319.5 102t116.5 267q0 169 -114.5 263.5t-321.5 94.5h-338v-727z " />
<glyph unicode="&#x40b;" horiz-adv-x="1638" d="M61 1403v20l11 11h1044l10 -11v-20l-10 -10h-543v-635q66 58 169.5 95.5t220.5 37.5q232 0 361.5 -151t129.5 -433v-297l-10 -10h-21l-10 10v277q0 281 -116 422t-334 141q-118 0 -209.5 -35t-180.5 -108v-697l-10 -10h-20l-11 10v1383h-460z" />
<glyph unicode="&#x40c;" horiz-adv-x="1187" d="M205 10v1413l10 11h21l10 -11v-614h246l563 614l20 11h21l10 -11l-574 -635l594 -778l-10 -10h-20l-21 10l-583 758h-246v-758l-10 -10h-21zM604 1526l297 256l21 10h53l8 -10l-328 -256l-20 -10h-21z" />
<glyph unicode="&#x40d;" horiz-adv-x="1515" d="M205 10v1413l10 11h21l10 -11v-1362l1007 1362l21 11h26l11 -11v-1413l-11 -10h-20l-10 10v1362l-1010 -1362l-20 -10h-25zM492 1782l8 10h53l20 -10l297 -256l-10 -10h-20l-21 10z" />
<glyph unicode="&#x40e;" horiz-adv-x="1187" d="M61 1423l11 11h20l10 -11l492 -972l491 972l11 11h20l10 -11l-614 -1228q-122 -226 -369 -226l-10 15v16l10 10q120 0 197.5 53t130.5 142l102 194zM276 1782l11 10h20l10 -10q14 -121 93.5 -178.5t183.5 -57.5t183 57.5t93 178.5l11 10h20l10 -10q-7 -71 -34.5 -125 t-70.5 -87t-96 -49t-116 -16t-116.5 16t-96.5 49t-70.5 87t-34.5 125z" />
<glyph unicode="&#x40f;" horiz-adv-x="1392" d="M205 10v1413l10 11h21l10 -11v-1382h901v1382l10 11h21l10 -11v-1413l-10 -10h-461v-358l-10 -11h-21l-10 11v358h-461z" />
<glyph unicode="&#x410;" horiz-adv-x="1310" d="M61 10l564 1413l10 11h41l10 -11l563 -1413l-10 -10h-20l-11 10l-198 492h-709l-199 -492l-10 -10h-20zM317 543h676l-338 850z" />
<glyph unicode="&#x411;" d="M205 10v1413l10 11h696l11 -11v-20l-11 -10h-665v-584h379q228 0 354.5 -106.5t126.5 -292.5q0 -187 -127 -298.5t-354 -111.5h-410zM246 41h379q203 0 319.5 102t116.5 267q0 169 -114.5 263.5t-321.5 94.5h-379v-727z" />
<glyph unicode="&#x412;" d="M205 10v1413l10 11h297q207 0 313.5 -92.5t106.5 -245.5q0 -104 -61 -180.5t-164 -116.5q193 -22 296 -129.5t103 -259.5q0 -183 -136 -296.5t-345 -113.5h-410zM246 41h379q192 0 314 103.5t122 265.5q0 159 -121 253.5t-315 94.5h-379v-717zM246 799h266 q154 0 264.5 87t110.5 210q0 126 -94 211.5t-281 85.5h-266v-594z" />
<glyph unicode="&#x413;" horiz-adv-x="983" d="M205 10v1413l10 11h696l11 -11v-20l-11 -10h-665v-1383l-10 -10h-21z" />
<glyph unicode="&#x414;" horiz-adv-x="1515" d="M123 31l10 10h96q82 63 129 297l113 1085l10 11h738l10 -11v-1382h153l11 -10v-389l-11 -11h-20l-10 11v358h-1188v-358l-10 -11h-21l-10 11v389zM297 41h891v1352h-676l-113 -1086q-26 -171 -102 -266z" />
<glyph unicode="&#x415;" horiz-adv-x="1064" d="M205 10v1413l10 11h696l11 -11v-20l-11 -10h-665v-584h502l10 -10v-21l-10 -10h-502v-727h727l10 -10v-21l-10 -10h-758z" />
<glyph unicode="&#x416;" horiz-adv-x="1761" d="M61 10l512 778l-491 635l10 11h21l20 -11l475 -614h252v614l10 11h21l10 -11v-614h252l475 614l21 11h20l10 -11l-491 -635l512 -778l-10 -10h-21l-20 10l-496 758h-252v-758l-10 -10h-21l-10 10v758h-252l-495 -758l-21 -10h-20z" />
<glyph unicode="&#x417;" horiz-adv-x="1167" d="M82 184l20 21h21q66 -88 191 -141.5t239 -53.5q191 0 318.5 119.5t127.5 290.5q0 122 -91.5 219.5t-231.5 97.5h-256l-10 11v20l10 10h235q42 0 88.5 22t85.5 59.5t64 92t25 113.5q0 151 -110 254.5t-276 103.5q-212 0 -348 -174h-20l-21 21q64 88 166.5 141t222.5 53 q184 0 307.5 -116t123.5 -283q0 -100 -53.5 -177t-131.5 -120q112 -32 189 -127t77 -221q0 -188 -140.5 -319.5t-350.5 -131.5q-132 0 -265 56.5t-206 158.5z" />
<glyph unicode="&#x418;" horiz-adv-x="1515" d="M205 10v1413l10 11h21l10 -11v-1362l1007 1362l21 11h26l11 -11v-1413l-11 -10h-20l-10 10v1362l-1010 -1362l-20 -10h-25z" />
<glyph unicode="&#x419;" horiz-adv-x="1515" d="M205 10v1413l10 11h21l10 -11v-1362l1007 1362l21 11h26l11 -11v-1413l-11 -10h-20l-10 10v1362l-1010 -1362l-20 -10h-25zM440 1782l11 10h20l10 -10q14 -121 93.5 -178.5t183.5 -57.5t183 57.5t93 178.5l10 10h21l10 -10q-7 -71 -34.5 -125t-70.5 -87t-96 -49t-116 -16 t-116.5 16t-96.5 49t-70.5 87t-34.5 125z" />
<glyph unicode="&#x41a;" horiz-adv-x="1187" d="M205 10v1413l10 11h21l10 -11v-614h246l563 614l20 11h21l10 -11l-574 -635l594 -778l-10 -10h-20l-21 10l-583 758h-246v-758l-10 -10h-21z" />
<glyph unicode="&#x41b;" horiz-adv-x="1433" d="M82 0l10 10q174 0 225 287l175 1126l10 11h717l10 -11v-1413l-10 -10h-21l-10 10v1383h-656l-174 -1127q-31 -149 -95.5 -223t-170.5 -74l-10 11v20z" />
<glyph unicode="&#x41c;" horiz-adv-x="1679" d="M205 10v1413l10 11h21l20 -11l584 -737l583 737l21 11h20l11 -11v-1413l-11 -10h-20l-10 10v1362l-584 -737h-21l-583 737v-1362l-10 -10h-21z" />
<glyph unicode="&#x41d;" horiz-adv-x="1433" d="M205 10v1413l10 11h21l10 -11v-614h942v614l10 11h21l10 -11v-1413l-10 -10h-21l-10 10v758h-942v-758l-10 -10h-21z" />
<glyph unicode="&#x41e;" horiz-adv-x="1802" d="M143 717q0 152 60 290t161.5 238.5t242 159.5t294.5 59t294.5 -59t242 -159.5t161.5 -238.5t60 -290t-60 -290.5t-161.5 -238.5t-242 -159.5t-294.5 -59.5t-294.5 59.5t-242 159.5t-161.5 238.5t-60 290.5zM188 717q0 -191 96.5 -354t261 -258t355.5 -95t355.5 95 t261 258t96.5 354q0 143 -57 274t-153 225.5t-228 150.5t-275 56t-275 -56t-228 -150.5t-153 -225.5t-57 -274z" />
<glyph unicode="&#x41f;" horiz-adv-x="1392" d="M205 10v1413l10 11h963l10 -11v-1413l-10 -10h-21l-10 10v1383h-901v-1383l-10 -10h-21z" />
<glyph unicode="&#x420;" horiz-adv-x="1105" d="M205 10v1413l8 11h279q255 0 383.5 -105.5t128.5 -294.5t-128.5 -294t-383.5 -105h-246v-625l-10 -10h-21zM246 676h246q225 0 345.5 91t120.5 267t-121 267.5t-345 91.5h-246v-717z" />
<glyph unicode="&#x421;" horiz-adv-x="1556" d="M143 717q0 151 60 289t161 238.5t241.5 160t295.5 59.5q280 0 492 -153v-41l-11 -10q-206 163 -481 163q-143 0 -275 -56t-228 -150.5t-153 -225.5t-57 -274q0 -191 96.5 -354t261 -258t355.5 -95q273 0 481 164l11 -10v-41q-213 -154 -492 -154q-155 0 -295.5 59.5 t-241.5 160t-161 239t-60 289.5z" />
<glyph unicode="&#x422;" horiz-adv-x="1269" d="M61 1403v20l11 11h1126l10 -11v-20l-10 -10h-543v-1383l-10 -10h-20l-11 10v1383h-542z" />
<glyph unicode="&#x423;" horiz-adv-x="1187" d="M61 1423l11 11h20l10 -11l492 -972l491 972l11 11h20l10 -11l-614 -1228q-122 -226 -369 -226l-10 15v16l10 10q120 0 197.5 53t130.5 142l102 194z" />
<glyph unicode="&#x424;" horiz-adv-x="1679" d="M123 717q0 121 43.5 227.5t127 190.5t218.5 136.5t307 59.5v174l10 11h21l10 -11v-174q172 -7 307 -59.5t218.5 -136.5t127 -190.5t43.5 -227.5t-43.5 -227.5t-127 -191t-219 -137t-306.5 -59.5v-174l-10 -10h-21l-10 10v174q-171 7 -306.5 59.5t-219 137t-127 191 t-43.5 227.5zM168 717q0 -88 24 -168t75.5 -152t127 -126t184 -88t240.5 -40v1147q-132 -6 -240.5 -40t-184 -88t-127 -125.5t-75.5 -151.5t-24 -168zM860 143q132 6 240.5 40t184 88t127 126t75.5 152t24 168t-24 168t-75.5 151.5t-127 125.5t-184 88t-240.5 40v-1147z" />
<glyph unicode="&#x425;" horiz-adv-x="1351" d="M61 10l590 731l-549 682l11 11h20l21 -11l522 -649l522 649l21 11h20l10 -11l-549 -682l590 -731l-10 -10h-20l-21 10l-563 701l-563 -701l-21 -10h-20z" />
<glyph unicode="&#x426;" horiz-adv-x="1433" d="M205 10v1413l10 11h21l10 -11v-1382h901v1382l10 11h21l10 -11v-1382h153l11 -10v-389l-11 -11h-20l-10 11v358h-1096z" />
<glyph unicode="&#x427;" horiz-adv-x="1310" d="M184 1167v256l11 11h20l10 -11v-235q0 -280 116.5 -421.5t334.5 -141.5q118 0 209 35t180 108v655l10 11h21l10 -11v-1413l-10 -10h-21l-10 10v707q-66 -58 -169 -95.5t-220 -37.5q-233 0 -362.5 151t-129.5 432z" />
<glyph unicode="&#x428;" horiz-adv-x="1843" d="M205 10v1413l10 11h21l10 -11v-1382h655v1382l10 11h21l10 -11v-1382h655v1382l11 11h20l10 -11v-1413l-10 -10h-1413z" />
<glyph unicode="&#x429;" horiz-adv-x="1884" d="M205 10v1413l10 11h21l10 -11v-1382h655v1382l10 11h21l10 -11v-1382h655v1382l11 11h20l10 -11v-1382h154l10 -10v-389l-10 -11h-20l-11 11v358h-1546z" />
<glyph unicode="&#x42a;" horiz-adv-x="1474" d="M61 1403v20l11 11h450l10 -11v-614h338q228 0 355 -106.5t127 -292.5q0 -187 -127.5 -298.5t-354.5 -111.5h-368l-10 10v1383h-420zM532 41h338q203 0 320 102t117 267q0 169 -115 263.5t-322 94.5h-338v-727z" />
<glyph unicode="&#x42b;" horiz-adv-x="1556" d="M205 10v1413l10 11h21l10 -11v-614h338q228 0 354.5 -106.5t126.5 -292.5q0 -187 -127 -298.5t-354 -111.5h-369zM246 41h338q203 0 319.5 102t116.5 267q0 169 -114.5 263.5t-321.5 94.5h-338v-727zM1311 10v1413l10 11h20l11 -11v-1413l-11 -10h-20z" />
<glyph unicode="&#x42c;" d="M205 10v1413l10 11h21l10 -11v-614h379q228 0 354.5 -106.5t126.5 -292.5q0 -187 -127 -298.5t-354 -111.5h-410zM246 41h379q203 0 319.5 102t116.5 267q0 169 -114.5 263.5t-321.5 94.5h-379v-727z" />
<glyph unicode="&#x42d;" horiz-adv-x="1556" d="M164 123v41l10 10q208 -164 481 -164q144 0 275.5 56.5t227.5 152t153 228.5t57 280h-846l-10 10v21l10 10h846q-13 182 -110.5 332t-257 236.5t-345.5 86.5q-275 0 -481 -163l-10 10v41q212 153 491 153q155 0 295.5 -59.5t241.5 -160t161 -238.5t60 -289t-60 -289.5 t-161 -239t-241.5 -160t-295.5 -59.5q-278 0 -491 154z" />
<glyph unicode="&#x42e;" horiz-adv-x="2211" d="M205 10v1413l10 11h21l10 -11v-655h350q7 140 66.5 268t156.5 222t231 150t281 56q154 0 291 -59t234.5 -159.5t154.5 -238.5t57 -290t-57 -290t-154.5 -238.5t-234.5 -160t-291 -59.5q-158 0 -296 59.5t-234.5 161.5t-151.5 241.5t-55 295.5h-348v-717l-10 -10h-21z M639 717q0 -144 54 -274.5t146 -225.5t220.5 -151t271.5 -56t271.5 56t220.5 151t146 225.5t54 274.5q0 192 -91 354t-250.5 257t-350.5 95t-350.5 -95t-250.5 -257t-91 -354z" />
<glyph unicode="&#x42f;" horiz-adv-x="1187" d="M61 10l523 690q-73 15 -134.5 42t-113.5 69.5t-81.5 107.5t-29.5 146q0 176 114.5 272.5t315.5 96.5h318l10 -11v-1413l-10 -10h-21l-10 10v686h-307l-522 -686l-11 -10h-30zM270 1065q0 -71 26 -128t68 -94t98.5 -61.5t114.5 -34.5t119 -10h246v656h-287 q-180 0 -282.5 -84.5t-102.5 -243.5z" />
<glyph unicode="&#x430;" horiz-adv-x="1064" d="M123 225q0 93 51.5 160.5t151 108t223.5 61.5t291 29q0 198 -89 283t-259 85q-76 0 -143 -21.5t-144 -60.5l-10 11l20 41q140 71 277 71q199 0 294 -100.5t95 -308.5v-574l-11 -10h-20l-10 10v103q-78 -61 -180 -102.5t-209 -41.5q-143 0 -235.5 68.5t-92.5 187.5z M168 225q0 -103 80.5 -159t202.5 -56q103 0 209.5 44.5t179.5 109.5v379q-101 -5 -182 -14t-160 -24.5t-136.5 -39.5t-102.5 -57t-68 -79t-23 -104z" />
<glyph unicode="&#x431;" horiz-adv-x="1269" d="M143 686q0 182 40.5 332t109.5 246t157 148t185 52q48 0 130.5 -10t115.5 -10q71 0 133 20l10 -10v-20l-10 -11q-82 -20 -133 -20q-41 0 -123 10t-123 10q-85 0 -162.5 -47t-138 -132t-98 -214t-41.5 -282q70 87 187 145.5t273 58.5q127 0 236 -65.5t172 -176.5t63 -239 q0 -138 -63 -253.5t-171.5 -182t-236.5 -66.5q-88 0 -163.5 25t-140.5 80.5t-110.5 138t-71.5 203t-26 270.5zM195 676q0 -172 34 -302t96.5 -208.5t145 -117t184.5 -38.5q177 0 301.5 134.5t124.5 326.5q0 179 -125 309.5t-301 130.5q-155 0 -275 -65t-185 -170z" />
<glyph unicode="&#x432;" horiz-adv-x="1064" d="M205 10v942l10 11h399q120 0 193.5 -71.5t73.5 -174.5q0 -84 -44.5 -140.5t-99.5 -74.5q93 -15 149 -81t56 -165q0 -109 -79.5 -182.5t-207.5 -73.5h-440zM246 41h409q113 0 179.5 60.5t66.5 154.5q0 96 -63.5 155.5t-182.5 59.5h-409v-430zM246 512h368q98 0 162 59.5 t64 145.5t-64 145.5t-162 59.5h-368v-410z" />
<glyph unicode="&#x433;" horiz-adv-x="901" d="M205 10v942l10 11h635l10 -11v-20l-10 -10h-604v-912l-10 -10h-21z" />
<glyph unicode="&#x434;" horiz-adv-x="1105" d="M82 31l10 10h62q67 67 92 235l71 676l11 11h522l10 -11v-911h154l10 -10v-307l-10 -11h-21l-10 11v276h-860v-276l-10 -11h-21l-10 11v307zM215 41h604v881h-461l-71 -666q-35 -178 -72 -215z" />
<glyph unicode="&#x435;" horiz-adv-x="1126" d="M123 492q0 140 57 253.5t165.5 180.5t248.5 67q85 0 156 -28t117 -73.5t78 -104.5t45.5 -117.5t13.5 -116.5q0 -26 -11 -51l-20 -10h-805q0 -205 128.5 -343.5t338.5 -138.5q91 0 179.5 35.5t158.5 97.5l10 -10v-31q-51 -51 -149.5 -92t-198.5 -41q-154 0 -272 71.5 t-179 190t-61 261.5zM168 532h795q-8 189 -106 304.5t-263 115.5q-186 0 -298 -118t-128 -302z" />
<glyph unicode="&#x436;" horiz-adv-x="1392" d="M61 10l338 502l-317 440l10 11h27l20 -11l297 -420h240v420l10 11h21l10 -11v-420h239l297 420l21 11h26l11 -11l-318 -440l338 -502l-10 -10h-27l-20 10l-318 482h-239v-482l-10 -10h-21l-10 10v482h-240l-317 -482l-21 -10h-26z" />
<glyph unicode="&#x437;" horiz-adv-x="983" d="M123 61v31l10 10q130 -92 338 -92q163 0 253.5 72.5t90.5 183.5q0 82 -74 143.5t-198 61.5h-185l-10 10v21l10 10h154q105 0 183.5 59.5t78.5 155.5q0 92 -79 158.5t-224 66.5q-89 0 -149 -17t-148 -65l-10 11v32q79 42 143.5 61t163.5 19q85 0 153.5 -22.5t110 -60.5 t63 -85t21.5 -98q0 -152 -164 -225q90 -25 147.5 -86.5t57.5 -149.5q0 -130 -99 -213.5t-290 -83.5q-224 0 -348 92z" />
<glyph unicode="&#x438;" d="M205 10v942l10 11h21l10 -11v-891l725 891l20 11h21l12 -11v-942l-12 -10h-21l-8 10v891l-727 -891l-20 -10h-21z" />
<glyph unicode="&#x439;" d="M205 10v942l10 11h21l10 -11v-891l725 891l20 11h21l12 -11v-942l-12 -10h-21l-8 10v891l-727 -891l-20 -10h-21zM307 1362l10 10h21l10 -10q15 -122 86 -189t180 -67t180.5 67.5t86.5 188.5l10 10h20l11 -10q-15 -139 -96.5 -218t-211.5 -79t-211 79t-96 218z" />
<glyph unicode="&#x43a;" horiz-adv-x="1024" d="M205 10v942l10 11h21l10 -11v-420h260l358 420l21 11h26l11 -11l-379 -440l420 -502l-11 -10h-26l-21 10l-399 482h-260v-482l-10 -10h-21z" />
<glyph unicode="&#x43b;" horiz-adv-x="1105" d="M82 0l10 10q67 0 108.5 66t65.5 200l92 676l11 11h522l10 -11v-942l-10 -10h-21l-10 10v912h-461l-92 -666q-25 -147 -72.5 -217t-142.5 -70l-10 15v16z" />
<glyph unicode="&#x43c;" horiz-adv-x="1351" d="M205 10v942l10 11h21l20 -11l420 -532l420 532l20 11h21l10 -11v-942l-10 -10h-21l-10 10v881l-420 -522h-20l-420 522v-881l-10 -10h-21z" />
<glyph unicode="&#x43d;" horiz-adv-x="1187" d="M205 10v942l10 11h21l10 -11v-420h696v420l10 11h21l10 -11v-942l-10 -10h-21l-10 10v482h-696v-482l-10 -10h-21z" />
<glyph unicode="&#x43e;" d="M123 481q0 215 142 363.5t349 148.5t349.5 -148.5t142.5 -363.5t-142.5 -363.5t-349.5 -148.5t-349 148.5t-142 363.5zM168 481q0 -198 130 -334.5t316 -136.5t316.5 136.5t130.5 334.5t-130.5 334.5t-316.5 136.5t-316 -136.5t-130 -334.5z" />
<glyph unicode="&#x43f;" horiz-adv-x="1187" d="M205 10v942l10 11h758l10 -11v-942l-10 -10h-21l-10 10v912h-696v-912l-10 -10h-21z" />
<glyph unicode="&#x440;" horiz-adv-x="1269" d="M205 -461v1413l10 11h21l10 -11v-164q71 95 176.5 150t232.5 55q207 0 349.5 -148.5t142.5 -363.5t-142.5 -363.5t-349.5 -148.5q-127 0 -232.5 55t-176.5 150v-635l-10 -10h-21zM246 246q62 -109 171 -172.5t238 -63.5q186 0 316.5 136.5t130.5 334.5t-130.5 334.5 t-316.5 136.5q-129 0 -238 -63.5t-171 -171.5v-471z" />
<glyph unicode="&#x441;" horiz-adv-x="1085" d="M123 481q0 141 63 257.5t181 185.5t268 69q191 0 328 -102v-31l-11 -10q-81 58 -153.5 80t-163.5 22q-199 0 -333 -135.5t-134 -335.5t134 -335.5t333 -135.5q90 0 163 22t154 81l11 -11v-30q-138 -103 -328 -103q-150 0 -268 69t-181 185.5t-63 257.5z" />
<glyph unicode="&#x442;" horiz-adv-x="983" d="M41 932v20l10 11h881l10 -11v-20l-10 -10h-420v-912l-10 -10h-21l-10 10v912h-420z" />
<glyph unicode="&#x443;" horiz-adv-x="1024" d="M61 -461l11 10q79 0 133 52.5t123 173.5l164 338l-431 839l11 11h20l21 -11l409 -788l389 788l21 11h20l11 -11l-594 -1198q-68 -128 -132.5 -187t-164.5 -59l-11 15v16z" />
<glyph unicode="&#x444;" horiz-adv-x="1351" d="M123 481q0 96 36.5 186t102.5 161.5t168 116t225 48.5v430l11 11h20l10 -11v-430q123 -4 225.5 -48.5t168.5 -116t102.5 -161.5t36.5 -186q0 -129 -66 -243.5t-190 -189t-277 -79.5v-430l-10 -10h-20l-11 10v430q-116 4 -216.5 48.5t-169 115.5t-107.5 161.5t-39 186.5z M168 481q0 -118 61 -223.5t174 -174t252 -73.5v942q-112 -4 -205 -44.5t-154 -106t-94.5 -148.5t-33.5 -172zM696 10q105 4 197 45t155 106t99.5 148.5t36.5 171.5q0 89 -33.5 172t-94.5 148.5t-154.5 106t-205.5 44.5v-942z" />
<glyph unicode="&#x445;" horiz-adv-x="901" d="M61 10l363 482l-342 460l10 11h21l20 -11l318 -430l317 430l20 11h21l10 -11l-342 -460l363 -482l-11 -10h-20l-21 10l-337 451l-338 -451l-21 -10h-20z" />
<glyph unicode="&#x446;" d="M205 10v942l10 11h21l10 -11v-911h696v911l10 11h21l10 -11v-911h154l10 -10v-307l-10 -11h-21l-10 11v276h-891z" />
<glyph unicode="&#x447;" horiz-adv-x="1064" d="M143 768v184l11 11h20l10 -11v-174q0 -178 89.5 -258t258.5 -80q78 0 163.5 27t123.5 65v420l10 11h21l10 -11v-942l-10 -10h-21l-10 10v471q-52 -37 -133.5 -59.5t-153.5 -22.5q-389 0 -389 369z" />
<glyph unicode="&#x448;" horiz-adv-x="1638" d="M205 10v942l10 11h21l10 -11v-911h553v911l10 11h20l11 -11v-911h553v911l10 11h20l11 -11v-942l-11 -10h-1208z" />
<glyph unicode="&#x449;" horiz-adv-x="1679" d="M205 10v942l10 11h21l10 -11v-911h553v911l10 11h20l11 -11v-911h553v911l10 11h20l11 -11v-911h153l10 -10v-307l-10 -11h-20l-11 11v276h-1341z" />
<glyph unicode="&#x44a;" horiz-adv-x="1105" d="M61 932v20l11 11h327l11 -11v-379h225q166 0 257 -76.5t91 -209.5t-91 -210t-257 -77h-256l-10 10v912h-297zM410 41h225q148 0 225.5 67.5t77.5 178.5t-77.5 178t-225.5 67h-225v-491z" />
<glyph unicode="&#x44b;" horiz-adv-x="1269" d="M205 10v942l10 11h21l10 -11v-379h225q166 0 257 -76.5t91 -209.5t-91 -210t-257 -77h-256zM246 41h225q149 0 226 67t77 179t-77 178.5t-226 66.5h-225v-491zM1024 10v942l10 11h21l10 -11v-942l-10 -10h-21z" />
<glyph unicode="&#x44c;" horiz-adv-x="983" d="M205 10v942l10 11h21l10 -11v-379h266q166 0 257 -76.5t91 -209.5t-91 -210t-257 -77h-297zM246 41h266q149 0 226 67t77 179t-77 178.5t-226 66.5h-266v-491z" />
<glyph unicode="&#x44d;" horiz-adv-x="1105" d="M143 72v30l11 11q81 -59 154 -81t163 -22q194 0 326.5 129t140.5 322h-580l-10 10v21l10 10h580q-8 193 -140.5 321.5t-326.5 128.5q-91 0 -163.5 -22t-153.5 -80l-11 10v31q137 102 328 102q150 0 268 -69t181 -185.5t63 -257.5t-63 -257.5t-181 -185.5t-268 -69 q-190 0 -328 103z" />
<glyph unicode="&#x44e;" horiz-adv-x="1679" d="M205 10v942l10 11h21l10 -11v-440h307q12 204 157 342.5t345 138.5q136 0 251 -67.5t182.5 -185.5t67.5 -259t-67.5 -259t-182.5 -185.5t-251 -67.5q-206 0 -352.5 145.5t-149.5 356.5h-307v-461l-10 -10h-21zM598 481q0 -98 37 -185.5t99 -150t146 -99t175 -36.5 q187 0 321.5 137t134.5 334t-134.5 334t-321.5 137q-91 0 -175 -36.5t-146 -99t-99 -150t-37 -185.5z" />
<glyph unicode="&#x44f;" horiz-adv-x="1024" d="M61 10l267 389q-205 69 -205 277q0 136 91 211.5t247 75.5h348l10 -11v-942l-10 -10h-21l-10 10v379h-409l-252 -379l-21 -10h-24zM168 676q0 -121 76.5 -183.5t216.5 -62.5h317v492h-317q-138 0 -215.5 -65t-77.5 -181z" />
<glyph unicode="&#x450;" horiz-adv-x="1126" d="M123 492q0 140 57 253.5t165.5 180.5t248.5 67q85 0 156 -28t117 -73.5t78 -104.5t45.5 -117.5t13.5 -116.5q0 -26 -11 -51l-20 -10h-805q0 -205 128.5 -343.5t338.5 -138.5q91 0 179.5 35.5t158.5 97.5l10 -10v-31q-51 -51 -149.5 -92t-198.5 -41q-154 0 -272 71.5 t-179 190t-61 261.5zM168 532h795q-8 189 -106 304.5t-263 115.5q-186 0 -298 -118t-128 -302zM348 1362l8 10h33l21 -10l297 -297l-11 -10h-20l-21 10z" />
<glyph unicode="&#x451;" horiz-adv-x="1126" d="M123 492q0 140 57 253.5t165.5 180.5t248.5 67q85 0 156 -28t117 -73.5t78 -104.5t45.5 -117.5t13.5 -116.5q0 -26 -11 -51l-20 -10h-805q0 -205 128.5 -343.5t338.5 -138.5q91 0 179.5 35.5t158.5 97.5l10 -10v-31q-51 -51 -149.5 -92t-198.5 -41q-154 0 -272 71.5 t-179 190t-61 261.5zM168 532h795q-8 189 -106 304.5t-263 115.5q-186 0 -298 -118t-128 -302zM307 1219v20l51 51h21l51 -51v-20l-51 -52h-21zM758 1219v20l51 51h20l52 -51v-20l-52 -52h-20z" />
<glyph unicode="&#x452;" d="M41 1147v20l10 11h154v245l10 11h21l10 -11v-245h522l10 -11v-20l-10 -10h-522v-430q70 94 173 149t216 55q211 0 310 -124t99 -367v-645q0 -318 -215 -318q-69 0 -112 21v30l10 11q43 -21 102 -21q38 0 67 12t54.5 42t39.5 89t14 144v625q0 233 -89.5 346.5 t-279.5 113.5q-116 0 -222 -64t-167 -171v-625l-10 -10h-21l-10 10v1127h-154z" />
<glyph unicode="&#x453;" horiz-adv-x="901" d="M205 10v942l10 11h635l10 -11v-20l-10 -10h-604v-912l-10 -10h-21zM420 1065l297 297l20 10h33l8 -10l-307 -297l-20 -10h-21z" />
<glyph unicode="&#x454;" horiz-adv-x="1085" d="M123 481q0 141 63 257.5t181 185.5t268 69q191 0 328 -102v-31l-11 -10q-81 58 -153.5 80t-163.5 22q-194 0 -326.5 -128.5t-140.5 -321.5h580l10 -10v-21l-10 -10h-580q8 -193 140.5 -322t326.5 -129q90 0 163 22t154 81l11 -11v-30q-138 -103 -328 -103q-150 0 -268 69 t-181 185.5t-63 257.5z" />
<glyph unicode="&#x455;" horiz-adv-x="942" d="M133 51v35l10 10q78 -53 149.5 -69.5t168.5 -16.5q132 0 222.5 70t90.5 176q0 56 -35 96.5t-90.5 64.5t-123 44t-134.5 41t-122.5 48.5t-90.5 75t-35 111.5q0 107 93.5 181.5t224.5 74.5q185 0 317 -82v-34l-10 -11q-133 86 -307 86q-116 0 -194.5 -61.5t-78.5 -153.5 q0 -56 35 -96t90.5 -63t123 -42t134.5 -40t122.5 -49t90.5 -76.5t35 -114.5q0 -122 -105 -204.5t-253 -82.5q-191 0 -328 82z" />
<glyph unicode="&#x456;" horiz-adv-x="450" d="M164 1219v20l51 51h21l51 -51v-20l-51 -52h-21zM205 10v942l10 11h21l10 -11v-942l-10 -10h-21z" />
<glyph unicode="&#x457;" horiz-adv-x="450" d="M-20 1219v20l51 51h20l51 -51v-20l-51 -52h-20zM205 10v942l10 11h21l10 -11v-942l-10 -10h-21zM348 1219v20l51 51h21l51 -51v-20l-51 -52h-21z" />
<glyph unicode="&#x458;" horiz-adv-x="450" d="M-82 -492l10 11q43 -21 103 -21q38 0 66.5 12t54.5 42t39.5 89t13.5 144v1167l10 11h21l10 -11v-1177q0 -318 -215 -318q-70 0 -113 21v30zM164 1219v20l51 51h21l51 -51v-20l-51 -52h-21z" />
<glyph unicode="&#x459;" horiz-adv-x="1515" d="M82 0l10 10q67 0 108.5 66t65.5 200l92 676l11 11h481l10 -11v-379h184q166 0 257.5 -77t91.5 -209q0 -133 -91.5 -210t-257.5 -77h-215l-10 10v912h-420l-92 -666q-25 -147 -72.5 -217t-142.5 -70l-10 15v16zM860 41h184q149 0 226.5 67t77.5 179q0 111 -77.5 178 t-226.5 67h-184v-491z" />
<glyph unicode="&#x45a;" horiz-adv-x="1638" d="M205 10v942l10 11h21l10 -11v-399h696v399l10 11h21l10 -11v-399h184q168 0 258.5 -73t90.5 -204t-90.5 -203.5t-258.5 -72.5h-215l-10 10v502h-696v-502l-10 -10h-21zM983 41h184q150 0 226.5 62.5t76.5 172.5t-76.5 173t-226.5 63h-184v-471z" />
<glyph unicode="&#x45b;" d="M41 1147v20l10 11h154v245l10 11h21l10 -11v-245h522l10 -11v-20l-10 -10h-522v-430q70 94 173 149t216 55q211 0 310 -124t99 -367v-410l-10 -10h-20l-10 10v400q0 233 -89.5 346.5t-279.5 113.5q-116 0 -222 -64t-167 -171v-625l-10 -10h-21l-10 10v1127h-154z" />
<glyph unicode="&#x45c;" horiz-adv-x="1024" d="M205 10v942l10 11h21l10 -11v-420h260l358 420l21 11h26l11 -11l-379 -440l420 -502l-11 -10h-26l-21 10l-399 482h-260v-482l-10 -10h-21zM461 1065l297 297l20 10h33l8 -10l-307 -297l-20 -10h-21z" />
<glyph unicode="&#x45d;" d="M205 10v942l10 11h21l10 -11v-891l725 891l20 11h21l12 -11v-942l-12 -10h-21l-8 10v891l-727 -891l-20 -10h-21zM369 1362l8 10h33l20 -10l297 -297l-10 -10h-21l-20 10z" />
<glyph unicode="&#x45e;" horiz-adv-x="1024" d="M61 -461l11 10q79 0 133 52.5t123 173.5l164 338l-431 839l11 11h20l21 -11l409 -788l389 788l21 11h20l11 -11l-594 -1198q-68 -128 -132.5 -187t-164.5 -59l-11 15v16zM215 1362l10 10h21l10 -10q15 -122 86 -189t180 -67t180 67t86 189l11 10h20l10 -10 q-15 -139 -96 -218t-211 -79t-211 79t-96 218z" />
<glyph unicode="&#x45f;" horiz-adv-x="1187" d="M205 10v942l10 11h21l10 -11v-911h696v911l10 11h21l10 -11v-942l-10 -10h-359v-276l-10 -11h-20l-11 11v276h-358z" />
<glyph unicode="&#x460;" horiz-adv-x="2048" d="M143 655q0 409 277 768l20 11h31l10 -11q-107 -131 -175 -276.5t-93 -262.5t-25 -229q0 -301 136 -473t362 -172q39 0 80.5 10t84.5 32.5t76.5 54.5t55 81.5t21.5 108.5v719l8 8h24l8 -8v-719q0 -59 21.5 -108.5t55 -81.5t76.5 -54.5t84.5 -32.5t80.5 -10q226 0 362 172 t136 473q0 112 -25 229t-93 262.5t-175 276.5l10 11h31l20 -11q277 -359 277 -768q0 -316 -150.5 -501t-392.5 -185q-115 0 -205.5 54.5t-132.5 130.5q-42 -76 -132.5 -130.5t-205.5 -54.5q-242 0 -392.5 185t-150.5 501z" />
<glyph unicode="&#x461;" horiz-adv-x="1679" d="M143 481q0 117 28.5 220t94.5 253l8 9h35l8 -9q-129 -276 -129 -473q0 -215 97 -343t258 -128q48 0 95 16.5t88.5 49.5t67 90.5t25.5 130.5v453l8 8h25l8 -8v-453q0 -73 25.5 -130.5t67 -90.5t88.5 -49.5t96 -16.5q161 0 257.5 128t96.5 343q0 197 -129 473l8 9h35l8 -9 q66 -150 94.5 -253t28.5 -220q0 -240 -104.5 -376t-294.5 -136q-112 0 -181.5 51t-115.5 134q-46 -83 -115.5 -134t-181.5 -51q-190 0 -295 136t-105 376z" />
<glyph unicode="&#x462;" horiz-adv-x="1556" d="M102 1198v21l11 10h379v276l10 11h20l10 -11v-276h625l10 -10v-21l-10 -10h-625v-379h379q228 0 355 -106.5t127 -292.5q0 -187 -127.5 -298.5t-354.5 -111.5h-409l-10 10v1178h-379zM532 41h379q203 0 320 102t117 267q0 169 -115 263.5t-322 94.5h-379v-727z" />
<glyph unicode="&#x463;" horiz-adv-x="1187" d="M102 952v21l11 10h297v440l10 11h20l11 -11v-440h337l11 -10v-21l-11 -10h-337v-369h266q166 0 257 -76.5t91 -209.5t-91 -210t-257 -77h-297l-10 10v932h-297zM451 41h266q149 0 226 67t77 179t-77 178.5t-226 66.5h-266v-491z" />
<glyph unicode="&#x464;" horiz-adv-x="2211" d="M205 10v1413l10 11h21l10 -11v-655h350q10 142 73.5 270.5t163 222t235.5 148.5t284 55q279 0 491 -153v-41l-10 -10q-206 163 -481 163q-186 0 -345.5 -86.5t-257 -236.5t-110.5 -332h825l11 -10v-21l-11 -10h-825q0 -147 57 -280t153 -228.5t227.5 -152t275.5 -56.5 q273 0 481 164l10 -10v-41q-213 -154 -491 -154q-157 0 -298.5 60.5t-241.5 163t-159 242t-59 292.5h-348v-717l-10 -10h-21z" />
<glyph unicode="&#x465;" horiz-adv-x="1515" d="M205 10v942l10 11h21l10 -11v-450h307q6 208 148.5 349.5t363.5 141.5q191 0 328 -102v-31l-11 -10q-81 58 -153.5 80t-163.5 22q-194 0 -326.5 -128.5t-140.5 -321.5h580l10 -10v-21l-10 -10h-580q8 -193 140.5 -322t326.5 -129q90 0 163 22t154 81l11 -11v-30 q-138 -103 -328 -103q-110 0 -205 38.5t-161 104.5t-104.5 156.5t-41.5 192.5h-307v-451l-10 -10h-21z" />
<glyph unicode="&#x466;" horiz-adv-x="1310" d="M61 10l564 1413l10 11h41l10 -11l563 -1413l-10 -10h-20l-11 10l-198 492h-334v-492l-10 -10h-21l-10 10v492h-334l-199 -492l-10 -10h-20zM317 543h676l-338 850z" />
<glyph unicode="&#x467;" horiz-adv-x="942" d="M61 10l379 942l11 11h41l10 -11l379 -942l-11 -10h-26l-10 10l-144 348h-198v-348l-11 -10h-20l-10 10v348h-199l-143 -348l-11 -10h-26zM266 399h410l-205 523z" />
<glyph unicode="&#x468;" horiz-adv-x="1720" d="M205 10v1413l10 11h21l10 -11v-614h542l246 614l10 11h41l11 -11l563 -1413l-10 -10h-21l-10 10l-199 492h-334v-492l-10 -10h-20l-11 10v492h-333l-199 -492l-10 -10h-21l-10 10l301 758h-526v-758l-10 -10h-21zM727 543h676l-338 850z" />
<glyph unicode="&#x469;" horiz-adv-x="1310" d="M205 10v942l10 11h21l10 -11v-440h385l178 440l10 11h41l10 -11l379 -942l-10 -10h-27l-10 10l-143 348h-199v-348l-10 -10h-21l-10 10v348h-198l-144 -348l-10 -10h-27l-10 10l184 461h-368v-461l-10 -10h-21zM635 399h409l-204 523z" />
<glyph unicode="&#x46a;" horiz-adv-x="1433" d="M61 10l625 789l-563 624l10 11h1167l11 -11l-563 -624l624 -789l-10 -10h-31l-20 10l-574 738v-738l-10 -10h-20l-11 10v738l-573 -738l-21 -10h-30zM215 1393l502 -564l502 564h-1004z" />
<glyph unicode="&#x46b;" horiz-adv-x="983" d="M61 10l400 502l-400 440l11 11h839l11 -11l-400 -440l400 -502l-11 -10h-30l-21 10l-348 451v-451l-10 -10h-21l-10 10v451l-348 -451l-21 -10h-30zM152 922l340 -379l339 379h-679z" />
<glyph unicode="&#x46c;" horiz-adv-x="1843" d="M205 10v1413l10 11h21l10 -11v-614h758l-553 614l10 11h1167l10 -11l-563 -624l625 -789l-10 -10h-31l-21 10l-573 738v-738l-10 -10h-21l-10 10v738l-573 -738l-21 -10h-31l-10 10l600 758h-743v-758l-10 -10h-21zM541 1393l503 -564l504 564h-1007z" />
<glyph unicode="&#x46d;" horiz-adv-x="1310" d="M205 10v942l10 11h21l10 -11v-440h524l-381 440l10 11h840l10 -11l-399 -460l399 -482l-10 -10h-31l-20 10l-348 430v-430l-11 -10h-20l-10 10v430l-348 -430l-21 -10h-31l-10 10l381 461h-524v-461l-10 -10h-21zM479 922l340 -400l340 400h-680z" />
<glyph unicode="&#x46e;" horiz-adv-x="1167" d="M143 1270q64 88 166.5 141t222.5 53q184 0 307.5 -116t123.5 -283q0 -100 -53.5 -177t-131.5 -120q112 -32 189 -127t77 -221q0 -190 -143 -320.5t-369 -130.5h-276l72 -327l-11 -11h-20l-10 11l-82 358l10 10h317q204 0 335.5 119t131.5 291q0 122 -91.5 219.5 t-231.5 97.5h-256l-10 11v20l10 10h235q42 0 88.5 22t85.5 59.5t64 92t25 113.5q0 151 -110 254.5t-276 103.5q-212 0 -348 -174h-20zM256 1784l10 10h21l20 -10l225 -236l226 236l20 10h21l10 -10l-246 -256l-20 -10h-21l-20 14z" />
<glyph unicode="&#x46f;" horiz-adv-x="983" d="M164 881v32q79 42 143.5 61t163.5 19q85 0 153.5 -22.5t110 -60.5t63 -85t21.5 -98q0 -152 -164 -225q90 -25 147.5 -86.5t57.5 -149.5q0 -130 -99 -213.5t-290 -83.5h-195l62 -286l-10 -11h-21l-10 11l-72 317l11 10h235q163 0 253.5 72.5t90.5 183.5q0 82 -74 143.5 t-198 61.5h-185l-10 10v21l10 10h154q105 0 183.5 59.5t78.5 155.5q0 92 -79 158.5t-224 66.5q-89 0 -149 -17t-148 -65zM195 1362l10 10h20l21 -10l225 -277l225 277l21 10h20l11 -10l-246 -297l-21 -10h-20l-21 10z" />
<glyph unicode="&#x470;" horiz-adv-x="1433" d="M164 1188v235l10 11h21l10 -11v-235q0 -290 130 -453.5t361 -171.5v860l11 11h20l10 -11v-860q232 8 362 171.5t130 453.5v235l10 11h21l10 -11v-235q0 -308 -140 -483.5t-393 -182.5v-512l-10 -10h-20l-11 10v512q-253 7 -392.5 182.5t-139.5 483.5z" />
<glyph unicode="&#x471;" d="M184 430v524l11 9h22l8 -9v-512q0 -203 98 -317.5t281 -114.5v1415l8 9h25l8 -9v-1415q166 0 270.5 130t104.5 362q0 219 -82 452l8 9h29l8 -9q28 -91 41 -141t27 -137.5t14 -173.5q0 -247 -118.5 -390t-301.5 -143v-432l-8 -8h-25l-8 8v432q-203 0 -311.5 124.5 t-108.5 336.5z" />
<glyph unicode="&#x472;" horiz-adv-x="1802" d="M143 717q0 152 60 290t161.5 238.5t242 159.5t294.5 59t294.5 -59t242 -159.5t161.5 -238.5t60 -290t-60 -290.5t-161.5 -238.5t-242 -159.5t-294.5 -59.5t-294.5 59.5t-242 159.5t-161.5 238.5t-60 290.5zM188 727q2 -150 61 -284.5t155.5 -228.5t226.5 -149t270 -55 t270 55t226.5 149t155.5 228.5t61 284.5h-1426zM188 768h1424q-9 130 -67.5 249t-151 209t-221.5 143.5t-271 53.5t-271 -53.5t-222 -143.5t-151.5 -209t-68.5 -249z" />
<glyph unicode="&#x473;" d="M123 481q0 215 142 363.5t349 148.5t349.5 -148.5t142.5 -363.5t-142.5 -363.5t-349.5 -148.5t-349 148.5t-142 363.5zM168 461q5 -126 65.5 -229.5t161.5 -162.5t219 -59t219 59t162 162.5t66 229.5h-893zM168 502h893q-5 126 -66 229.5t-161.5 162t-219.5 58.5 q-118 0 -219 -58.5t-161.5 -162t-65.5 -229.5z" />
<glyph unicode="&#x474;" horiz-adv-x="1392" d="M61 1423l11 11h20l10 -11l533 -1382l420 1126q57 152 121 224.5t165 72.5l11 -10v-20l-11 -11q-81 0 -138.5 -67t-106.5 -199l-430 -1147l-11 -10h-41l-10 10z" />
<glyph unicode="&#x475;" horiz-adv-x="1105" d="M61 952l11 11h20l10 -11l410 -911l276 655q57 151 121.5 224t165.5 73l10 -10v-20l-10 -11q-81 0 -139.5 -67t-106.5 -199l-286 -676l-11 -10h-40l-11 10z" />
<glyph unicode="&#x476;" horiz-adv-x="1392" d="M61 1423l11 11h20l10 -11l533 -1382l420 1126q57 152 121 224.5t165 72.5l11 -10v-20l-11 -11q-81 0 -138.5 -67t-106.5 -199l-430 -1147l-11 -10h-41l-10 10zM195 1782l10 10h31l20 -10l195 -256l-11 -10h-20l-21 10zM625 1782l10 10h31l20 -10l195 -256l-11 -10h-20 l-21 10z" />
<glyph unicode="&#x477;" horiz-adv-x="1105" d="M61 952l11 11h20l10 -11l410 -911l276 655q57 151 121.5 224t165.5 73l10 -10v-20l-10 -11q-81 0 -139.5 -67t-106.5 -199l-286 -676l-11 -10h-40l-11 10zM113 1362l10 10h31l20 -10l184 -297l-10 -10h-20l-21 10zM502 1362l10 10h31l20 -10l185 -297l-11 -10h-20l-21 10 z" />
<glyph unicode="&#x478;" horiz-adv-x="2826" d="M143 717q0 152 60 290t161.5 238.5t242 159.5t294.5 59t294.5 -59t242 -159.5t161.5 -238.5t60 -290t-60 -290.5t-161.5 -238.5t-242 -159.5t-294.5 -59.5t-294.5 59.5t-242 159.5t-161.5 238.5t-60 290.5zM188 717q0 -191 96.5 -354t261 -258t355.5 -95t355.5 95 t261 258t96.5 354q0 143 -57 274t-153 225.5t-228 150.5t-275 56t-275 -56t-228 -150.5t-153 -225.5t-57 -274zM1864 -461l10 10q79 0 133 52.5t123 173.5l164 338l-430 839l10 11h20l21 -11l409 -788l390 788l20 11h21l10 -11l-594 -1198q-68 -128 -132.5 -187t-164.5 -59 l-10 15v16z" />
<glyph unicode="&#x479;" horiz-adv-x="2170" d="M123 481q0 215 142 363.5t349 148.5t349.5 -148.5t142.5 -363.5t-142.5 -363.5t-349.5 -148.5t-349 148.5t-142 363.5zM168 481q0 -198 130 -334.5t316 -136.5t316.5 136.5t130.5 334.5t-130.5 334.5t-316.5 136.5t-316 -136.5t-130 -334.5zM1208 -461l11 10 q79 0 133 52.5t123 173.5l163 338l-430 839l11 11h20l21 -11l409 -788l389 788l21 11h20l10 -11l-593 -1198q-68 -128 -132.5 -187t-164.5 -59l-11 15v16z" />
<glyph unicode="&#x47a;" horiz-adv-x="1802" d="M143 717q0 145 55.5 278t149.5 232t224.5 162t275.5 73l43 43h20l43 -43q145 -10 275.5 -73t224.5 -162t149.5 -232t55.5 -278t-55.5 -278.5t-149.5 -232.5t-224.5 -162t-275.5 -73l-43 -43h-20l-43 43q-145 10 -275.5 73t-224.5 162t-149.5 232.5t-55.5 278.5zM188 717 q0 -183 89 -341t241.5 -255t333.5 -109l39 39h20l39 -39q181 12 333.5 109t241.5 255t89 341q0 137 -52.5 263t-141.5 219t-211.5 152.5t-258.5 69.5l-39 -39h-20l-39 39q-136 -10 -258.5 -69.5t-211.5 -152.5t-141.5 -219t-52.5 -263z" />
<glyph unicode="&#x47b;" d="M123 481q0 203 127.5 348t320.5 162l33 33h21l32 -33q192 -17 320.5 -162.5t128.5 -347.5q0 -203 -128 -348t-321 -162l-32 -32h-21l-33 32q-194 17 -321 161.5t-127 348.5zM168 481q0 -188 116 -322t289 -149l31 31h21l28 -31q173 15 290.5 149t117.5 322 q0 187 -117.5 320.5t-290.5 148.5l-28 -28h-21l-31 28q-173 -15 -289 -148t-116 -321z" />
<glyph unicode="&#x47c;" horiz-adv-x="2048" d="M143 655q0 409 277 768l20 11h31l10 -11q-107 -131 -175 -276.5t-93 -262.5t-25 -229q0 -301 136 -473t362 -172q39 0 80.5 10t84.5 32.5t76.5 54.5t55 81.5t21.5 108.5v719l8 8h24l8 -8v-719q0 -59 21.5 -108.5t55 -81.5t76.5 -54.5t84.5 -32.5t80.5 -10q226 0 362 172 t136 473q0 112 -25 229t-93 262.5t-175 276.5l10 11h31l20 -11q277 -359 277 -768q0 -316 -150.5 -501t-392.5 -185q-115 0 -205.5 54.5t-132.5 130.5q-42 -76 -132.5 -130.5t-205.5 -54.5q-242 0 -392.5 185t-150.5 501zM635 1516v204l10 11h31l696 -103v164l10 10h21 l10 -10v-205l-10 -10h-31l-696 102v-163l-10 -11h-21z" />
<glyph unicode="&#x47d;" horiz-adv-x="1679" d="M143 481q0 117 28.5 220t94.5 253l8 9h35l8 -9q-129 -276 -129 -473q0 -215 97 -343t258 -128q48 0 95 16.5t88.5 49.5t67 90.5t25.5 130.5v453l8 8h25l8 -8v-453q0 -73 25.5 -130.5t67 -90.5t88.5 -49.5t96 -16.5q161 0 257.5 128t96.5 343q0 197 -129 473l8 9h35l8 -9 q66 -150 94.5 -253t28.5 -220q0 -240 -104.5 -376t-294.5 -136q-112 0 -181.5 51t-115.5 134q-46 -83 -115.5 -134t-181.5 -51q-190 0 -295 136t-105 376zM471 1065v205l10 10h31l655 -82v164l11 10h20l10 -10v-205l-10 -10h-31l-655 82v-164l-10 -10h-21z" />
<glyph unicode="&#x47e;" horiz-adv-x="2048" d="M143 655q0 409 277 768l20 11h31l10 -11q-107 -131 -175 -276.5t-93 -262.5t-25 -229q0 -301 136 -473t362 -172q39 0 80.5 10t84.5 32.5t76.5 54.5t55 81.5t21.5 108.5v719l8 8h24l8 -8v-719q0 -59 21.5 -108.5t55 -81.5t76.5 -54.5t84.5 -32.5t80.5 -10q226 0 362 172 t136 473q0 112 -25 229t-93 262.5t-175 276.5l10 11h31l20 -11q277 -359 277 -768q0 -316 -150.5 -501t-392.5 -185q-115 0 -205.5 54.5t-132.5 130.5q-42 -76 -132.5 -130.5t-205.5 -54.5q-242 0 -392.5 185t-150.5 501zM635 1526v256l10 10h758l10 -10v-256l-10 -10h-21 l-10 10v225h-328v-225l-10 -10h-20l-10 10v225h-328v-225l-10 -10h-21z" />
<glyph unicode="&#x47f;" horiz-adv-x="1679" d="M143 481q0 117 28.5 220t94.5 253l8 9h35l8 -9q-129 -276 -129 -473q0 -215 97 -343t258 -128q48 0 95 16.5t88.5 49.5t67 90.5t25.5 130.5v453l8 8h25l8 -8v-453q0 -73 25.5 -130.5t67 -90.5t88.5 -49.5t96 -16.5q161 0 257.5 128t96.5 343q0 197 -129 473l8 9h35l8 -9 q66 -150 94.5 -253t28.5 -220q0 -240 -104.5 -376t-294.5 -136q-112 0 -181.5 51t-115.5 134q-46 -83 -115.5 -134t-181.5 -51q-190 0 -295 136t-105 376zM471 1065v297l10 10h717l10 -10v-297l-10 -10h-20l-11 10v266h-307v-266l-10 -10h-21l-10 10v266h-307v-266l-10 -10 h-21z" />
<glyph unicode="&#x480;" horiz-adv-x="1515" d="M143 717q0 151 60 289t161 238.5t241.5 160t295.5 59.5q280 0 492 -153v-41l-11 -10q-206 163 -481 163q-143 0 -275 -56t-228 -150.5t-153 -225.5t-57 -274q0 -191 96.5 -354t261 -258t355.5 -95h236l10 -10l-82 -358l-10 -11h-21l-10 11l72 327h-195 q-155 0 -295.5 59.5t-241.5 160t-161 239t-60 289.5z" />
<glyph unicode="&#x481;" horiz-adv-x="1085" d="M123 492q0 103 39 194.5t107.5 159.5t169 107.5t216.5 39.5q83 0 164 -27.5t144 -74.5v-31l-11 -10q-78 55 -145.5 78.5t-151.5 23.5q-212 0 -349.5 -133t-137.5 -327q0 -211 143 -346.5t385 -135.5h113l10 -10l-71 -317l-11 -11h-20l-10 11l61 286h-72 q-269 0 -421 146.5t-152 376.5z" />
<glyph unicode="&#x48a;" horiz-adv-x="1515" d="M205 10v1413l10 11h21l10 -11v-1362l1007 1362l21 11h26l11 -11v-1382h153l11 -10l-82 -389l-11 -11h-20l-10 11l71 358h-143l-10 10v1362l-1010 -1362l-20 -10h-25zM440 1782l11 10h20l10 -10q14 -121 93.5 -178.5t183.5 -57.5t183 57.5t93 178.5l10 10h21l10 -10 q-7 -71 -34.5 -125t-70.5 -87t-96 -49t-116 -16t-116.5 16t-96.5 49t-70.5 87t-34.5 125z" />
<glyph unicode="&#x48b;" d="M205 10v942l10 11h21l10 -11v-891l725 891l20 11h21l12 -11v-911h154l10 -10l-66 -307l-10 -11h-20l-11 11l56 276h-146l-8 10v891l-727 -891l-20 -10h-21zM307 1362l10 10h21l10 -10q15 -122 86 -189t180 -67t180.5 67.5t86.5 188.5l10 10h20l11 -10 q-15 -139 -96.5 -218t-211.5 -79t-211 79t-96 218z" />
<glyph unicode="&#x48c;" horiz-adv-x="1310" d="M41 1198v21l10 10h195v276l10 11h20l11 -11v-276h194l11 -10v-21l-11 -10h-194v-379h379q228 0 354.5 -106.5t126.5 -292.5q0 -187 -127 -298.5t-354 -111.5h-410l-10 10v1178h-195zM287 41h379q203 0 319.5 102t116.5 267q0 169 -114.5 263.5t-321.5 94.5h-379v-727z " />
<glyph unicode="&#x48d;" horiz-adv-x="1187" d="M41 952v21l10 10h195v440l10 11h20l11 -11v-440h194l11 -10v-21l-11 -10h-194v-369h266q166 0 257 -76.5t91 -209.5t-91 -210t-257 -77h-297l-10 10v932h-195zM287 41h266q149 0 226 67t77 179t-77 178.5t-226 66.5h-266v-491z" />
<glyph unicode="&#x48e;" horiz-adv-x="1146" d="M205 10v1413l8 11h319q255 0 383.5 -105.5t128.5 -294.5q0 -221 -174 -325l195 -166v-21l-10 -10h-21l-205 176q-118 -53 -297 -53h-286v-625l-10 -10h-21zM246 676h286q154 0 261 43l-189 162v20l10 10h21l201 -172q163 88 163 295q0 176 -121 267.5t-346 91.5h-286 v-717z" />
<glyph unicode="&#x48f;" horiz-adv-x="1269" d="M205 -461v1413l10 11h21l10 -11v-164q71 95 176.5 150t232.5 55q207 0 349.5 -148.5t142.5 -363.5q0 -195 -117 -334l137 -116v-21l-10 -10h-20l-136 115q-143 -146 -346 -146q-127 0 -232.5 55t-176.5 150v-635l-10 -10h-21zM246 246q62 -109 171 -172.5t238 -63.5 q181 0 314 133l-262 226v20l10 10h20l260 -223q105 127 105 305q0 198 -130.5 334.5t-316.5 136.5q-129 0 -238 -63.5t-171 -171.5v-471z" />
<glyph unicode="&#x490;" horiz-adv-x="1024" d="M205 10v1413l10 11h666v276l10 10h20l11 -10v-307l-11 -10h-665v-1383l-10 -10h-21z" />
<glyph unicode="&#x491;" horiz-adv-x="860" d="M205 10v942l10 11h522v235l11 10h20l10 -10v-266l-10 -10h-522v-912l-10 -10h-21z" />
<glyph unicode="&#x492;" horiz-adv-x="983" d="M41 778v21l10 10h154v614l10 11h696l11 -11v-20l-11 -10h-665v-584h420l10 -10v-21l-10 -10h-420v-758l-10 -10h-21l-10 10v758h-154z" />
<glyph unicode="&#x493;" horiz-adv-x="901" d="M41 471v21l10 10h154v450l10 11h635l10 -11v-20l-10 -10h-604v-420h235l11 -10v-21l-11 -10h-235v-451l-10 -10h-21l-10 10v451h-154z" />
<glyph unicode="&#x494;" horiz-adv-x="1310" d="M205 10v1413l10 11h696l11 -11v-20l-11 -10h-665v-635q66 58 169 95.5t220 37.5q251 0 391.5 -160t140.5 -465q0 -188 -58 -337.5t-170.5 -238.5t-262.5 -89q-145 0 -225 71v31l10 10q56 -40 102 -55.5t115 -15.5q134 0 236 81.5t155 222.5t53 320q0 292 -128.5 438 t-358.5 146q-118 0 -209 -35t-180 -108v-697l-10 -10h-21z" />
<glyph unicode="&#x495;" horiz-adv-x="1105" d="M205 10v942l10 11h635l10 -11v-20l-10 -10h-604v-451q152 113 307 113q64 0 121.5 -16.5t111 -56t92.5 -100t62 -155.5t23 -215q0 -271 -105 -427.5t-264 -156.5q-110 0 -184 51v31l10 10q55 -31 88 -41t88 -10q137 0 229.5 143t92.5 400q0 97 -14.5 175.5t-41.5 132 t-61 92.5t-76.5 60.5t-84 31.5t-87.5 10q-86 0 -150 -27.5t-157 -95.5v-410l-10 -10h-21z" />
<glyph unicode="&#x496;" horiz-adv-x="1761" d="M61 10l512 778l-491 635l10 11h21l20 -11l475 -614h252v614l10 11h21l10 -11v-614h252l475 614l21 11h20l10 -11l-491 -635l512 -778v-368l-10 -11h-21l-10 11l-2 358l-8 10l-496 758h-252v-758l-10 -10h-21l-10 10v758h-252l-495 -758l-21 -10h-20z" />
<glyph unicode="&#x497;" horiz-adv-x="1392" d="M61 10l338 502l-317 440l10 11h27l20 -11l301 -420h236v420l10 11h21l10 -11v-420h235l301 420l21 11h26l11 -11l-318 -440l338 -502v-286l-10 -11h-21l-10 11v276l-16 10l-322 482h-235v-482l-10 -10h-21l-10 10v482h-236l-321 -482l-21 -10h-26z" />
<glyph unicode="&#x498;" d="M102 184l21 21h20q67 -89 182.5 -142t227.5 -53q220 0 364 119.5t144 290.5q0 122 -92 219.5t-232 97.5h-358l-10 11v20l10 10h338q42 0 88.5 22t85 59.5t63.5 92t25 113.5q0 149 -131 253.5t-316 104.5q-116 0 -212.5 -49.5t-155.5 -124.5h-21l-20 21q62 86 174.5 140 t234.5 54q219 0 355.5 -113.5t136.5 -285.5q0 -100 -53.5 -177t-130.5 -120q112 -32 189 -127t77 -221q0 -188 -156 -319.5t-397 -131.5q82 -89 112.5 -152.5t30.5 -133.5q0 -81 -55.5 -133t-128.5 -52q-79 0 -133 41v31l10 10q41 -41 123 -41q57 0 98 39t41 105 q0 63 -31.5 129t-117.5 159q-119 11 -226.5 65.5t-173.5 147.5z" />
<glyph unicode="&#x499;" horiz-adv-x="983" d="M123 61v31l10 10q130 -92 338 -92q163 0 253.5 72.5t90.5 183.5q0 82 -74 143.5t-198 61.5h-185l-10 10v21l10 10h154q105 0 183.5 59.5t78.5 155.5q0 92 -79 158.5t-224 66.5q-89 0 -149 -17t-148 -65l-10 11v32q79 42 143.5 61t163.5 19q85 0 153.5 -22.5t110 -60.5 t63 -85t21.5 -98q0 -152 -164 -225q90 -25 147.5 -86.5t57.5 -149.5q0 -130 -99 -213.5t-290 -83.5q82 -89 112.5 -152.5t30.5 -133.5q0 -81 -55.5 -133t-128.5 -52q-79 0 -133 41v31l10 10q41 -41 123 -41q57 0 98 39t41 105q0 63 -31.5 129t-117.5 159q-192 10 -297 90z " />
<glyph unicode="&#x49a;" horiz-adv-x="1187" d="M205 10v1413l10 11h21l10 -11v-614h246l563 614l20 11h21l10 -11l-574 -635l594 -778v-368l-10 -11h-20l-11 11v358l-10 10l-583 758h-246v-758l-10 -10h-21z" />
<glyph unicode="&#x49b;" horiz-adv-x="1024" d="M205 10v942l10 11h21l10 -11v-420h260l358 420l21 11h26l11 -11l-379 -440l420 -502v-286l-11 -11h-20l-10 11v276l-17 10l-399 482h-260v-482l-10 -10h-21z" />
<glyph unicode="&#x49c;" horiz-adv-x="1187" d="M205 10v1413l10 11h21l10 -11v-614h225v389l10 10h21l10 -10v-367l543 592l20 11h21l10 -11l-574 -635l594 -778l-10 -10h-20l-21 10l-563 731v-321l-10 -10h-21l-10 10v348h-225v-758l-10 -10h-21z" />
<glyph unicode="&#x49d;" horiz-adv-x="1024" d="M205 10v942l10 11h21l10 -11v-420h235v175l11 10h20l10 -10v-156l342 401l21 11h26l11 -11l-379 -440l420 -502l-11 -10h-26l-21 10l-383 461v-174l-10 -10h-20l-11 10v195h-235v-482l-10 -10h-21z" />
<glyph unicode="&#x49e;" horiz-adv-x="1187" d="M41 1126v21l10 10h154v266l10 11h21l10 -11v-266h153l11 -10v-21l-11 -10h-153v-307h246l563 614l20 11h21l10 -11l-574 -635l594 -778l-10 -10h-20l-21 10l-583 758h-246v-758l-10 -10h-21l-10 10v1106h-154z" />
<glyph unicode="&#x49f;" horiz-adv-x="1024" d="M41 1147v22l10 9h154v245l10 11h21l10 -11v-245h194l11 -11v-20l-11 -10h-194v-605h260l358 420l21 11h26l11 -11l-379 -440l420 -502l-11 -10h-26l-21 10l-399 482h-260v-482l-10 -10h-21l-10 10v1127h-154z" />
<glyph unicode="&#x4a0;" horiz-adv-x="1474" d="M61 1403v20l11 11h450l10 -11v-614h246l563 614l21 11h20l11 -11l-574 -635l594 -778l-10 -10h-21l-20 10l-584 758h-246v-758l-10 -10h-20l-10 10v1383h-420z" />
<glyph unicode="&#x4a1;" horiz-adv-x="1187" d="M61 932v20l11 11h327l11 -11v-420h260l358 420l21 11h26l10 -11l-378 -440l419 -502l-10 -10h-26l-21 10l-399 482h-260v-482l-11 -10h-20l-10 10v912h-297z" />
<glyph unicode="&#x4a2;" horiz-adv-x="1474" d="M205 10v1413l10 11h21l10 -11v-614h942v614l10 11h21l10 -11v-1382h153l11 -10v-389l-11 -11h-20l-10 11v358h-154l-10 10v758h-942v-758l-10 -10h-21z" />
<glyph unicode="&#x4a3;" horiz-adv-x="1146" d="M205 10v942l10 11h21l10 -11v-420h614v420l10 11h21l10 -11v-911h154l10 -10v-307l-10 -11h-21l-10 11v276h-154l-10 10v482h-614v-482l-10 -10h-21z" />
<glyph unicode="&#x4a4;" horiz-adv-x="1679" d="M205 10v1413l10 11h21l10 -11v-614h901v614l10 11h451l10 -11v-20l-10 -10h-420v-1383l-10 -10h-21l-10 10v758h-901v-758l-10 -10h-21z" />
<glyph unicode="&#x4a5;" horiz-adv-x="1269" d="M205 10v942l10 11h21l10 -11v-420h614v420l10 11h328l10 -11v-20l-10 -10h-297v-912l-10 -10h-21l-10 10v482h-614v-482l-10 -10h-21z" />
<glyph unicode="&#x4a6;" horiz-adv-x="2211" d="M205 10v1413l10 11h922l10 -11v-665q66 58 169 95.5t220 37.5q251 0 391.5 -160t140.5 -465q0 -188 -58 -337.5t-170.5 -238.5t-262.5 -89q-145 0 -225 71v31l10 10q56 -40 102 -55.5t115 -15.5q134 0 236 81.5t155 222.5t53 320q0 292 -128.5 438t-358.5 146 q-118 0 -209 -35t-180 -108v-697l-10 -10h-21l-10 10v1383h-860v-1383l-10 -10h-21z" />
<glyph unicode="&#x4a7;" horiz-adv-x="1802" d="M205 10v942l10 11h717l10 -11v-440q152 113 307 113q64 0 121.5 -16.5t111 -56t92.5 -100t62 -155.5t23 -215q0 -299 -104 -462t-265 -163q-110 0 -184 51v31l10 10q55 -31 88 -41t88 -10q138 0 230 150t92 434q0 97 -14.5 175.5t-41.5 132t-61 92.5t-76.5 60.5t-84 31.5 t-87.5 10q-86 0 -150 -27.5t-157 -95.5v-451l-10 -10h-21l-10 10v912h-655v-912l-10 -10h-21z" />
<glyph unicode="&#x4a8;" horiz-adv-x="1761" d="M143 717q0 151 60 289t161 238.5t241.5 160t295.5 59.5q280 0 492 -153v-41l-11 -10q-206 163 -481 163q-143 0 -275 -56t-228 -150.5t-153 -225.5t-57 -274q0 -250 159.5 -443.5t400.5 -246.5q-52 126 -52 260q0 140 40.5 258t109.5 197.5t162.5 124t199.5 44.5 q175 0 292.5 -118.5t117.5 -300.5q0 -100 -51 -194t-141.5 -167t-227.5 -117.5t-297 -44.5q-26 0 -80 4q84 -151 232 -241t319 -90q184 0 338 112l10 -10v-31q-68 -53 -161 -82.5t-187 -29.5q-188 0 -351.5 105t-250.5 276q-177 29 -320.5 133.5t-225 262.5t-81.5 339z M741 287q0 -142 58 -271q126 -17 245 -0.5t213.5 61t166.5 107.5t110.5 143t38.5 165q0 161 -105 269.5t-258 108.5q-132 0 -239.5 -74.5t-168.5 -208.5t-61 -300z" />
<glyph unicode="&#x4a9;" horiz-adv-x="1187" d="M123 461q0 142 63 263t181.5 195t267.5 74q191 0 328 -102v-31l-11 -10q-81 58 -153.5 80t-163.5 22q-130 0 -238 -67t-168.5 -179.5t-60.5 -244.5q0 -135 74.5 -255.5t187.5 -180.5q3 143 38.5 253t95.5 175.5t134.5 98t161.5 32.5q110 0 188 -78.5t78 -188.5 q0 -120 -65.5 -209.5t-176 -134.5t-249.5 -45q-73 0 -158 29q27 -193 158.5 -326t304.5 -133q55 0 88 10t88 41l10 -10v-31q-74 -51 -184 -51q-198 0 -343.5 148.5t-168.5 369.5q-134 60 -220.5 196t-86.5 290zM475 2q70 -33 160 -33q192 0 319 92.5t127 255.5 q0 94 -64.5 160t-156.5 66q-57 0 -110.5 -17.5t-104 -59t-88 -102.5t-60 -154t-22.5 -208z" />
<glyph unicode="&#x4aa;" horiz-adv-x="1556" d="M143 717q0 151 60 289t161 238.5t241.5 160t295.5 59.5q280 0 492 -153v-41l-11 -10q-206 163 -481 163q-143 0 -275 -56t-228 -150.5t-153 -225.5t-57 -274q0 -191 96.5 -354t261 -258t355.5 -95q273 0 481 164l11 -10v-41q-213 -154 -492 -154q82 -89 112.5 -152.5 t30.5 -133.5q0 -81 -55.5 -133t-128.5 -52q-79 0 -133 41v31l10 10q41 -41 123 -41q57 0 98 39t41 105q0 63 -31.5 129t-117.5 159q-146 10 -277.5 73t-225.5 162.5t-149 232.5t-55 278z" />
<glyph unicode="&#x4ab;" horiz-adv-x="1085" d="M123 481q0 141 63 257.5t181 185.5t268 69q191 0 328 -102v-31l-11 -10q-81 58 -153.5 80t-163.5 22q-199 0 -333 -135.5t-134 -335.5t134 -335.5t333 -135.5q90 0 163 22t154 81l11 -11v-30q-138 -103 -328 -103q82 -89 112.5 -152.5t30.5 -133.5q0 -81 -55.5 -133 t-128.5 -52q-79 0 -133 41v31l10 10q41 -41 123 -41q57 0 98 39t41 105q0 63 -31.5 129t-117.5 159q-207 19 -334 162.5t-127 347.5z" />
<glyph unicode="&#x4ac;" horiz-adv-x="1269" d="M61 1403v20l11 11h1126l10 -11v-20l-10 -10h-543v-1352h154l10 -10v-389l-10 -11h-21l-10 11v358h-153l-11 10v1383h-542z" />
<glyph unicode="&#x4ad;" horiz-adv-x="983" d="M41 932v20l10 11h881l10 -11v-20l-10 -10h-420v-881h154l10 -10v-307l-10 -11h-21l-10 11v276h-154l-10 10v912h-420z" />
<glyph unicode="&#x4ae;" d="M61 1423l11 11h20l21 -11l501 -635l504 635l19 11h20l10 -11l-532 -675v-738l-10 -10h-21l-10 10v738z" />
<glyph unicode="&#x4af;" horiz-adv-x="1024" d="M61 952l11 11h24l10 -11l406 -911l406 911l10 11h24l11 -11l-431 -962v-451l-10 -10h-20l-10 10v451z" />
<glyph unicode="&#x4b0;" d="M61 1423l11 11h20l21 -11l501 -635l504 635l19 11h20l10 -11l-518 -655h344l11 -10v-21l-11 -10h-358v-717l-10 -10h-21l-10 10v717h-358l-11 10v21l11 10h344z" />
<glyph unicode="&#x4b1;" horiz-adv-x="1024" d="M61 952l11 11h24l10 -11l406 -911l406 911l10 11h24l11 -11l-420 -942h286l11 -10v-20l-11 -11h-297v-430l-10 -10h-20l-10 10v430h-297l-11 11v20l11 10h286z" />
<glyph unicode="&#x4b2;" horiz-adv-x="1351" d="M61 10l590 731l-549 682l11 11h20l21 -11l522 -649l522 649l21 11h20l10 -11l-549 -682l590 -731v-368l-10 -11h-20l-11 11v358l-10 10l-563 701l-563 -701l-21 -10h-20z" />
<glyph unicode="&#x4b3;" horiz-adv-x="901" d="M61 10l363 482l-342 460l10 11h21l20 -11l318 -430l317 430l20 11h21l10 -11l-342 -460l363 -482v-286l-11 -11h-20l-10 11v276l-11 10l-337 451l-338 -451l-21 -10h-20z" />
<glyph unicode="&#x4b4;" horiz-adv-x="1761" d="M61 1403v20l11 11h1003l10 -11v-20l-10 -10h-502v-1352h902v1382l10 11h20l11 -11v-1382h153l10 -10v-389l-10 -11h-20l-11 11v358h-1095l-11 10v1383h-460z" />
<glyph unicode="&#x4b5;" horiz-adv-x="1392" d="M61 932v20l11 11h676l10 -11v-20l-10 -10h-338v-881h696v911l10 11h21l10 -11v-911h153l11 -10v-307l-11 -11h-20l-10 11v276h-891l-10 10v912h-297z" />
<glyph unicode="&#x4b6;" horiz-adv-x="1351" d="M184 1167v256l11 11h20l10 -11v-235q0 -280 116.5 -421.5t334.5 -141.5q118 0 209 35t180 108v655l10 11h21l10 -11v-1382h154l10 -10v-389l-10 -11h-21l-10 11v358h-154l-10 10v707q-66 -58 -169 -95.5t-220 -37.5q-233 0 -362.5 151t-129.5 432z" />
<glyph unicode="&#x4b7;" horiz-adv-x="1146" d="M184 768v184l11 11h20l10 -11v-174q0 -178 89.5 -258t258.5 -80q78 0 163.5 27t123.5 65v420l10 11h21l10 -11v-911h154l10 -10v-307l-10 -11h-21l-10 11v276h-154l-10 10v471q-52 -37 -133.5 -59.5t-153.5 -22.5q-389 0 -389 369z" />
<glyph unicode="&#x4b8;" horiz-adv-x="1474" d="M184 1167v256l11 11h20l10 -11v-235q0 -275 111 -416t319 -147v286l11 11h20l10 -11v-286q109 3 196 38t173 105v655l10 11h21l10 -11v-1413l-10 -10h-21l-10 10v707q-64 -56 -161 -93t-208 -40v-246l-10 -10h-20l-11 10v246q-223 6 -347 156.5t-124 426.5z" />
<glyph unicode="&#x4b9;" horiz-adv-x="1105" d="M184 768v184l11 11h20l10 -11v-174q0 -325 318 -338v185l10 10h20l11 -10v-185q76 2 158 29t118 63v420l10 11h21l10 -11v-942l-10 -10h-21l-10 10v471q-51 -36 -128.5 -58t-147.5 -24v-184l-11 -10h-20l-10 10v184q-359 16 -359 369z" />
<glyph unicode="&#x4ba;" horiz-adv-x="1310" d="M205 10v1413l10 11h21l10 -11v-665q66 58 169 95.5t220 37.5q232 0 361.5 -151t129.5 -433v-297l-10 -10h-20l-11 10v277q0 281 -116 422t-334 141q-118 0 -209 -35t-180 -108v-697l-10 -10h-21z" />
<glyph unicode="&#x4bb;" d="M205 10v1413l10 11h21l10 -11v-635q71 94 173.5 149.5t215.5 55.5q211 0 310 -124t99 -367v-492l-10 -10h-20l-10 10v482q0 233 -89.5 346.5t-279.5 113.5q-116 0 -222 -64t-167 -171v-707l-10 -10h-21z" />
<glyph unicode="&#x4bc;" horiz-adv-x="2007" d="M82 922q0 71 20 112h31l10 -10q-20 -41 -20 -102q0 -78 58 -124.5t208 -49.5q6 146 68 278t162.5 228.5t238.5 153t289 56.5q67 0 135 -12t137 -38.5t131 -66t116 -97t93 -128.5t61.5 -164t22.5 -200q0 -18 -10 -41l-21 -10h-1382q10 -193 104.5 -352t256 -252t356.5 -93 q302 0 522 174l10 -10v-41q-114 -79 -237.5 -121.5t-294.5 -42.5q-103 0 -201 26.5t-180.5 74.5t-152.5 116t-119 149t-76.5 176.5t-28.5 195.5q-161 1 -234 59t-73 156zM430 748h1372q0 144 -43 262t-111 193t-156 126t-174.5 72.5t-170.5 21.5q-146 0 -277 -55.5 t-224 -148t-151 -215.5t-65 -256z" />
<glyph unicode="&#x4bd;" horiz-adv-x="1413" d="M82 707q0 71 20 112h31l10 -10q-20 -41 -20 -102q0 -37 12 -65.5t41.5 -54t88.5 -40t145 -15.5q14 199 143 330t328 131q85 0 156 -28t117 -73.5t77.5 -104.5t45 -117.5t13.5 -116.5q0 -28 -10 -51l-20 -10h-805q0 -199 137.5 -340.5t329.5 -141.5q91 0 179.5 35.5 t158.5 97.5l10 -10v-31q-51 -51 -149.5 -92t-198.5 -41q-141 0 -259 71t-185.5 191t-67.5 261q-328 3 -328 215zM455 532h794q-8 189 -105.5 304.5t-262.5 115.5q-186 0 -298 -118t-128 -302z" />
<glyph unicode="&#x4be;" horiz-adv-x="2007" d="M82 922q0 71 20 112h31l10 -10q-20 -41 -20 -102q0 -78 58 -124.5t208 -49.5q6 146 68 278t162.5 228.5t238.5 153t289 56.5q67 0 135 -12t137 -38.5t131 -66t116 -97t93 -128.5t61.5 -164t22.5 -200q0 -18 -10 -41l-21 -10h-1382q10 -193 104.5 -352t256 -252t356.5 -93 q302 0 522 174l10 -10v-41q-106 -73 -219 -114.5t-264 -47.5q-85 -93 -116 -159t-31 -129q0 -66 41 -105t98 -39q82 0 123 41l10 -10v-31q-54 -41 -133 -41q-73 0 -128.5 52t-55.5 133q0 70 30.5 133.5t112.5 152.5q-103 0 -201 26.5t-180.5 74.5t-152.5 116t-119 149 t-76.5 176.5t-28.5 195.5q-161 1 -234 59t-73 156zM430 748h1372q0 144 -43 262t-111 193t-156 126t-174.5 72.5t-170.5 21.5q-146 0 -277 -55.5t-224 -148t-151 -215.5t-65 -256z" />
<glyph unicode="&#x4bf;" horiz-adv-x="1413" d="M82 707q0 71 20 112h31l10 -10q-20 -41 -20 -102q0 -39 12 -68t42.5 -53.5t88.5 -38.5t144 -15q14 199 143 330t328 131q85 0 156 -28t117 -73.5t77.5 -104.5t45 -117.5t13.5 -116.5q0 -28 -10 -51l-20 -10h-805q0 -199 137.5 -340.5t329.5 -141.5q91 0 179.5 35.5 t158.5 97.5l10 -10v-31q-91 -65 -151.5 -125t-87 -109.5t-35.5 -83.5t-9 -71q0 -75 50 -124.5t120 -49.5q66 0 103 37l10 -10v-31q-49 -37 -113 -37q-93 0 -154 61t-61 154q0 72 29 137t114 150q-79 -31 -163 -31q-141 0 -259 71t-185.5 191t-67.5 261q-328 3 -328 215z M455 532h794q-8 189 -105.5 304.5t-262.5 115.5q-186 0 -298 -118t-128 -302z" />
<glyph unicode="&#x4c0;" horiz-adv-x="450" d="M205 10v1413l10 11h21l10 -11v-1413l-10 -10h-21z" />
<glyph unicode="&#x4c1;" horiz-adv-x="1761" d="M61 10l512 778l-491 635l10 11h21l20 -11l475 -614h252v614l10 11h21l10 -11v-614h252l475 614l21 11h20l10 -11l-491 -635l512 -778l-10 -10h-21l-20 10l-496 758h-252v-758l-10 -10h-21l-10 10v758h-252l-495 -758l-21 -10h-20zM563 1782l10 10h21l10 -10 q14 -121 93.5 -178.5t183.5 -57.5t183 57.5t93 178.5l10 10h21l10 -10q-7 -71 -34.5 -125t-70.5 -87t-96 -49t-116 -16t-116.5 16t-96.5 49t-70.5 87t-34.5 125z" />
<glyph unicode="&#x4c2;" horiz-adv-x="1392" d="M61 10l338 502l-317 440l10 11h27l20 -11l297 -420h240v420l10 11h21l10 -11v-420h239l297 420l21 11h26l11 -11l-318 -440l338 -502l-10 -10h-27l-20 10l-318 482h-239v-482l-10 -10h-21l-10 10v482h-240l-317 -482l-21 -10h-26zM389 1362l10 10h21l10 -10 q15 -122 86 -189t180 -67t180.5 67.5t86.5 188.5l10 10h20l11 -10q-15 -139 -96.5 -218t-211.5 -79t-211 79t-96 218z" />
<glyph unicode="&#x4c3;" d="M205 10v1413l10 11h21l10 -11v-614h205l563 614l20 11h21l10 -11l-553 -614q87 -10 166 -37.5t154.5 -81t130.5 -127t88.5 -181.5t33.5 -239q0 -147 -51 -269.5t-150.5 -197.5t-228.5 -75q-145 0 -225 71v31l10 10q56 -40 102 -55.5t115 -15.5q114 0 202 68t134.5 181.5 t46.5 251.5q0 133 -37.5 241.5t-98.5 178.5t-144 117.5t-170 67.5t-180 20h-164v-758l-10 -10h-21z" />
<glyph unicode="&#x4c4;" horiz-adv-x="1024" d="M205 10v942l10 11h21l10 -11v-420h215l362 420l21 11h26l11 -11l-369 -424q46 -9 94.5 -29t107 -62t103 -98t75 -144.5t30.5 -194.5q0 -267 -103 -405t-266 -138q-110 0 -184 51v31l10 10q55 -31 88 -41t88 -10q140 0 231 124.5t91 377.5q0 82 -18.5 152.5t-48.5 120 t-71 88.5t-83 63t-87 40t-81.5 22t-67.5 6h-174v-482l-10 -10h-21z" />
<glyph unicode="&#x4c5;" horiz-adv-x="1433" d="M82 0l10 10q174 0 225 287l175 1126l10 11h717l10 -11v-1382h153l11 -10l-82 -389l-11 -11h-20l-10 11l71 358h-143l-10 10v1383h-656l-174 -1127q-31 -149 -95.5 -223t-170.5 -74l-10 11v20z" />
<glyph unicode="&#x4c6;" horiz-adv-x="1105" d="M82 0l10 10q67 0 108.5 66t65.5 200l92 676l11 11h522l10 -11v-911h154l10 -10l-66 -307l-10 -11h-20l-11 11l56 276h-144l-10 10v912h-461l-92 -666q-25 -147 -72.5 -217t-142.5 -70l-10 15v16z" />
<glyph unicode="&#x4c7;" horiz-adv-x="1433" d="M205 10v1413l10 11h21l10 -11v-614h942v614l10 11h21l10 -11v-1505q0 -317 -215 -317q-72 0 -113 20v31l10 10q41 -20 103 -20q38 0 66.5 12t54.5 42t39.5 88.5t13.5 143.5v840h-942v-758l-10 -10h-21z" />
<glyph unicode="&#x4c8;" horiz-adv-x="1105" d="M205 10v942l10 11h21l10 -11v-420h614v420l10 11h21l10 -11v-1177q0 -318 -215 -318q-70 0 -113 21v30l11 11q43 -21 102 -21q38 0 66.5 12t54.5 42t39.5 89t13.5 144v707h-614v-482l-10 -10h-21z" />
<glyph unicode="&#x4c9;" horiz-adv-x="1433" d="M205 10v1413l10 11h21l10 -11v-614h942v614l10 11h21l10 -11v-1382h153l11 -10l-82 -389l-11 -11h-20l-10 11l71 358h-143l-10 10v758h-942v-758l-10 -10h-21z" />
<glyph unicode="&#x4ca;" horiz-adv-x="1105" d="M205 10v942l10 11h21l10 -11v-420h614v420l10 11h21l10 -11v-911h154l10 -10l-66 -307l-10 -11h-20l-11 11l56 276h-144l-10 10v482h-614v-482l-10 -10h-21z" />
<glyph unicode="&#x4cb;" horiz-adv-x="1310" d="M184 1167v256l11 11h20l10 -11v-235q0 -280 116.5 -421.5t334.5 -141.5q118 0 209 35t180 108v655l10 11h21l10 -11v-1413l-10 -10h-154v-358l-10 -11h-21l-10 11v389l10 10h154v676q-66 -58 -169 -95.5t-220 -37.5q-233 0 -362.5 151t-129.5 432z" />
<glyph unicode="&#x4cc;" horiz-adv-x="1105" d="M184 768v184l11 11h20l10 -11v-174q0 -178 89.5 -258t258.5 -80q78 0 163.5 27t123.5 65v420l10 11h21l10 -11v-942l-10 -10h-154v-276l-10 -11h-20l-11 11v307l11 10h153v440q-52 -37 -133.5 -59.5t-153.5 -22.5q-389 0 -389 369z" />
<glyph unicode="&#x4cd;" horiz-adv-x="1761" d="M287 10v1413l10 11h20l21 -11l584 -737l583 737l21 11h20l10 -11v-1382h154l10 -10l-82 -389l-10 -11h-20l-11 11l72 358h-143l-10 10v1362l-584 -737h-21l-583 737v-1362l-11 -10h-20z" />
<glyph unicode="&#x4ce;" horiz-adv-x="1351" d="M205 10v942l10 11h21l20 -11l420 -532l420 532l20 11h21l10 -11v-911h153l11 -10l-66 -307l-10 -11h-21l-10 11l56 276h-144l-10 10v881l-420 -522h-20l-420 522v-881l-10 -10h-21z" />
<glyph unicode="&#x4cf;" horiz-adv-x="450" d="M205 10v1413l10 11h21l10 -11v-1413l-10 -10h-21z" />
<glyph unicode="&#x4d0;" horiz-adv-x="1310" d="M61 10l564 1413l10 11h41l10 -11l563 -1413l-10 -10h-20l-11 10l-198 492h-709l-199 -492l-10 -10h-20zM317 543h676l-338 850zM338 1782l10 10h21l10 -10q14 -121 93 -178.5t183 -57.5t183.5 57.5t93.5 178.5l10 10h21l10 -10q-7 -71 -34.5 -125t-70.5 -87t-96.5 -49 t-116.5 -16t-116 16t-96 49t-70.5 87t-34.5 125z" />
<glyph unicode="&#x4d1;" horiz-adv-x="1064" d="M123 225q0 93 51.5 160.5t151 108t223.5 61.5t291 29q0 198 -89 283t-259 85q-76 0 -143 -21.5t-144 -60.5l-10 11l20 41q140 71 277 71q199 0 294 -100.5t95 -308.5v-574l-11 -10h-20l-10 10v103q-78 -61 -180 -102.5t-209 -41.5q-143 0 -235.5 68.5t-92.5 187.5z M168 225q0 -103 80.5 -159t202.5 -56q103 0 209.5 44.5t179.5 109.5v379q-101 -5 -182 -14t-160 -24.5t-136.5 -39.5t-102.5 -57t-68 -79t-23 -104zM215 1362l10 10h21l10 -10q15 -122 86 -189t180 -67t180 67t86 189l11 10h20l10 -10q-15 -139 -96 -218t-211 -79t-211 79 t-96 218z" />
<glyph unicode="&#x4d2;" horiz-adv-x="1310" d="M61 10l564 1413l10 11h41l10 -11l563 -1413l-10 -10h-20l-11 10l-198 492h-709l-199 -492l-10 -10h-20zM317 543h676l-338 850zM348 1638v21l62 61h20l62 -61v-21l-62 -61h-20zM819 1638v21l62 61h20l62 -61v-21l-62 -61h-20z" />
<glyph unicode="&#x4d3;" horiz-adv-x="1064" d="M123 225q0 93 51.5 160.5t151 108t223.5 61.5t291 29q0 198 -89 283t-259 85q-76 0 -143 -21.5t-144 -60.5l-10 11l20 41q140 71 277 71q199 0 294 -100.5t95 -308.5v-574l-11 -10h-20l-10 10v103q-78 -61 -180 -102.5t-209 -41.5q-143 0 -235.5 68.5t-92.5 187.5z M168 225q0 -103 80.5 -159t202.5 -56q103 0 209.5 44.5t179.5 109.5v379q-101 -5 -182 -14t-160 -24.5t-136.5 -39.5t-102.5 -57t-68 -79t-23 -104zM236 1219v20l51 51h20l51 -51v-20l-51 -52h-20zM686 1219v20l51 51h21l51 -51v-20l-51 -52h-21z" />
<glyph unicode="&#x4d4;" horiz-adv-x="2048" d="M61 10l1065 1413l21 11h706l11 -11v-20l-11 -10h-665v-584h502l10 -10v-21l-10 -10h-502v-727h727l10 -10v-21l-10 -10h-758l-10 10v492h-666l-368 -492l-21 -10h-20zM512 543h635v839z" />
<glyph unicode="&#x4d5;" horiz-adv-x="1761" d="M123 225q0 307 676 307q0 122 -24.5 207.5t-70 130t-99.5 63.5t-124 19q-53 0 -106.5 -14t-84 -27t-85.5 -41l-10 11l20 41q140 71 266 71q312 0 353 -307q44 135 155 221t260 86q79 0 146 -28t110.5 -73.5t74.5 -104t44.5 -118t13.5 -116.5q0 -28 -10 -51l-20 -10h-764 q0 -131 57 -242t157.5 -175.5t221.5 -64.5q179 0 328 133l10 -10v-31q-54 -54 -143 -93.5t-195 -39.5q-156 0 -274.5 92t-171.5 236q-22 -103 -86 -179.5t-146.5 -112.5t-171.5 -36q-129 0 -218 69t-89 187zM168 225q0 -102 77.5 -158.5t184.5 -56.5q67 0 131.5 25t118 71.5 t86.5 120t33 162.5v103q-631 0 -631 -267zM844 532h753q-8 187 -102 303.5t-246 116.5q-172 0 -280.5 -118.5t-124.5 -301.5z" />
<glyph unicode="&#x4d6;" horiz-adv-x="1064" d="M205 10v1413l10 11h696l11 -11v-20l-11 -10h-665v-584h502l10 -10v-21l-10 -10h-502v-727h727l10 -10v-21l-10 -10h-758zM256 1782l10 10h21l10 -10q14 -121 93 -178.5t183 -57.5t183.5 57.5t93.5 178.5l10 10h21l10 -10q-7 -71 -34.5 -125t-70.5 -87t-96.5 -49 t-116.5 -16t-116 16t-96 49t-70.5 87t-34.5 125z" />
<glyph unicode="&#x4d7;" horiz-adv-x="1126" d="M123 492q0 140 57 253.5t165.5 180.5t248.5 67q85 0 156 -28t117 -73.5t78 -104.5t45.5 -117.5t13.5 -116.5q0 -26 -11 -51l-20 -10h-805q0 -205 128.5 -343.5t338.5 -138.5q91 0 179.5 35.5t158.5 97.5l10 -10v-31q-51 -51 -149.5 -92t-198.5 -41q-154 0 -272 71.5 t-179 190t-61 261.5zM168 532h795q-8 189 -106 304.5t-263 115.5q-186 0 -298 -118t-128 -302zM287 1362l10 10h20l11 -10q15 -122 86 -189t180 -67t180 67t86 189l10 10h21l10 -10q-15 -139 -96 -218t-211 -79t-211 79t-96 218z" />
<glyph unicode="&#x4d8;" horiz-adv-x="1761" d="M164 676q0 18 10 41l21 10h1382q-10 193 -104.5 352t-255.5 251.5t-357 92.5q-302 0 -522 -174l-10 11v40q114 79 237.5 121.5t294.5 42.5q155 0 295.5 -59.5t241.5 -160t161 -238.5t60 -289t-60 -289.5t-161 -239t-241.5 -160t-295.5 -59.5q-96 0 -190.5 23.5t-187 78.5 t-162.5 134.5t-113 201t-43 269.5zM205 686q0 -144 43 -262t111 -193.5t156 -126.5t174.5 -72.5t170.5 -21.5q146 0 277 55.5t224 148t151 216t65 256.5h-1372z" />
<glyph unicode="&#x4d9;" horiz-adv-x="1126" d="M123 451q0 28 10 51l21 10h804q-8 125 -60.5 223t-152 157.5t-233.5 59.5q-159 0 -307 -82l-10 11l20 41q140 71 297 71q227 0 359.5 -144.5t132.5 -377.5q0 -140 -54.5 -253.5t-158 -181t-238.5 -67.5q-86 0 -158.5 28.5t-121.5 76t-83.5 110.5t-50.5 130.5t-16 136.5z M168 471q0 -206 107.5 -333.5t277.5 -127.5q177 0 289 127t116 334h-790z" />
<glyph unicode="&#x4da;" horiz-adv-x="1761" d="M164 676q0 18 10 41l21 10h1382q-10 193 -104.5 352t-255.5 251.5t-357 92.5q-302 0 -522 -174l-10 11v40q114 79 237.5 121.5t294.5 42.5q155 0 295.5 -59.5t241.5 -160t161 -238.5t60 -289t-60 -289.5t-161 -239t-241.5 -160t-295.5 -59.5q-96 0 -190.5 23.5t-187 78.5 t-162.5 134.5t-113 201t-43 269.5zM205 686q0 -144 43 -262t111 -193.5t156 -126.5t174.5 -72.5t170.5 -21.5q146 0 277 55.5t224 148t151 216t65 256.5h-1372zM553 1638v21l61 61h21l61 -61v-21l-61 -61h-21zM1024 1638v21l61 61h21l61 -61v-21l-61 -61h-21z" />
<glyph unicode="&#x4db;" horiz-adv-x="1126" d="M123 451q0 28 10 51l21 10h804q-8 125 -60.5 223t-152 157.5t-233.5 59.5q-159 0 -307 -82l-10 11l20 41q140 71 297 71q227 0 359.5 -144.5t132.5 -377.5q0 -140 -54.5 -253.5t-158 -181t-238.5 -67.5q-86 0 -158.5 28.5t-121.5 76t-83.5 110.5t-50.5 130.5t-16 136.5z M168 471q0 -206 107.5 -333.5t277.5 -127.5q177 0 289 127t116 334h-790zM246 1219v20l51 51h20l52 -51v-20l-52 -52h-20zM696 1219v20l52 51h20l51 -51v-20l-51 -52h-20z" />
<glyph unicode="&#x4dc;" horiz-adv-x="1761" d="M61 10l512 778l-491 635l10 11h21l20 -11l475 -614h252v614l10 11h21l10 -11v-614h252l475 614l21 11h20l10 -11l-491 -635l512 -778l-10 -10h-21l-20 10l-496 758h-252v-758l-10 -10h-21l-10 10v758h-252l-495 -758l-21 -10h-20zM573 1638v21l62 61h20l62 -61v-21 l-62 -61h-20zM1044 1638v21l62 61h20l62 -61v-21l-62 -61h-20z" />
<glyph unicode="&#x4dd;" horiz-adv-x="1392" d="M61 10l338 502l-317 440l10 11h27l20 -11l297 -420h240v420l10 11h21l10 -11v-420h239l297 420l21 11h26l11 -11l-318 -440l338 -502l-10 -10h-27l-20 10l-318 482h-239v-482l-10 -10h-21l-10 10v482h-240l-317 -482l-21 -10h-26zM410 1219v20l51 51h20l51 -51v-20 l-51 -52h-20zM860 1219v20l51 51h21l51 -51v-20l-51 -52h-21z" />
<glyph unicode="&#x4de;" horiz-adv-x="1167" d="M82 184l20 21h21q66 -88 191 -141.5t239 -53.5q191 0 318.5 119.5t127.5 290.5q0 122 -91.5 219.5t-231.5 97.5h-256l-10 11v20l10 10h235q42 0 88.5 22t85.5 59.5t64 92t25 113.5q0 151 -110 254.5t-276 103.5q-212 0 -348 -174h-20l-21 21q64 88 166.5 141t222.5 53 q184 0 307.5 -116t123.5 -283q0 -100 -53.5 -177t-131.5 -120q112 -32 189 -127t77 -221q0 -188 -140.5 -319.5t-350.5 -131.5q-132 0 -265 56.5t-206 158.5zM246 1638v21l61 61h21l61 -61v-21l-61 -61h-21zM717 1638v21l61 61h21l61 -61v-21l-61 -61h-21z" />
<glyph unicode="&#x4df;" horiz-adv-x="983" d="M164 61v31l10 10q130 -92 338 -92q163 0 253.5 72.5t90.5 183.5q0 82 -74 143.5t-198 61.5h-185l-10 10v21l10 10h154q105 0 183.5 59.5t78.5 155.5q0 92 -79 158.5t-224 66.5q-89 0 -149 -17t-148 -65l-10 11v32q79 42 143.5 61t163.5 19q85 0 153.5 -22.5t110 -60.5 t63 -85t21.5 -98q0 -152 -164 -225q90 -25 147.5 -86.5t57.5 -149.5q0 -130 -99 -213.5t-290 -83.5q-224 0 -348 92zM184 1219v20l52 51h20l51 -51v-20l-51 -52h-20zM635 1219v20l51 51h21l51 -51v-20l-51 -52h-21z" />
<glyph unicode="&#x4e0;" horiz-adv-x="1105" d="M82 195l20 20h21q67 -97 171 -151t208 -54q172 0 294 123.5t122 296.5q0 162 -116 265.5t-300 103.5q-49 0 -103 -21l-10 10l399 605h-655l-10 10v20l10 11h717l10 -11l-379 -583q219 7 350.5 -107.5t131.5 -302.5q0 -190 -135.5 -325.5t-325.5 -135.5q-119 0 -228 57 t-192 169z" />
<glyph unicode="&#x4e1;" horiz-adv-x="1024" d="M82 -399l10 30h21q133 -133 338 -133q179 0 302.5 125.5t123.5 315.5q0 171 -122 290t-304 119q-65 0 -144 -31l-10 11l451 594h-635l-11 10v20l11 11h696l10 -11l-420 -563q105 11 202.5 -20.5t167 -93t111.5 -150t42 -186.5q0 -206 -135.5 -344t-335.5 -138 q-108 0 -196.5 34t-172.5 110z" />
<glyph unicode="&#x4e2;" horiz-adv-x="1515" d="M205 10v1413l10 11h21l10 -11v-1362l1007 1362l21 11h26l11 -11v-1413l-11 -10h-20l-10 10v1362l-1010 -1362l-20 -10h-25zM410 1638v21l10 10h676l10 -10v-21l-10 -10h-676z" />
<glyph unicode="&#x4e3;" d="M205 10v942l10 11h21l10 -11v-891l725 891l20 11h21l12 -11v-942l-12 -10h-21l-8 10v891l-727 -891l-20 -10h-21zM287 1219v20l10 10h635l10 -10v-20l-10 -11h-635z" />
<glyph unicode="&#x4e4;" horiz-adv-x="1515" d="M205 10v1413l10 11h21l10 -11v-1362l1007 1362l21 11h26l11 -11v-1413l-11 -10h-20l-10 10v1362l-1010 -1362l-20 -10h-25zM451 1638v21l61 61h20l62 -61v-21l-62 -61h-20zM922 1638v21l61 61h21l61 -61v-21l-61 -61h-21z" />
<glyph unicode="&#x4e5;" d="M205 10v942l10 11h21l10 -11v-891l725 891l20 11h21l12 -11v-942l-12 -10h-21l-8 10v891l-727 -891l-20 -10h-21zM328 1219v20l51 51h20l52 -51v-20l-52 -52h-20zM778 1219v20l51 51h21l51 -51v-20l-51 -52h-21z" />
<glyph unicode="&#x4e6;" horiz-adv-x="1802" d="M143 717q0 152 60 290t161.5 238.5t242 159.5t294.5 59t294.5 -59t242 -159.5t161.5 -238.5t60 -290t-60 -290.5t-161.5 -238.5t-242 -159.5t-294.5 -59.5t-294.5 59.5t-242 159.5t-161.5 238.5t-60 290.5zM188 717q0 -191 96.5 -354t261 -258t355.5 -95t355.5 95 t261 258t96.5 354q0 143 -57 274t-153 225.5t-228 150.5t-275 56t-275 -56t-228 -150.5t-153 -225.5t-57 -274zM594 1638v21l61 61h21l61 -61v-21l-61 -61h-21zM1065 1638v21l61 61h21l61 -61v-21l-61 -61h-21z" />
<glyph unicode="&#x4e7;" d="M123 481q0 215 142 363.5t349 148.5t349.5 -148.5t142.5 -363.5t-142.5 -363.5t-349.5 -148.5t-349 148.5t-142 363.5zM168 481q0 -198 130 -334.5t316 -136.5t316.5 136.5t130.5 334.5t-130.5 334.5t-316.5 136.5t-316 -136.5t-130 -334.5zM328 1219v20l51 51h20l52 -51 v-20l-52 -52h-20zM778 1219v20l51 51h21l51 -51v-20l-51 -52h-21z" />
<glyph unicode="&#x4e8;" horiz-adv-x="1802" d="M143 717q0 152 60 290t161.5 238.5t242 159.5t294.5 59t294.5 -59t242 -159.5t161.5 -238.5t60 -290t-60 -290.5t-161.5 -238.5t-242 -159.5t-294.5 -59.5t-294.5 59.5t-242 159.5t-161.5 238.5t-60 290.5zM188 727q2 -150 61 -284.5t155.5 -228.5t226.5 -149t270 -55 t270 55t226.5 149t155.5 228.5t61 284.5h-1426zM188 768h1424q-9 130 -67.5 249t-151 209t-221.5 143.5t-271 53.5t-271 -53.5t-222 -143.5t-151.5 -209t-68.5 -249z" />
<glyph unicode="&#x4e9;" d="M123 481q0 215 142 363.5t349 148.5t349.5 -148.5t142.5 -363.5t-142.5 -363.5t-349.5 -148.5t-349 148.5t-142 363.5zM168 461q5 -126 65.5 -229.5t161.5 -162.5t219 -59t219 59t162 162.5t66 229.5h-893zM168 502h893q-5 126 -66 229.5t-161.5 162t-219.5 58.5 q-118 0 -219 -58.5t-161.5 -162t-65.5 -229.5z" />
<glyph unicode="&#x4ea;" horiz-adv-x="1802" d="M143 717q0 152 60 290t161.5 238.5t242 159.5t294.5 59t294.5 -59t242 -159.5t161.5 -238.5t60 -290t-60 -290.5t-161.5 -238.5t-242 -159.5t-294.5 -59.5t-294.5 59.5t-242 159.5t-161.5 238.5t-60 290.5zM188 727q2 -150 61 -284.5t155.5 -228.5t226.5 -149t270 -55 t270 55t226.5 149t155.5 228.5t61 284.5h-1426zM188 768h1424q-9 130 -67.5 249t-151 209t-221.5 143.5t-271 53.5t-271 -53.5t-222 -143.5t-151.5 -209t-68.5 -249zM594 1638v21l61 61h21l61 -61v-21l-61 -61h-21zM1065 1638v21l61 61h21l61 -61v-21l-61 -61h-21z" />
<glyph unicode="&#x4eb;" d="M123 481q0 215 142 363.5t349 148.5t349.5 -148.5t142.5 -363.5t-142.5 -363.5t-349.5 -148.5t-349 148.5t-142 363.5zM168 461q5 -126 65.5 -229.5t161.5 -162.5t219 -59t219 59t162 162.5t66 229.5h-893zM168 502h893q-5 126 -66 229.5t-161.5 162t-219.5 58.5 q-118 0 -219 -58.5t-161.5 -162t-65.5 -229.5zM328 1219v20l51 51h20l52 -51v-20l-52 -52h-20zM778 1219v20l51 51h21l51 -51v-20l-51 -52h-21z" />
<glyph unicode="&#x4ec;" horiz-adv-x="1556" d="M164 123v41l10 10q208 -164 481 -164q144 0 275.5 56.5t227.5 152t153 228.5t57 280h-846l-10 10v21l10 10h846q-13 182 -110.5 332t-257 236.5t-345.5 86.5q-275 0 -481 -163l-10 10v41q212 153 491 153q155 0 295.5 -59.5t241.5 -160t161 -238.5t60 -289t-60 -289.5 t-161 -239t-241.5 -160t-295.5 -59.5q-278 0 -491 154zM369 1690v20l51 51h20l52 -51v-20l-52 -52h-20zM819 1690v20l51 51h21l51 -51v-20l-51 -52h-21z" />
<glyph unicode="&#x4ed;" horiz-adv-x="1105" d="M143 72v30l11 11q81 -59 154 -81t163 -22q194 0 326.5 129t140.5 322h-580l-10 10v21l10 10h580q-8 193 -140.5 321.5t-326.5 128.5q-91 0 -163.5 -22t-153.5 -80l-11 10v31q137 102 328 102q150 0 268 -69t181 -185.5t63 -257.5t-63 -257.5t-181 -185.5t-268 -69 q-190 0 -328 103zM184 1219v20l52 51h20l51 -51v-20l-51 -52h-20zM635 1219v20l51 51h21l51 -51v-20l-51 -52h-21z" />
<glyph unicode="&#x4ee;" horiz-adv-x="1187" d="M61 1423l11 11h20l10 -11l492 -972l491 972l11 11h20l10 -11l-614 -1228q-122 -226 -369 -226l-10 15v16l10 10q120 0 197.5 53t130.5 142l102 194zM246 1638v21l10 10h676l10 -10v-21l-10 -10h-676z" />
<glyph unicode="&#x4ef;" horiz-adv-x="1024" d="M61 -461l11 10q79 0 133 52.5t123 173.5l164 338l-431 839l11 11h20l21 -11l409 -788l389 788l21 11h20l11 -11l-594 -1198q-68 -128 -132.5 -187t-164.5 -59l-11 15v16zM195 1219v20l10 10h635l10 -10v-20l-10 -11h-635z" />
<glyph unicode="&#x4f0;" horiz-adv-x="1187" d="M61 1423l11 11h20l10 -11l492 -972l491 972l11 11h20l10 -11l-614 -1228q-122 -226 -369 -226l-10 15v16l10 10q120 0 197.5 53t130.5 142l102 194zM287 1638v21l61 61h21l61 -61v-21l-61 -61h-21zM758 1638v21l61 61h21l61 -61v-21l-61 -61h-21z" />
<glyph unicode="&#x4f1;" horiz-adv-x="1024" d="M61 -461l11 10q79 0 133 52.5t123 173.5l164 338l-431 839l11 11h20l21 -11l409 -788l389 788l21 11h20l11 -11l-594 -1198q-68 -128 -132.5 -187t-164.5 -59l-11 15v16zM236 1219v20l51 51h20l51 -51v-20l-51 -52h-20zM686 1219v20l51 51h21l51 -51v-20l-51 -52h-21z " />
<glyph unicode="&#x4f2;" horiz-adv-x="1187" d="M61 1423l11 11h20l10 -11l492 -972l491 972l11 11h20l10 -11l-614 -1228q-122 -226 -369 -226l-10 15v16l10 10q120 0 197.5 53t130.5 142l102 194zM348 1526l195 256l20 10h31l10 -10l-205 -256l-20 -10h-21zM778 1526l195 256l20 10h31l10 -10l-205 -256l-20 -10h-21z " />
<glyph unicode="&#x4f3;" horiz-adv-x="1024" d="M61 -461l11 10q79 0 133 52.5t123 173.5l164 338l-431 839l11 11h20l21 -11l409 -788l389 788l21 11h20l11 -11l-594 -1198q-68 -128 -132.5 -187t-164.5 -59l-11 15v16zM287 1065l184 297l21 10h30l10 -10l-194 -297l-21 -10h-20zM676 1065l184 297l21 10h30l11 -10 l-195 -297l-20 -10h-21z" />
<glyph unicode="&#x4f4;" horiz-adv-x="1310" d="M184 1167v256l11 11h20l10 -11v-235q0 -280 116.5 -421.5t334.5 -141.5q118 0 209 35t180 108v655l10 11h21l10 -11v-1413l-10 -10h-21l-10 10v707q-66 -58 -169 -95.5t-220 -37.5q-233 0 -362.5 151t-129.5 432zM358 1638v21l62 61h20l62 -61v-21l-62 -61h-20zM829 1638 v21l62 61h20l62 -61v-21l-62 -61h-20z" />
<glyph unicode="&#x4f5;" horiz-adv-x="1105" d="M143 768v184l11 11h20l10 -11v-174q0 -178 89.5 -258t258.5 -80q78 0 163.5 27t123.5 65v420l10 11h21l10 -11v-942l-10 -10h-21l-10 10v471q-52 -37 -133.5 -59.5t-153.5 -22.5q-389 0 -389 369zM236 1219v20l51 51h20l51 -51v-20l-51 -52h-20zM686 1219v20l51 51h21 l51 -51v-20l-51 -52h-21z" />
<glyph unicode="&#x4f6;" horiz-adv-x="983" d="M205 10v1413l10 11h696l11 -11v-20l-11 -10h-665v-1352h153l11 -10v-389l-11 -11h-20l-10 11v358h-154z" />
<glyph unicode="&#x4f7;" horiz-adv-x="901" d="M205 10v942l10 11h635l10 -11v-20l-10 -10h-604v-881h153l11 -10v-307l-11 -11h-20l-10 11v276h-154z" />
<glyph unicode="&#x4f8;" horiz-adv-x="1556" d="M205 10v1413l10 11h21l10 -11v-614h338q228 0 354.5 -106.5t126.5 -292.5q0 -187 -127 -298.5t-354 -111.5h-369zM246 41h338q203 0 319.5 102t116.5 267q0 169 -114.5 263.5t-321.5 94.5h-338v-727zM471 1638v21l61 61h21l61 -61v-21l-61 -61h-21zM942 1638v21l62 61h20 l61 -61v-21l-61 -61h-20zM1311 10v1413l10 11h20l11 -11v-1413l-11 -10h-20z" />
<glyph unicode="&#x4f9;" horiz-adv-x="1269" d="M205 10v942l10 11h21l10 -11v-379h225q166 0 257 -76.5t91 -209.5t-91 -210t-257 -77h-256zM246 41h225q149 0 226 67t77 179t-77 178.5t-226 66.5h-225v-491zM348 1219v20l51 51h21l51 -51v-20l-51 -52h-21zM799 1219v20l51 51h20l52 -51v-20l-52 -52h-20zM1024 10v942 l10 11h21l10 -11v-942l-10 -10h-21z" />
<glyph unicode="&#x4fa;" horiz-adv-x="983" d="M41 778v21l10 10h154v614l10 11h696l11 -11v-20l-11 -10h-665v-584h420l10 -10v-21l-10 -10h-420v-727h153l11 -10v-113q0 -317 -215 -317q-72 0 -113 20v31l10 10q41 -20 103 -20q38 0 66.5 12t54.5 42t39.5 88.5t13.5 143.5v72h-154l-10 10v758h-154z" />
<glyph unicode="&#x4fb;" horiz-adv-x="901" d="M41 471v21l10 10h154v450l10 11h635l10 -11v-20l-10 -10h-604v-420h235l11 -10v-21l-11 -10h-235v-420h153l11 -10v-256q0 -318 -215 -318q-70 0 -113 21v30l10 11q43 -21 103 -21q38 0 66.5 12t54.5 42t39.5 89t13.5 144v215h-154l-10 10v451h-154z" />
<glyph unicode="&#x4fc;" horiz-adv-x="1351" d="M61 10l590 731l-549 682l11 11h20l21 -11l522 -649l522 649l21 11h20l10 -11l-549 -682q46 -56 116.5 -136t119 -134t104 -125.5t89.5 -129t56.5 -125.5t22.5 -132q0 -145 -81 -251.5t-205 -106.5q-125 0 -205 71v31l10 10q60 -43 95.5 -57t101.5 -14q104 0 171.5 94 t67.5 223q0 57 -21 119t-51.5 115t-83.5 122.5t-98.5 122t-115.5 134t-117 139.5l-563 -701l-21 -10h-20z" />
<glyph unicode="&#x4fd;" horiz-adv-x="901" d="M61 10l365 486l-344 456l10 11h21l20 -11l318 -424l317 424l20 11h21l10 -11l-344 -456q174 -212 226 -285q126 -178 151 -334q8 -49 8 -102q0 -132 -72.5 -225t-173.5 -93q-122 0 -204 72v31l10 10q61 -43 96 -57.5t100 -14.5q83 0 141 80.5t58 196.5q0 70 -17 137 t-41 121.5t-78 133t-97.5 135t-130.5 163.5l-338 -455l-21 -10h-20z" />
<glyph unicode="&#x4fe;" horiz-adv-x="1351" d="M61 10l574 717h-359l-10 10v21l10 10h359l-533 655l11 11h20l21 -11l522 -645l522 645l21 11h20l10 -11l-532 -655h358l10 -10v-21l-10 -10h-358l573 -717l-10 -10h-20l-21 10l-563 707l-563 -707l-21 -10h-20z" />
<glyph unicode="&#x4ff;" horiz-adv-x="901" d="M61 10l349 471h-277l-10 11v20l10 10h277l-328 430l10 11h21l20 -11l318 -420l317 420l20 11h21l10 -11l-327 -430h276l10 -10v-20l-10 -11h-276l348 -471l-11 -10h-20l-21 10l-337 461l-338 -461l-21 -10h-20z" />
<glyph unicode="&#x2000;" horiz-adv-x="901" />
<glyph unicode="&#x2001;" horiz-adv-x="1802" />
<glyph unicode="&#x2002;" horiz-adv-x="901" />
<glyph unicode="&#x2003;" horiz-adv-x="1802" />
<glyph unicode="&#x2004;" horiz-adv-x="600" />
<glyph unicode="&#x2005;" horiz-adv-x="450" />
<glyph unicode="&#x2006;" horiz-adv-x="300" />
<glyph unicode="&#x2007;" horiz-adv-x="300" />
<glyph unicode="&#x2008;" horiz-adv-x="225" />
<glyph unicode="&#x2009;" horiz-adv-x="360" />
<glyph unicode="&#x200a;" horiz-adv-x="100" />
<glyph unicode="&#x2010;" horiz-adv-x="819" d="M82 471v21l10 10h635l10 -10v-21l-10 -10h-635z" />
<glyph unicode="&#x2011;" horiz-adv-x="819" d="M82 471v21l10 10h635l10 -10v-21l-10 -10h-635z" />
<glyph unicode="&#x2012;" horiz-adv-x="819" d="M82 471v21l10 10h635l10 -10v-21l-10 -10h-635z" />
<glyph unicode="&#x2013;" horiz-adv-x="1024" d="M82 471v21l10 10h840l10 -10v-21l-10 -10h-840z" />
<glyph unicode="&#x2014;" horiz-adv-x="2048" d="M82 471v21l10 10h1864l10 -10v-21l-10 -10h-1864z" />
<glyph unicode="&#x2018;" horiz-adv-x="532" d="M205 1034v113q0 148 46 217.5t148 69.5v-11q-153 -33 -153 -266v-123l-10 -10h-21z" />
<glyph unicode="&#x2019;" horiz-adv-x="532" d="M133 1024v10q154 33 154 266v123l10 11h20l11 -11v-112q0 -148 -46.5 -217.5t-148.5 -69.5z" />
<glyph unicode="&#x201a;" horiz-adv-x="532" d="M174 -276q154 33 154 266v123l10 10h20l11 -10v-113q0 -148 -46.5 -217.5t-148.5 -69.5v11z" />
<glyph unicode="&#x201c;" horiz-adv-x="819" d="M205 1034v113q0 148 46 217.5t148 69.5v-11q-153 -33 -153 -266v-123l-10 -10h-21zM492 1096v51q0 148 46 217.5t148 69.5v-11q-154 -33 -154 -266v-61l-10 -11h-20z" />
<glyph unicode="&#x201d;" horiz-adv-x="819" d="M133 1024v10q154 33 154 266v123l10 11h20l11 -11v-112q0 -148 -46.5 -217.5t-148.5 -69.5zM420 1085v11q153 33 153 266v61l11 11h20l10 -11v-51q0 -148 -46 -217.5t-148 -69.5z" />
<glyph unicode="&#x201e;" horiz-adv-x="819" d="M174 -276q154 33 154 266v123l10 10h20l11 -10v-113q0 -148 -46.5 -217.5t-148.5 -69.5v11zM461 -215q153 33 153 266v62l11 10h20l10 -10v-52q0 -148 -46 -217t-148 -69v10z" />
<glyph unicode="&#x2026;" horiz-adv-x="2048" d="M266 10v62l10 10h62l10 -10v-62l-10 -10h-62zM948 10v62l10 10h62l10 -10v-62l-10 -10h-62zM1630 10v62l10 10h62l10 -10v-62l-10 -10h-62z" />
<glyph unicode="&#x202f;" horiz-adv-x="360" />
<glyph unicode="&#x2039;" horiz-adv-x="614" d="M82 471v21l399 399l11 -10v-31l-369 -369l369 -368v-31l-11 -10z" />
<glyph unicode="&#x203a;" horiz-adv-x="614" d="M123 82v31l369 368l-369 369v31l10 10l399 -399v-21l-399 -399z" />
<glyph unicode="&#x205f;" horiz-adv-x="450" />
<glyph unicode="&#x20ac;" horiz-adv-x="1617" d="M72 553l10 20l20 11h115q-12 64 -12 133q0 63 8 112h-131l-10 11l10 20l20 10h119q55 255 262.5 424.5t479.5 169.5q279 0 491 -153v-41l-10 -10q-206 163 -481 163q-165 0 -312.5 -72.5t-248 -198.5t-136.5 -282h973l10 -10v-20l-10 -11h-981q-8 -49 -8 -112 q0 -69 12 -133h813l10 -11v-20l-10 -10h-805q61 -231 254.5 -382t438.5 -151q273 0 481 164l10 -10v-41q-213 -154 -491 -154q-266 0 -471.5 162.5t-266.5 411.5h-143z" />
<glyph unicode="&#x2122;" horiz-adv-x="1925" d="M102 1403v20l11 11h716l11 -11v-20l-11 -10h-337v-727l-11 -11h-20l-10 11v727h-338zM983 666v757l10 11h21l20 -11l318 -430l317 430l21 11h20l10 -11v-757l-10 -11h-20l-11 11v696l-317 -420h-21l-317 420v-696l-10 -11h-21z" />
<glyph unicode="&#x25fc;" horiz-adv-x="962" d="M0 0v963h963v-963h-963z" />
</font>
</defs>
</svg>
